<?xml version="1.0" encoding="utf-8"?>
<!-- Generator: Adobe Illustrator 26.0.3, SVG Export Plug-In . SVG Version: 6.00 Build 0)  -->
<svg version="1.1" id="Capa_1" xmlns="http://www.w3.org/2000/svg" xmlns:xlink="http://www.w3.org/1999/xlink" x="0px" y="0px"
	 viewBox="0 0 444 100" style="enable-background:new 0 0 444 100;" xml:space="preserve">
<style type="text/css">
	.st0{fill:#3F26F5;}
	.st1{fill:#F2FD53;}
	.st2{fill:#575B5C;}
</style>
<g>
	<path class="st0" d="M58.1,84.4H28.8c-7.1,0-13-5.8-13-13c0-7.2,5.8-13,13-13h29.3c7.1,0,13,5.8,13,13
		C71.1,78.5,65.3,84.4,58.1,84.4z M28.8,58.8c-6.9,0-12.5,5.6-12.5,12.5c0,6.9,5.6,12.5,12.5,12.5h29.3c6.9,0,12.5-5.6,12.5-12.5
		c0-6.9-5.6-12.5-12.5-12.5H28.8z"/>
	<path class="st0" d="M35.8,75c-0.6,0.5-1.4,0.7-2.3,0.8l2.4,2.5h-2.6l-1.9-2.3c-0.2,0-0.3,0-0.5,0c-1.5,0-2.8-0.3-3.7-1
		c-1.2-0.8-1.7-2.2-1.7-3.9c0-1.7,0.5-3,1.7-3.9c1.1-0.7,2.6-0.9,4.3-0.9c1.8,0,3.2,0.2,4.3,1c1.2,0.8,1.7,2.2,1.7,3.9
		S37,74.1,35.8,75z M31.4,67.9c-2.7,0-3.9,0.8-3.9,3.1c0,2.3,1.2,3.3,3.9,3.3s3.9-0.8,3.9-3.1C35.3,68.9,34.2,67.9,31.4,67.9z"/>
	<path class="st0" d="M41.3,75c-0.9-0.7-1.1-1.7-1.1-3.2v-5.3h2.1v5.1c0,0.8,0.1,1.5,0.6,2c0.5,0.5,1.4,0.7,2.3,0.7
		c1,0,1.8-0.1,2.3-0.7c0.5-0.5,0.6-1.1,0.6-1.9v-5.2h2v5.3c0,1.5-0.2,2.5-1.1,3.3c-1,0.8-2.4,1-3.8,1C43.7,76,42.4,75.8,41.3,75z"/>
	<path class="st0" d="M53.8,75.7v-9.3h7.5v1.6h-5.5v2.1h5v1.6h-5v2.3h5.7v1.6L53.8,75.7L53.8,75.7z"/>
	<path class="st0" d="M202.9,84.5H89.3c-7.2,0-13-5.9-13-13.1c0-7.3,5.9-13.1,13-13.1h113.6c7.2,0,13,5.9,13,13.1
		C216,78.6,210.1,84.5,202.9,84.5z"/>
	<path class="st1" d="M202.9,85.5H89.3c-7.7,0-14.1-6.3-14.1-14.1c0-7.8,6.3-14.1,14.1-14.1h113.6c7.7,0,14.1,6.3,14.1,14.1
		C217,79.1,210.7,85.5,202.9,85.5z M89.3,59.3c-6.6,0-12,5.4-12,12.1c0,6.7,5.4,12.1,12,12.1h113.6c6.6,0,12-5.4,12-12.1
		c0-6.7-5.4-12.1-12-12.1H89.3z"/>
	<path class="st0" d="M202.9,84.5H89.3c-7.2,0-13-5.9-13-13.1c0-7.3,5.9-13.1,13-13.1h113.6c7.2,0,13,5.9,13,13.1
		C216,78.6,210.1,84.5,202.9,84.5z"/>
	<path class="st1" d="M202,81.1c5.3,0,9.7-4.3,9.7-9.7c0-5.3-4.3-9.7-9.7-9.7s-9.7,4.3-9.7,9.7C192.4,76.7,196.7,81.1,202,81.1z"/>
	<path class="st1" d="M92,74c-2,0-2.9-1-2.9-3.1c0-2.2,1.1-3.1,3.8-3.1c0.9,0,2.1,0,3.2,0.1h0.1v-2H96c-1-0.1-2.2-0.2-3.3-0.2
		c-1.2,0-2.8,0.1-4.1,0.9c-1.7,1.1-2,3.1-2,4.2c0,1.9,0.5,3.2,1.5,4.1c0.8,0.7,2,1,3.5,1c1.6,0,3.1-0.3,4.6-0.6h0.1v-2l-0.1,0
		C94.5,73.8,93.2,74,92,74z"/>
	<path class="st1" d="M108.8,66.8c-1-0.7-2.4-1-4.5-1c-1.5,0-3.3,0.1-4.5,1c-1.2,0.8-1.8,2.2-1.8,4.1c0,1.9,0.6,3.3,1.8,4.1
		c1,0.7,2.4,1,4.5,1c2.1,0,3.5-0.3,4.5-1c1.2-0.8,1.8-2.2,1.8-4.1C110.6,68.9,110,67.6,108.8,66.8z M108.2,71c0,2.2-1,3.1-3.9,3.1
		c-2.7,0-3.8-1-3.8-3.2c0-2.2,1-3.1,3.9-3.1C107.1,67.7,108.2,68.7,108.2,71z"/>
	<path class="st1" d="M121.7,72.7l-5.6-6.7l-0.1,0h-2.7v9.8h2.2v-6.7l5.8,6.7h2.5V66h-2.2V72.7z"/>
	<path class="st1" d="M129.9,71.7h5.2v-1.8h-5.2v-1.9h5.6V66h-8v9.8h8.2v-1.9h-5.9V71.7z"/>
	<path class="st1" d="M143.4,74c-2,0-2.9-1-2.9-3.1c0-2.2,1.1-3.1,3.8-3.1c0.9,0,2.1,0,3.2,0.1h0.1v-2h-0.1c-1-0.1-2.2-0.2-3.3-0.2
		c-1.2,0-2.8,0.1-4.1,0.9c-1.7,1.1-2,3.1-2,4.2c0,1.9,0.5,3.2,1.5,4.1c0.8,0.7,2,1,3.5,1c1.6,0,3.1-0.3,4.6-0.6h0.1v-2l-0.1,0
		C146,73.8,144.7,74,143.4,74z"/>
	<path class="st1" d="M159.6,66h-10.3v1.9h4v7.9h2.4v-7.9h3.9V66z"/>
	<path class="st1" d="M163.9,66l-5,9.8h2.6l1.1-2.2h5.2l1.1,2.2h2.7l-5-9.8H163.9z M167,71.7h-3.5l1.7-3.5L167,71.7z"/>
	<path class="st1" d="M182.1,66v6.7l-5.7-6.7h-2.6v9.8h2.2v-6.7l5.8,6.7h2.5V66H182.1z"/>
	<path class="st0" d="M200.1,76.5c-0.2,0-0.5-0.1-0.6-0.3l-2.2-3.5c-0.2-0.3-0.1-0.7,0.2-0.9c0.3-0.2,0.7-0.1,0.9,0.2l1.7,2.7l5.5-7
		c0.2-0.3,0.6-0.4,1-0.1c0.3,0.2,0.4,0.6,0.1,1l-6.1,7.8C200.5,76.4,200.3,76.5,200.1,76.5z"/>
	<path class="st0" d="M42.5,25.7h-2.1c-1.4,0-2.6,1.1-2.6,2.6v5.9c0,1-0.8,1.8-1.8,1.8H24.6c-1,0-1.8-0.8-1.8-1.8v-6
		c0-1.4-1.1-2.6-2.6-2.6h-2c-1.4,0-2.6,1.2-2.6,2.6v21.6c0,1.4,1.1,2.6,2.6,2.6h2c1.4,0,2.6-1.1,2.6-2.6v-6.5c0-1,0.8-1.8,1.8-1.8
		h11.5c1,0,1.8,0.8,1.8,1.8v6.5c0,1.4,1.1,2.6,2.6,2.6h2.1c1.4,0,2.6-1.1,2.6-2.6V28.2C45,26.8,43.9,25.7,42.5,25.7z"/>
	<path class="st0" d="M69.9,34.1c-2.6-1.8-6.2-2-8.7-2c-2.7,0-6.1,0.2-8.8,2.1c-3.2,2.3-3.7,6.2-3.7,8.3c0,3.8,1,6.5,3.2,8.3
		c2.3,1.9,5.7,2.2,8.3,2.2c3.6,0,7.3-0.5,10.4-1.1c1-0.2,1.8-1.1,1.8-2.1v-0.3c0-0.6-0.3-1.2-0.7-1.6c-0.4-0.4-1.1-0.6-1.7-0.5
		C67,47.7,64.2,48,61.9,48c-4.9,0-6-1.6-6.3-3c0-0.2,0-0.4,0.1-0.6c0.1-0.2,0.3-0.3,0.5-0.3h15c0.6,0,1.1-0.2,1.6-0.7
		c0.4-0.4,0.6-1,0.6-1.6C73.2,38.5,72.5,35.9,69.9,34.1z M55.9,38.5c0.7-1.6,2.4-2.2,5.4-2.2c3.4,0,5.1,0.8,5.6,2.8
		c0,0.2,0,0.4-0.1,0.6c-0.1,0.2-0.3,0.3-0.5,0.3h-9.4c-0.3,0-0.6-0.2-0.8-0.5C55.7,39.1,55.7,38.8,55.9,38.5z"/>
	<path class="st0" d="M94.8,47.7c-0.5-0.4-1.1-0.6-1.7-0.5c-2.3,0.4-4.2,0.6-5.8,0.6c-3.8,0-5.3-1.5-5.3-5.2c0-3.8,1.9-5.3,6.8-5.3
		c1.1,0,2.5,0,4.1,0.2c0.6,0,1.2-0.2,1.6-0.6c0.5-0.4,0.7-1,0.7-1.6v-0.8c0-1.1-0.9-2.1-2-2.2c-2-0.1-3.7-0.2-5.3-0.2
		c-2.7,0-6.1,0.2-8.7,2c-3.4,2.3-3.9,6.2-3.9,8.4c0,3.9,1,6.7,3.1,8.4c2.2,1.9,5.3,2.1,7.4,2.1c2.9,0,5.7-0.5,8.1-0.9
		c1-0.2,1.7-1.1,1.7-2.1v-0.6C95.6,48.7,95.3,48.1,94.8,47.7z"/>
	<path class="st0" d="M114.2,32.1c-2.1,0-4.6,0.4-8,1.2c-0.2,0-0.4,0-0.5-0.1c-0.1-0.1-0.2-0.3-0.2-0.5v-6.2c0-1.2-1-2.2-2.2-2.2
		H101c-1.2,0-2.2,1-2.2,2.2v23.6c0,1.2,1,2.2,2.2,2.2h2.3c1.2,0,2.2-1,2.2-2.2V39.9c0-0.9,0.6-1.6,1.4-1.7c2.1-0.5,3.8-0.7,5.2-0.7
		c2.8,0,4.1,1.3,4.1,4.4v8.4c0,1.2,1,2.2,2.2,2.2h2.3c1.2,0,2.2-1,2.2-2.2v-9.9c0-2.9-0.6-4.9-2.1-6.2
		C118.7,32.3,116.2,32.1,114.2,32.1z"/>
	<path class="st0" d="M148.2,34.1c-2.2-1.5-5.1-2.1-9.6-2.1c-4.5,0-7.4,0.6-9.6,2.1c-2.5,1.6-3.7,4.4-3.7,8.4c0,4,1.2,6.7,3.7,8.4
		c2.2,1.5,5.1,2.1,9.6,2.1c4.5,0,7.4-0.6,9.6-2.1c2.5-1.6,3.7-4.4,3.7-8.4C151.9,38.5,150.7,35.7,148.2,34.1z M145.2,42.6
		c0,3.8-1.8,5.3-6.5,5.3c-4.7,0-6.6-1.6-6.6-5.6c0-3.8,1.8-5.3,6.6-5.3C143.2,37.1,145.2,38.7,145.2,42.6z"/>
	<path class="st0" d="M165.1,39.9c-0.4,0-0.7-0.1-1.1-0.2c-1.3-0.2-2.5-0.4-3.4-0.6c-0.9-0.2-1.1-0.5-1.1-1.1c0-0.5,0.2-0.9,1-1.1
		c0.9-0.1,2.1-0.1,3.2-0.1c1.8,0,3.8,0.1,5.6,0.2c0.6,0,1.2-0.1,1.6-0.6c0.5-0.4,0.7-1,0.7-1.6v-0.4c0-1.1-0.9-2.1-2-2.2
		c-2.2-0.2-4-0.2-5.8-0.2c-2,0-4.9,0.1-6.8,1c-2.2,1-3.3,2.8-3.3,5.4c0,3.7,1.9,5.3,7.5,6.2c0.6,0.1,1.2,0.2,1.7,0.3
		c1.1,0.2,2.2,0.4,2.9,0.6c0.9,0.3,1.2,0.5,1.2,1.2c0,0.6-0.2,1-1.1,1.1c-1,0.2-2.6,0.2-4.1,0.2c-1.6,0-3.7-0.1-5.6-0.3
		c-0.6,0-1.2,0.1-1.6,0.6c-0.5,0.4-0.7,1-0.7,1.6v0.6c0,1.1,0.9,2.1,2,2.2c2.6,0.1,4.7,0.2,6.5,0.2c2.3,0,5.2-0.1,7.1-1
		c2.3-1.1,3.4-2.8,3.4-5.6C172.8,41.9,170.1,40.6,165.1,39.9z"/>
	<g>
		<path class="st2" d="M395.7,38.5c0.3,0,0.8,0,1.3,0c1.2,0,2.3-0.7,2.3-2.9c0-0.4,0-0.8-0.1-1.1c-0.1-0.4-0.3-0.7-0.6-1
			c-0.3-0.3-0.6-0.5-1-0.6c-0.4-0.1-0.8-0.2-1.1-0.2h-0.8L395.7,38.5L395.7,38.5z M396.9,31.8c0.5,0,1,0,1.5,0.2
			c0.5,0.2,0.9,0.4,1.3,0.8c0.4,0.3,0.6,0.8,0.8,1.2c0.2,0.5,0.2,1,0.2,1.5c0,0.6-0.1,1.1-0.3,1.6c-0.2,0.5-0.5,1-1,1.4
			c-0.4,0.4-0.9,0.7-1.4,0.9c-0.5,0.2-1.1,0.3-1.7,0.2h-1.9v-7.7H396.9z M388.4,33.1l-1.1,3.3h2.2L388.4,33.1z M389.8,37.5h-2.9
			l-0.7,2.1h-1.3l2.8-7.7l1.4-0.2l2.8,7.9h-1.4L389.8,37.5z M378.3,38.6c0.3,0,0.8,0,1.3,0c1.2,0,2.3-0.7,2.3-2.9
			c0-0.4,0-0.8-0.1-1.1c-0.1-0.4-0.3-0.7-0.6-1c-0.3-0.3-0.6-0.5-1-0.6c-0.4-0.1-0.7-0.2-1.1-0.2h-0.8L378.3,38.6L378.3,38.6z
			 M379.5,31.8c0.5-0.1,1,0,1.5,0.2c0.5,0.2,0.9,0.4,1.3,0.8c0.4,0.3,0.6,0.8,0.8,1.2c0.2,0.5,0.3,1,0.2,1.5c0,0.6-0.1,1.1-0.3,1.6
			c-0.2,0.5-0.5,1-1,1.4c-0.4,0.4-0.9,0.7-1.4,0.9c-0.5,0.2-1.1,0.3-1.7,0.2H377v-7.7H379.5z M373.7,39.5h-1.3v-7.7h1.3V39.5z
			 M364.5,33.8c0-1.2,1.1-2.1,2.7-2.1c0.8,0,1.5,0.1,2.3,0.3l-0.2,1.1c-0.7-0.3-1.5-0.5-2.3-0.5c-0.7,0-1.2,0.4-1.2,0.9
			c0,0.6,0.4,1,1.6,1.4c1.9,0.8,2.3,1.3,2.3,2.4c0,1.4-1.2,2.3-3.1,2.3c-0.7,0-1.5-0.1-2.2-0.3l0.3-1.2c0.8,0.3,1.7,0.5,2.6,0.5
			c0.7,0,1.3-0.3,1.3-1c0-0.6-0.3-1-1.7-1.7C365.1,35.5,364.5,35,364.5,33.8L364.5,33.8z M360.1,34.2c0-0.9-0.5-1.4-1.6-1.4h-0.8
			v2.6c0.3,0,0.7,0,1,0c0.2,0,0.3,0,0.5,0c0.2,0,0.3-0.1,0.5-0.2c0.1-0.1,0.2-0.2,0.3-0.4C360.1,34.5,360.2,34.4,360.1,34.2
			L360.1,34.2z M357.7,36.3v3.2h-1.3v-7.7h2.6c1.6,0,2.6,0.6,2.6,2c0,0.5-0.1,0.9-0.3,1.3c-0.2,0.4-0.6,0.7-1,0.9l1.9,3.6h-1.5
			l-1.6-3.2c-0.2,0-0.4,0-0.6,0L357.7,36.3z M349,31.8h4.7l-0.1,1h-3.2v2.3h2.9l-0.1,0.9h-2.8v2.5h3.5l-0.1,1.1H349V32L349,31.8z
			 M339.6,31.9l1.3-0.2L343,38l2.1-6.2h1.3l-2.8,7.6l-1.3,0.2L339.6,31.9z M337.2,39.5h-1.3v-7.7h1.3V39.5z M331.5,39.7l-4-5.9v5.7
			h-1.2v-7.7h1.3l3.8,5.7v-5.7h1.2v7.6L331.5,39.7z M317.1,31.8h1.3v4.8c0,1.5,0.7,2,2,2c0.8,0,1.4-0.5,1.4-1.7v-5.1h1.3v4.9
			c0,2-1.1,3-3.2,3c-1.7,0-2.9-0.9-2.9-2.7L317.1,31.8z"/>
		<path class="st2" d="M422.6,46.1h2.5v12.4l6.2-0.1l-0.3,2h-8.4L422.6,46.1L422.6,46.1z M411.9,48.5l-2.1,6.1h4.2L411.9,48.5z
			 M414.7,56.5h-5.5l-1.3,3.9h-2.5l5.4-14.2l2.6-0.3l5.4,14.6h-2.7L414.7,56.5z M399.5,60.6l-7.5-10.9v10.6h-2.3V46.1h2.5l7.1,10.5
			V46.1h2.3v14.1L399.5,60.6z M377.8,47.7c-2.2,0-4,1.4-4,5.1c0,4.2,1.9,5.9,4.8,5.9c2.2,0,4-1.4,4-5.2
			C382.7,49.4,380.7,47.7,377.8,47.7z M377.7,60.6c-3.8,0-6.4-2.6-6.4-7.1c-0.1-1,0.1-2.1,0.4-3c0.3-1,0.9-1.8,1.6-2.6
			s1.6-1.3,2.6-1.7c1-0.4,2-0.5,3-0.5c3.8,0,6.4,2.6,6.4,7.2c0.1,1-0.1,2.1-0.4,3c-0.4,1-0.9,1.8-1.6,2.6c-0.7,0.7-1.6,1.3-2.6,1.7
			C379.7,60.6,378.7,60.7,377.7,60.6L377.7,60.6z M366.8,60.4h-2.5V46.1h2.5V60.4z M360.2,59.6c-1.4,0.7-3,1-4.5,1
			c-4.1,0-7-2.5-7-7.3c-0.1-1,0.1-2,0.4-2.9c0.4-0.9,0.9-1.8,1.6-2.5c0.7-0.7,1.6-1.3,2.5-1.6c0.9-0.4,1.9-0.5,2.9-0.5
			c1.3,0,2.7,0.2,4,0.6l-0.6,2c-1.3-0.5-2.7-0.7-4.1-0.7c-2,0-4.1,1.2-4.1,5.3c0,4,2.7,5.7,5.1,5.7c1.1,0,2.2-0.3,3.2-0.7
			L360.2,59.6z M339.5,48.5l-2.1,6.1h4.2L339.5,48.5z M342.3,56.5h-5.5l-1.3,3.9h-2.5l5.4-14.2l2.6-0.3l5.4,14.6h-2.7L342.3,56.5z
			 M327,60.6l-7.5-10.9v10.6h-2.3V46.1h2.5l7.1,10.5V46.1h2.3v14.1L327,60.6z"/>
		<path class="st2" d="M326.4,67.4h4.8l-0.1,1h-3.3v2.2h3.1l-0.1,0.9h-2.9v2.4h3.6l-0.1,1h-4.9v-7.4L326.4,67.4z M318.4,73.8
			c0.3,0,0.9,0,1.3,0c1.2,0,2.4-0.7,2.4-2.8c0-0.4,0-0.8-0.2-1.1c-0.1-0.4-0.4-0.7-0.6-0.9c-0.3-0.3-0.6-0.5-1-0.6
			c-0.4-0.1-0.8-0.2-1.1-0.1h-0.9L318.4,73.8L318.4,73.8z M319.8,67.4c0.5-0.1,1,0,1.5,0.1c0.5,0.1,0.9,0.4,1.3,0.7
			c0.4,0.3,0.7,0.7,0.9,1.2c0.2,0.5,0.3,1,0.3,1.5c0,0.6-0.1,1.1-0.4,1.6c-0.2,0.5-0.6,1-1,1.3c-0.4,0.4-0.9,0.6-1.5,0.8
			c-0.5,0.2-1.1,0.2-1.7,0.2h-2v-7.4L319.8,67.4L319.8,67.4z"/>
		<path class="st2" d="M398.4,68.8l-1.1,3h2.3L398.4,68.8z M399.8,72.7h-2.9l-0.7,1.9h-1.3l2.9-7.1l1.4-0.2l2.9,7.3h-1.4L399.8,72.7
			z M392.5,74.6h-1.3v-7.1h1.3V74.6z M387.2,72.7c0-0.8-0.7-1.3-1.9-1.3h-1v2.3h1.4C386.5,73.8,387.2,73.5,387.2,72.7z M386.7,69.6
			c0-0.7-0.4-1.2-1.7-1.2h-0.6v2.2h0.8C386.4,70.6,386.7,70.2,386.7,69.6L386.7,69.6z M382.9,67.5h2.4c1.6,0,2.5,0.6,2.5,1.7
			c0,0.4-0.1,0.7-0.4,1c-0.2,0.3-0.5,0.5-0.9,0.7c0.4,0,0.9,0.2,1.2,0.5c0.3,0.3,0.5,0.7,0.5,1.2c0,1.3-1.2,2.1-3.3,2.1h-2.1V67.5
			L382.9,67.5z M372.7,69.2l-0.6,5.5H371l1-7.1h1.4l2.3,5.7l2.2-5.7h1.4l0.9,7.1h-1.3l-0.6-5.5l-2.1,5.3l-1.2,0.2L372.7,69.2z
			 M364.7,68.4c-1.2,0-2.1,0.7-2.1,2.6c0,1.9,1,3,2.5,3c1.2,0,2.1-0.7,2.1-2.6c0-1.9-0.9-3-2.4-3L364.7,68.4z M364.6,74.9
			c-0.5,0-0.9-0.1-1.4-0.2c-0.4-0.2-0.8-0.4-1.2-0.8c-0.3-0.3-0.6-0.7-0.7-1.2c-0.1-0.4-0.2-0.9-0.2-1.4c0-0.5,0.1-1,0.3-1.5
			c0.2-0.5,0.5-0.9,0.9-1.3c0.4-0.4,0.8-0.6,1.3-0.8c0.5-0.2,1-0.2,1.6-0.2c0.5,0,1,0.1,1.4,0.2c0.4,0.2,0.8,0.4,1.2,0.8
			c0.3,0.3,0.6,0.7,0.7,1.2c0.2,0.4,0.2,0.9,0.2,1.4c0,0.5-0.1,1-0.3,1.5c-0.2,0.5-0.5,0.9-0.9,1.2c-0.4,0.3-0.8,0.6-1.3,0.8
			c-0.5,0.2-1,0.2-1.5,0.2L364.6,74.9z M354.9,67.6h1.3v6.2h3.2l-0.1,1h-4.5V67.6z M348.2,68.4c-1.2,0-2.1,0.7-2.1,2.6
			c0,1.9,1,3,2.5,3c1.2,0,2.1-0.7,2.1-2.6c0-1.9-0.9-3-2.4-3L348.2,68.4z M348.2,74.9c-0.5,0-0.9-0.1-1.4-0.2
			c-0.4-0.2-0.8-0.4-1.2-0.8c-0.3-0.3-0.6-0.7-0.7-1.2c-0.1-0.4-0.2-0.9-0.1-1.4c0-0.5,0.1-1,0.3-1.5c0.2-0.5,0.5-0.9,0.9-1.3
			c0.4-0.4,0.8-0.6,1.3-0.8c0.5-0.2,1-0.2,1.6-0.2c0.5,0,1,0.1,1.4,0.2c0.4,0.2,0.8,0.4,1.2,0.8c0.3,0.3,0.6,0.7,0.7,1.2
			c0.2,0.4,0.2,0.9,0.2,1.4c0,0.5-0.1,1-0.3,1.5c-0.2,0.5-0.5,0.9-0.9,1.2c-0.4,0.3-0.8,0.6-1.3,0.8c-0.5,0.2-1,0.2-1.5,0.2
			L348.2,74.9z M342.9,74.3c-0.7,0.4-1.6,0.5-2.4,0.5c-0.5,0-1,0-1.5-0.2c-0.5-0.2-0.9-0.4-1.2-0.8c-0.3-0.3-0.6-0.8-0.8-1.2
			s-0.2-1-0.2-1.4c0-0.5,0.1-1,0.3-1.5c0.2-0.5,0.5-0.9,0.9-1.3c0.4-0.4,0.8-0.6,1.3-0.8c0.5-0.2,1-0.2,1.5-0.2
			c0.7,0,1.4,0.1,2.1,0.3l-0.3,1c-0.7-0.2-1.4-0.4-2.2-0.4c-1.1,0-2.2,0.6-2.2,2.7c0,0.4,0,0.8,0.1,1.1c0.1,0.4,0.3,0.7,0.6,1
			c0.3,0.3,0.6,0.5,0.9,0.6c0.3,0.1,0.7,0.2,1.1,0.2c0.6,0,1.2-0.1,1.7-0.4L342.9,74.3z"/>
		<path class="st2" d="M298.8,56.4c0,0.8,0,1.1,0,1.5c0,2,0.7,3.9,2.1,5.3c1,1.1,1.9,2.4,2.6,3.8c0.8-1.1,1.2-2.4,1.2-3.7
			c0-1.5-0.4-3.1-1.3-4.4c-0.8-1.3-2-2.4-3.5-3c2.3,2.4,3.6,5.6,3.6,8.9c-0.4-3.2-1.9-6.1-4.1-8.5c0.6,2.5,1.6,4.8,2.9,7
			C300.7,61.4,299.4,59,298.8,56.4z M299.2,49.4c0.2,0.8,0.7,1.6,1.4,2.1c0.7,0.6,1.5,0.9,2.3,1c0.5,0,1-0.1,1.5-0.3
			c0.5-0.3,0.8-0.6,1.1-1.1c-0.1,0.6-0.5,1.1-0.9,1.4c-0.5,0.4-1,0.6-1.6,0.6c-0.9,0-1.8-0.4-2.5-0.9c-0.7-0.5-1.3-1.3-1.6-2.2
			c0.3,2.5,1.6,4.5,4.2,4.5c0.5,0,0.9-0.1,1.4-0.2c0.4-0.2,0.8-0.4,1.2-0.8c0.3-0.3,0.6-0.7,0.7-1.2c0.2-0.4,0.3-0.9,0.2-1.4
			c0-1.7-1-2.9-2.2-2.9c-0.1,0-0.3,0-0.4,0.1c-0.1,0.1-0.2,0.2-0.3,0.3c0.2-0.1,0.3-0.2,0.6-0.2c0.1,0,0.3,0,0.4,0.1
			c0.1,0.1,0.2,0.1,0.3,0.2c0.1,0.1,0.1,0.2,0.2,0.3c0,0.1,0,0.2,0,0.4c0,0.9-0.8,1.7-2.1,1.7c-0.7,0-1.4-0.2-2-0.5
			C300.3,50.4,299.7,49.9,299.2,49.4z M302.9,50.5c0.3,0,1.2,0,1.4-0.7c0,0.1-0.2,0.2-0.5,0.2c-0.1,0-0.3,0-0.4-0.1
			c-0.1-0.1-0.2-0.1-0.3-0.2c-0.1-0.1-0.2-0.2-0.2-0.3c0-0.1-0.1-0.2-0.1-0.4c0-0.2,0-0.3,0.1-0.5c0.1-0.2,0.2-0.3,0.3-0.4
			c0.1-0.1,0.3-0.2,0.4-0.3c0.2-0.1,0.3-0.1,0.5-0.1c0.4,0,0.8,0.2,1.2,0.3c0.4,0.2,0.7,0.5,0.9,0.8c0.3,0.3,0.4,0.7,0.6,1.1
			c0.1,0.4,0.1,0.8,0.1,1.2c0,0.5-0.1,1.1-0.3,1.6c-0.2,0.5-0.5,1-0.9,1.3c-0.4,0.4-0.8,0.7-1.3,0.9c-0.5,0.2-1,0.3-1.6,0.3
			c-2.4,0-4.7-1.8-4.7-5.5c0-0.7,0.1-1.5,0.2-2.2c0.4,0.9,1,1.6,1.8,2.2C301,50.1,301.9,50.4,302.9,50.5z M302.8,57.3
			c0.8,0.8,1.5,1.7,1.9,2.8c0.4,1,0.6,2.2,0.6,3.3c0.1,0.9-0.1,1.8-0.4,2.6c-0.4,0.8-0.9,1.5-1.6,2c-0.6-1.6-1.5-3.1-2.7-4.3
			c-0.8-0.7-1.4-1.6-1.8-2.6c-0.4-1-0.6-2-0.6-3.1c0-1.3,0.3-2.7,0.7-3.9C299.6,55.3,301.3,55.8,302.8,57.3L302.8,57.3z M299.4,40.8
			c0.1-1.6,0.4-3.1,0.7-4.7c-1.2,1.6-1.8,3.4-2,5.4c0,1.2,0.3,2.5,0.8,3.6c0.5,1.1,1.3,2.1,2.3,2.9c0-2.6,1.4-5.1,1.4-7.7
			c0.1-1.6-0.4-3.2-1.4-4.4c0.2,1.2,0.3,2.4,0.3,3.6c-0.1,2.1-0.5,4.2-1.2,6.3c0.3-2.1,0.5-4.2,0.5-6.3c0-1.1-0.1-2.3-0.3-3.4
			c-0.4,1.5-0.6,3.1-0.7,4.7c-0.1,1.1-0.2,2.2-0.3,3.2C299.4,42.9,299.3,41.9,299.4,40.8z M303.1,40.4c0,2.6-1.4,5.1-1.4,7.6
			c0,0.4,0.1,0.8,0.2,1.2c-1.3-0.8-2.5-1.9-3.2-3.2c-0.8-1.3-1.2-2.8-1.2-4.4c0-3.6,2.3-5.1,2.3-6.8c0-0.1,0-0.3,0-0.4
			c1,0.6,1.9,1.5,2.5,2.5C302.9,38,303.1,39.1,303.1,40.4L303.1,40.4z M298,85.4h-0.3l-0.3-1.2l0.1,0.8v0.7h-0.3v-2.2h0.4l0.3,0.8
			v0.4v-0.5l0.2-0.9h0.4v1.9l-0.3,0.2v-0.7l0.1-0.8L298,85.4z M306.3,33.2c0-0.4-0.1-0.9-0.4-1.2c-0.3-0.3-0.7-0.6-1.2-0.6
			c-0.1,0-0.3,0-0.5,0c0.1,0,0.2,0,0.3,0c0.1,0,0.2,0.1,0.2,0.1c0.1,0.1,0.1,0.1,0.2,0.2c0,0.1,0.1,0.2,0,0.3c0,0.1,0,0.2,0,0.3
			c0,0.1-0.1,0.2-0.2,0.3c-0.1,0.1-0.2,0.1-0.3,0.2c-0.1,0-0.2,0.1-0.3,0.1c-1.1,0-1.1-1.4-3.4-1.7c0.9-0.3,1.6-0.8,2.2-1.6
			c0.5-0.7,0.8-1.6,0.8-2.6c-0.3-0.1-0.6-0.1-1-0.1c-0.7,0-1.4,0.2-2,0.5c-0.6,0.3-1.1,0.8-1.5,1.4c0.1-0.5,0.2-1,0.2-1.5
			c0-2.1-1-2.9-1-4.2c0-0.3,0-0.6,0.1-0.8c-0.1,0-0.3,0-0.4,0.1c-1.6,0.7-2.5,2.3-2.5,4.9c0,1.4,0.4,2.7,1.1,3.9
			c-0.4-3.2-0.3-5.7,0.8-7.4c-0.6,2.4-0.8,4.9-0.3,7.3c0.5-1.6,0.8-3.2,1.1-4.9c0.1,1.7-0.1,3.4-0.6,5.1c1.2-1.5,2.8-2.7,4.6-3.5
			c-1.6,1-3.1,2.3-4.2,3.8c1.2-0.6,2.4-1.3,3.5-2.1c-1,1-2.1,1.8-3.3,2.4c1,0,1.9,0.1,2.8,0.5c1.6,1.1,2.7,2,3.7,1.2
			c-0.9,1.2-2.3,0.2-3.9-0.7c-0.8-0.5-1.7-0.7-2.6-0.6c1.8,0.8,3.6,2.8,5.6,2.8c0.3,0.1,0.6,0,0.9,0c0.3-0.1,0.5-0.2,0.7-0.4
			c0.2-0.2,0.4-0.4,0.5-0.7C306.3,33.8,306.3,33.5,306.3,33.2L306.3,33.2z M296.1,83.7v1.6c0,0.3,0,0.3,0.2,0.3c0,0,0.1,0,0.1,0
			c0,0,0.1,0,0.1-0.1c0,0,0-0.1,0-0.1c0,0,0-0.1,0-0.1v-1.7h0.4v1.6c0,0.5-0.3,0.8-0.6,0.8c-0.1,0-0.2,0-0.3-0.1
			c-0.1,0-0.2-0.1-0.2-0.2c-0.1-0.1-0.1-0.2-0.1-0.2c0-0.1,0-0.2,0-0.3v-1.7L296.1,83.7z M297.2,32.4c-1.2-1.4-1.8-3.2-1.8-5.1
			c0-3.6,2.2-5.6,4.1-5.6c-0.1,0.4-0.2,0.8-0.2,1.2c0,1.7,1,2.2,1,4.4c0.8-0.6,1.7-0.9,2.6-0.9c0.5,0,1,0.1,1.5,0.2
			c0.1,0.9,0,1.8-0.5,2.6c-0.4,0.8-1,1.4-1.8,1.9c0.5,0.2,1,0.5,1.3,0.9c0-0.3,0.2-0.6,0.4-0.8c0.2-0.2,0.5-0.3,0.9-0.3
			c0.3,0,0.6,0.1,0.8,0.2c0.3,0.1,0.5,0.3,0.7,0.5c0.2,0.2,0.3,0.5,0.4,0.7c0.1,0.3,0.1,0.6,0.1,0.9c0,0.3-0.1,0.6-0.2,0.9
			c-0.1,0.3-0.3,0.6-0.6,0.8c-0.2,0.2-0.5,0.4-0.8,0.5c-0.3,0.1-0.6,0.1-1,0.1C301.4,35.6,299.4,32.4,297.2,32.4L297.2,32.4z
			 M295.1,84.2c0,0,0-0.1,0-0.1c0,0,0-0.1-0.1-0.1c0,0-0.1-0.1-0.1-0.1c0,0-0.1,0-0.1,0v0.8C294.8,84.6,295,84.4,295.1,84.2
			L295.1,84.2z M295.1,85.9l-0.3-0.7v-0.2h-0.2v0.7h-0.3v-2.6l0.4,0.1c0.2,0,0.4,0.1,0.5,0.3c0.1,0.2,0.2,0.3,0.1,0.5
			c0,0.1,0,0.2-0.1,0.3c0,0.1-0.1,0.2-0.2,0.2l0.4,1.1L295.1,85.9z M302.1,70.7c0-1.3-0.4-2.5-1-3.6c-0.6-1.1-1.5-2.1-2.5-2.8
			c1.6,2.3,2.4,5,2.3,7.8c-0.4-2.7-1.4-5.3-2.9-7.6c0.2,2.5-0.7,5.2-2.2,5.7c0.7-0.8,1.2-1.7,1.4-2.7c0.3-1,0.3-2.1,0-3.1
			c-0.6,3.4-1.7,5.2-3.4,5.9c0.5,0.5,1.2,0.7,1.9,0.7c1.6,0,2.9-1.1,2.9-4.2c0,3.8,1.5,4.9,1.5,6.4c0,1.2-0.8,1.7-1.7,1.5
			c1.3,0.7,3.7-0.7,3.7-4.2L302.1,70.7z M294.1,85.7l-0.9-0.3v-2.3l0.9,0.3v0.3l-0.5-0.2v0.6l0.4,0.1v0.3l-0.4-0.2v0.5l0.5,0.2V85.7
			z M298.2,79.8c-0.8,0.1-1.6,0.4-2.3,0.8c-0.4,0.3-0.9,0.5-1.3,0.6c-0.5,0.1-1,0.1-1.5,0c1.2,0.5,2.6,0.8,3.9,0.8
			c1.3,0,2.6-0.5,2.6-1.4C299.6,80.3,299.1,79.8,298.2,79.8z M292.8,69.8c3.3-0.8,3.4-4.5,4.3-7.5c4.1,2.8,5.6,5.3,5.6,8.2
			c0,3.4-1.7,4.8-3.5,4.8c-0.2,0-0.4,0-0.6-0.1c-0.2-0.1-0.4-0.2-0.5-0.3c-0.2-0.1-0.3-0.3-0.4-0.5c-0.1-0.2-0.1-0.4-0.2-0.6
			c0-0.3,0.1-0.5,0.3-0.7c0.2-0.2,0.4-0.3,0.7-0.3c0.2,0,0.4,0,0.6,0.2c0.2,0.1,0.3,0.3,0.4,0.5c0.1-0.2,0.1-0.3,0.1-0.6
			c0-0.7-0.8-1.9-1-3.2c-0.3,0.5-0.7,0.9-1.2,1.2c-0.5,0.3-1.1,0.4-1.6,0.4c-0.6,0.1-1.2,0-1.7-0.3
			C293.5,70.8,293.1,70.4,292.8,69.8L292.8,69.8z M292.8,79.9c0,0.1,0,0.2,0,0.4c0,0.1,0.1,0.2,0.2,0.3c0.1,0.1,0.2,0.2,0.3,0.2
			c0.1,0,0.2,0.1,0.4,0.1c0.9-0.1,1.8-0.5,2.6-1c-0.3-0.3-0.6-0.6-1-0.7c-0.4-0.2-0.8-0.3-1.2-0.3C293.3,78.8,292.7,79.2,292.8,79.9
			L292.8,79.9z M292.8,82.7l0.3,0.2l-0.3,2.2l-0.7-0.3l-0.3-2.4l0.4,0.2l0.2,1.4v0.6h0.1v-0.6L292.8,82.7z M290.8,83.1
			c0-0.1,0-0.1,0.1-0.2c0.1-0.1,0.1-0.1,0.2-0.1c0.1,0,0.1,0,0.2,0.1c0,0.1,0.1,0.1,0.1,0.2s0,0.1-0.1,0.2c-0.1,0.1-0.1,0.1-0.2,0.1
			c-0.1,0-0.1,0-0.2-0.1C290.8,83.2,290.8,83.2,290.8,83.1z M290.6,57.4c-0.2,0-0.3,0.2-0.7,0.2v1.7l0.9-1.3c0-0.1,0-0.1,0-0.2
			c0-0.1,0-0.1-0.1-0.2C290.8,57.5,290.7,57.4,290.6,57.4c0,0,0,0-0.1,0L290.6,57.4z M290.3,84l-1-0.3v-2.4l1,0.4V82l-0.6-0.2v0.6
			l0.5,0.2v0.3l-0.5-0.2v0.7l0.6,0.2V84z M289.4,57.8c-0.2,0-0.4,0-0.6,0v3l0.6-0.9V57.8z M288.6,81.8c0-0.1,0-0.2-0.1-0.3
			c-0.1-0.1-0.1-0.1-0.3-0.2v0.8C288.4,82.1,288.6,81.9,288.6,81.8L288.6,81.8z M288.7,83.4l-0.3-0.8v-0.2h-0.2v0.8L288,83v-2.4
			l0.3,0.2c0.5,0.2,0.7,0.5,0.7,0.8c0,0.1,0,0.2-0.1,0.3c0,0.1-0.1,0.2-0.2,0.2l0.5,1.4L288.7,83.4z M287.9,57.8v4.4l0.6-0.9v-3.6
			H287.9z M290.6,17.3c0-0.1,0-0.3,0-0.4c0-0.1,0.1-0.2,0.2-0.3c0.1-0.1,0.2-0.2,0.3-0.2c0.1-0.1,0.3-0.1,0.4-0.1
			c0.2,0,0.4,0.1,0.6,0.2s0.2,0.4,0.2,0.6c0,0.5-0.3,0.9-1.2,0.8c0.4,0.3,0.8,0.4,1.3,0.3c0.2,0,0.4,0,0.6-0.1
			c0.2-0.1,0.3-0.2,0.5-0.4c0.1-0.2,0.3-0.3,0.3-0.5c0.1-0.2,0.1-0.4,0.1-0.6c0-0.3-0.1-0.6-0.2-0.9c-0.1-0.3-0.3-0.5-0.5-0.7
			c-0.2-0.2-0.5-0.4-0.8-0.4c-0.3-0.1-0.6-0.1-0.9-0.1c-1.8,0-3.9,1.7-3.9,5.7c0,2.9,1,5.7,2.9,7.9c-1.3,0.3-1.9,1-1.9,1.9
			c0,0.5,0.1,0.9,0.4,1.3c0.3-0.5,0.7-0.9,1.2-1.1c0.5-0.3,1-0.5,1.6-0.5c-0.4-0.2-0.8-0.2-1.2-0.2c-0.4,0-0.8,0.2-1.1,0.4
			c0.2-0.4,0.6-0.8,1-0.9c0.4-0.2,0.9-0.2,1.4-0.1c-3.2-5.9-3.7-9.6-2.7-11.7c-0.3,2.1-0.3,5.3,3.3,11.3c0.3-4.8-1.7-5.7-2.3-9
			c0.9,3.2,3.2,4.1,2.9,9.1c0.6-0.9,1-2,0.9-3.1C294.1,22,290.6,19.8,290.6,17.3L290.6,17.3z M287.2,20.2c0-4.3,2.3-6.2,4.4-6.2
			c0.4,0,0.7,0,1.1,0.1c0.4,0.1,0.7,0.3,1,0.6c0.3,0.2,0.5,0.6,0.7,0.9c0.2,0.3,0.2,0.7,0.3,1.1c0,0.3,0,0.5-0.1,0.8
			c-0.1,0.3-0.2,0.5-0.4,0.7c-0.2,0.2-0.4,0.3-0.7,0.4c-0.3,0.1-0.5,0.2-0.8,0.1c-0.4,0-0.8-0.1-1.2-0.3c1.1,2.3,3.3,3.8,3.3,6.9
			c0,0.8-0.1,1.7-0.5,2.4c-0.3,0.8-0.8,1.5-1.5,2c-0.7,0.1-1.5,0.3-2.1,0.7c-0.6,0.4-1.1,1-1.4,1.7c-0.3-0.3-0.5-0.6-0.7-1
			c-0.2-0.4-0.3-0.8-0.3-1.2c0-0.5,0.2-1,0.5-1.4c0.3-0.4,0.7-0.6,1.2-0.7C288.1,25.7,287.1,23,287.2,20.2L287.2,20.2z M287.5,57.7
			c-0.3,0-0.4-0.2-0.7-0.2v6.2l0.7-0.9V57.7z M287,25.4c-0.1-0.1-0.3-0.2-0.3-0.3c-0.1-0.1-0.1-0.3-0.1-0.4c0-0.4,0.3-0.8,0.3-1.3
			c0.3,0.3,0.6,0.8,0.6,1.3c0,0.2,0,0.3-0.1,0.4C287.2,25.2,287.1,25.3,287,25.4L287,25.4z M286.3,81.5l0.3,0.2v-1.2l-0.1,0.4
			L286.3,81.5z M287,26.5c-0.2,0-0.3,0-0.4-0.1c-0.1-0.1-0.3-0.2-0.4-0.3c-0.1-0.1-0.2-0.3-0.2-0.4c0-0.2,0-0.3,0-0.5
			c0.2,0.2,1,0.3,0.9,1c0-0.7,0.7-0.6,1-0.9v0.3c0,0.2-0.1,0.5-0.3,0.6C287.4,26.4,287.2,26.5,287,26.5L287,26.5z M286.5,57.3
			l-0.7-0.4v8.3l0.7-0.9V57.3z M287.7,83l-1-0.5V82l-0.4-0.2l-0.2,0.5l-0.3-0.2l0.7-2.1l1.3,0.5V81l-0.6-0.2v0.6l0.5,0.2v0.3
			l-0.5-0.2v0.6l0.6,0.2V83z M285.7,26.6c0-0.1,0-0.2,0-0.3c0.3,0.4,1,0.4,1,1c0.2-0.6,1-0.3,1.3-0.6c0,0.1,0,0.3-0.1,0.4
			c0,0.1-0.1,0.3-0.2,0.4c-0.1,0.1-0.2,0.2-0.4,0.3c-0.1,0.1-0.3,0.1-0.4,0.1c-0.3,0-0.6-0.2-0.9-0.4
			C285.8,27.2,285.7,26.9,285.7,26.6z M286.1,38.9c0,0,0-0.1,0-0.1c0,0,0-0.1-0.1-0.1c0,0-0.1,0-0.1-0.1c0,0-0.1,0-0.1,0
			c0,0-0.1,0-0.1,0c0,0-0.1,0-0.1,0.1c0,0,0,0.1,0,0.1c0,0,0,0.1,0,0.1c0,0,0,0.1,0,0.1c0,0,0,0.1,0,0.1c0,0,0.1,0,0.1,0.1
			c0,0,0.1,0,0.1,0C285.9,39.2,286.1,39,286.1,38.9L286.1,38.9z M285.3,27.8c0-0.2,0-0.3,0-0.3c0.2,0.4,1.2,0.5,1.2,1.2
			c0.1-0.7,1.2-0.3,1.6-0.8c0,0.2,0,0.3-0.1,0.5c-0.1,0.2-0.1,0.3-0.3,0.4c-0.1,0.1-0.3,0.2-0.4,0.2c-0.2,0.1-0.3,0.1-0.5,0
			C285.9,29,285.2,28.5,285.3,27.8L285.3,27.8z M286.2,18.6v1c0,1.6-0.2,3.1-0.6,4.6c-0.2-0.1-0.4-0.3-0.5-0.5s-0.2-0.5-0.1-0.7
			c0-0.2,0-0.5,0-0.7c0.1-1,0.2-2.1,0.2-3.1c0-0.5,0-1.1,0-1.6C285.4,18.4,285.8,18.6,286.2,18.6L286.2,18.6z M287,43.7l0.6-0.2
			c2.2-0.5,3.5-1.3,3.5-3c0-0.3-0.1-0.6-0.2-0.9c-0.1-0.3-0.3-0.5-0.6-0.7c-0.2-0.2-0.5-0.4-0.8-0.5c-0.3-0.1-0.6-0.1-0.9-0.1
			c-0.4,0-0.8,0-1.1,0.2c-0.3,0.1-0.7,0.3-1,0.6c-0.2,0.2-0.3,0.3-0.6,0.4c-0.2,0.1-0.5,0.1-0.7,0.1c-0.3,0-0.5-0.2-0.5-0.3
			c0-0.6,1.7-2.1,3.8-2.1c0.4,0,0.9,0,1.3,0.1c0.4,0.1,0.8,0.4,1.1,0.6s0.6,0.6,0.8,1c0.2,0.4,0.3,0.8,0.3,1.3
			c0,2.2-1.8,3.3-4.4,3.9l-0.8,0.2L287,43.7L287,43.7z M285.8,79.8v1.7c0,0.1,0,0.2-0.1,0.2s-0.1,0.1-0.1,0.2
			c-0.1,0-0.1,0.1-0.2,0.1c-0.1,0-0.2,0-0.2,0c-0.3-0.1-0.6-0.3-0.6-0.9v-1.7l0.3,0.2v1.6c0,0.3,0.1,0.4,0.3,0.5
			c0.2,0.1,0.2,0,0.2-0.2v-1.7L285.8,79.8z M284.6,28.9c0-0.3,0.1-0.5,0.2-0.7c0,0.4,1.1,0.6,1.1,1.3v0.3c0.1-0.3,0.5-0.3,0.8-0.3
			c0.7,0,1,0,1,0c0,0.3-0.2,0.5-0.4,0.7c-0.2,0.2-0.5,0.3-0.8,0.3C285.7,30.4,284.6,29.8,284.6,28.9L284.6,28.9z M286.5,47.3v0.4
			c1,0.2,1.7,0.4,1.7,0.8h-3.9c0-0.3,0.6-0.6,1.6-0.8v-0.4L286.5,47.3z M284.2,60.6c0,2.3,1.1,3.3,1.3,4.5v-8.5l-0.5-0.5
			C285,57.8,284.2,58.3,284.2,60.6L284.2,60.6z M284.4,75.4c0.4,0,2.6,0.1,2.9,0.1c1.7,0,3.4-0.3,5-0.8c-2.5,1.2-5.2,1.7-8,1.3
			c1.2,0.6,2.5,0.9,3.8,0.9c2.9,0,5.1-2.2,6.7-2.2c1,0,1.5,0.3,1.6,1.2c0-0.1,0-0.3,0-0.4c0-2.3-2.6-3.4-4.5-3.4
			c-2.4,0-5.8,1.9-8.2,2.6c2.8,0,6-1.4,8.5-1.4c0.7,0,1.4,0.1,2.1,0.3C291.4,73.3,288.8,75.2,284.4,75.4L284.4,75.4z M283.8,31.4
			v1.2h0.2v-0.9l0.3,0.9h0.4v-1.2h-0.2v0.9l-0.3-0.9L283.8,31.4z M284.7,18.3c0,1.1,0,2.1-0.2,3.2c-0.7,0-0.7-0.7-0.7-1.2v-1.5
			c0-0.5,0-1,0-1.5C283.9,18.1,284.3,18.3,284.7,18.3L284.7,18.3z M285.8,46.7c-1.7-0.3-2-0.7-2-1.2c0-0.4,0.3-0.9,1.6-1.3v0.8
			c-0.4,0.1-0.6,0.2-0.6,0.4c0,0.2,0.2,0.3,1.1,0.5l0.7,0.2c1.9,0.4,2.4,1.1,2.7,1.4c0,0.1,0.1,0.3,0.1,0.4c0,0.2,0,0.5-0.2,0.5
			c-0.4,0,0-1-2.6-1.6L285.8,46.7z M283.2,80.2c0,0.4,0,0.8,0.3,0.8s0.3-0.3,0.3-0.8c0-0.5,0-0.8-0.3-0.8
			C283.2,79.4,283.2,79.8,283.2,80.2L283.2,80.2z M285.2,54.9c0.3,0.6,0.8,1.2,1.4,1.5c0.6,0.4,1.3,0.5,2,0.5c0.8,0,1.5-0.3,2-0.3
			c0.3,0,0.5,0.1,0.7,0.3c0.2,0.2,0.3,0.4,0.3,0.7c0,0.3-0.1,0.5-0.2,0.7l-5.6,8.7h-1.3l-0.3-0.7c0.1-0.1,0.2-0.1,0.2-0.2
			c0-0.1,0.1-0.2,0.1-0.3c0-1.3-1.5-2.3-1.5-4.9c0-2.3,0.9-3.2,0.9-4c0-0.4-0.1-0.7-0.3-1l0.5-0.8L285.2,54.9L285.2,54.9z
			 M283.7,81.5c-0.6,0-0.8-0.5-0.8-1.3c0-0.8,0.2-1.2,0.7-1.2s0.7,0.5,0.7,1.3c0,0.4,0,0.7-0.3,0.8h0.2h0.3v0.4L283.7,81.5z
			 M282.8,32.4l0.7,0.2v-0.2h-0.3V32h0.3v-0.2h-0.3v-0.3l0.3,0.1v-0.2l-0.7-0.2L282.8,32.4L282.8,32.4z M285.5,24.9
			c-0.5,1.8-1.4,3.6-2.5,5.1c-0.1,0-0.1-0.1-0.2-0.1c0-0.1-0.1-0.1-0.1-0.2c0.2-0.6,0.4-1.2,0.7-1.8c0.6-1.4,1-2.9,1.3-4.4
			C284.8,24.3,285,24.7,285.5,24.9L285.5,24.9z M285.8,45.7v-2.6c-1.9-0.4-3.4-0.9-3.4-2.2h7.5c0,1.3-1.4,1.7-3.4,2.2v2.8
			L285.8,45.7z M283.2,18.3c0,0.3,0,0.6,0,0.9c0,0.7-0.1,1.5-0.2,2.2c-0.6-0.2-0.7-0.7-0.7-1.3c0-0.5,0-1,0-1.5c0-0.5-0.1-1-0.2-1.5
			C282.5,18,282.9,18.3,283.2,18.3L283.2,18.3z M282.3,31.6c0,0.3-0.1,0.3-0.2,0.3v-0.8C282.3,31.1,282.3,31.2,282.3,31.6
			L282.3,31.6z M295.8,77.1c-0.1,0-0.3,0-0.4,0c-0.1,0-0.2-0.1-0.3-0.2c-0.1-0.1-0.2-0.2-0.2-0.3c-0.1-0.1-0.1-0.2-0.1-0.3
			c0-0.2,0.1-0.4,0.2-0.5c0.1-0.2,0.3-0.3,0.5-0.3c-1.4-0.4-3.7,2.2-7.2,2.2c-2.3-0.1-4.6-1-6.3-2.6c4.6-1.4,7.3-3.2,10.2-3.2
			s5,1.8,5,3.8c0,0.2,0,0.4-0.1,0.5c-0.1,0.2-0.2,0.3-0.3,0.4c-0.1,0.1-0.3,0.2-0.4,0.3C296.1,77,296,77.1,295.8,77.1L295.8,77.1z
			 M283.6,16.6c-0.1-1.1-0.5-2.2-1.3-3.1c-0.3-0.3-0.5-0.3-0.5-0.5c0-0.2,0.2-0.2,0.3-0.2c0.5,0,1.2,0.7,1.8,1.7
			c0.4,1,0.7,2.1,0.8,3.3C284.1,17.8,283.7,17.4,283.6,16.6L283.6,16.6z M282.1,32.2c0.1,0,0.1,0,0.2,0c0.1,0,0.1,0,0.2-0.1
			c0.1,0,0.1-0.1,0.1-0.2c0-0.1,0-0.1,0-0.2c0-0.2,0-0.3-0.1-0.5c-0.1-0.1-0.2-0.2-0.4-0.3l-0.4-0.2V32L282.1,32.2z M281.6,79.8
			c0,0,0-0.1,0-0.1c0,0,0-0.1,0.1-0.1c0,0,0.1,0,0.1-0.1c0,0,0.1,0,0.1,0c0,0,0.1,0,0.1,0c0,0,0.1,0,0.1,0.1c0,0,0,0.1,0.1,0.1
			c0,0,0,0.1,0,0.1c0,0,0,0.1,0,0.1c0,0,0,0.1-0.1,0.1c0,0-0.1,0-0.1,0.1c0,0-0.1,0-0.1,0C281.7,80,281.6,80,281.6,79.8z
			 M284.4,22.1c-0.3,2.4-1.2,4.8-2.5,6.9c-0.1,0-0.2-0.1-0.3-0.2c-0.1-0.1-0.1-0.2-0.1-0.3c0.1-0.5,0.2-1,0.4-1.5
			c0.8-2,1.4-4.1,1.6-6.2C283.7,21.7,284,22,284.4,22.1L284.4,22.1z M282.2,16.6c-0.1-0.9-0.4-1.7-0.8-2.5c0-0.2-0.2-0.2-0.2-0.3
			c0-0.1,0.2-0.2,0.2-0.2c0.1,0,0.2,0.1,0.3,0.2c0.1,0.1,0.2,0.2,0.2,0.3c0.7,1.1,1.1,2.4,1.2,3.8C282.6,17.7,282.4,17.4,282.2,16.6
			L282.2,16.6z M281.2,31.1c0,0.2,0,0.2-0.2,0.2v-0.5C281.2,30.7,281.2,30.9,281.2,31.1L281.2,31.1z M281.9,17.8V19
			c0,0.5,0,1.2,0,1.8c-0.3,0-0.5-0.2-0.6-0.4c-0.2-0.2-0.2-0.4-0.2-0.7c0-0.3,0-0.9,0-1.6c0-0.5,0-1,0-1.4
			C281.1,17.3,281.4,17.7,281.9,17.8L281.9,17.8z M281.2,15.1c0.2,0,0.3,0.3,0.6,2c-0.7,0-0.8-0.7-0.8-1.3
			C281,15.2,281.1,15.1,281.2,15.1L281.2,15.1z M281.6,32.1l-0.3-0.7c0.1,0,0.1-0.1,0.2-0.1c0-0.1,0.1-0.1,0.1-0.2
			c0-0.2-0.2-0.3-0.5-0.4l-0.3-0.1v1.2l0.3,0.1v-0.4l0.2,0.6L281.6,32.1z M283.1,21.9c-0.4,2.1-1.1,4.2-2.3,6
			c-0.1-0.1-0.1-0.1-0.2-0.2c0-0.1-0.1-0.2,0-0.3c0-0.5,0.1-0.9,0.3-1.3c0.7-1.8,1.2-3.6,1.4-5.5C282.4,21.5,282.7,21.8,283.1,21.9
			L283.1,21.9z M280.2,54c-0.1,0-0.2-0.1-0.3-0.2c-0.1-0.1-0.1-0.2-0.1-0.3c0-0.4,0.5-0.8,1-1.2V50h0.1c0.2,2.5,0.2,2.8,0.2,3.1
			C281.2,53.7,280.7,54.1,280.2,54L280.2,54z M280.1,31.4c-0.2,0-0.2-0.3-0.2-0.4c0-0.2,0-0.5,0.2-0.5c0.2,0.1,0.2,0.2,0.2,0.5
			C280.2,31.3,280.2,31.3,280.1,31.4L280.1,31.4z M279.8,79.6h0.3V79v-0.4L280,79L279.8,79.6z M279.8,17.6c0-0.5,0.2-0.7,0.5-0.7
			c0.2,0,0.3,0.2,0.3,1.3c0,0.9,0,1.7-0.2,2.6c-0.3,0-0.7-0.4-0.7-1.1C279.7,18.9,279.7,18.2,279.8,17.6L279.8,17.6z M280.1,31.5
			c0.1,0,0.1,0,0.2,0c0.1,0,0.1,0,0.2-0.1c0,0,0.1-0.1,0.1-0.2c0-0.1,0-0.1,0-0.2c0-0.3-0.1-0.7-0.5-0.7c-0.4-0.1-0.5,0.2-0.5,0.5
			S279.7,31.4,280.1,31.5L280.1,31.5z M281.8,21.4c-0.3,2-1,4-2.1,5.8c-0.2,0-0.2-0.3-0.2-0.5c0.1-0.5,0.2-1,0.3-1.4
			c0.5-1.7,0.9-3.4,1.1-5.1C281,21.1,281.4,21.3,281.8,21.4L281.8,21.4z M280.4,21.1c-0.1,0.8-0.3,1.6-0.5,2.3
			c-0.3,0-0.5-0.4-0.5-0.9c0-0.5,0.3-1.7,0.3-2.4C279.6,20.8,280.1,21.1,280.4,21.1L280.4,21.1z M281.1,80.7l-1-0.2V80h-0.4
			l-0.2,0.5h-0.4l0.7-2.1c0.3,0,0.8,0.2,1.2,0.3V79l-0.6-0.2v0.6h0.5v0.3l-0.5-0.1v0.7l0.6,0.1V80.7z M279.4,54.7
			c-0.1-0.1-0.2-0.2-0.3-0.3c-0.1-0.1-0.1-0.2-0.1-0.4c0-0.1,0-0.3,0-0.4c0-0.1,0.1-0.2,0.2-0.3l0.9-2h0.1l-0.7,2
			c0,0.3,0.3,0.8,0,1.2c0.5-0.3,1,0.2,1.5,0.2c-0.1,0.1-0.2,0.2-0.4,0.3c-0.1,0.1-0.3,0.1-0.5,0.1s-0.3,0-0.5-0.1
			C279.6,54.9,279.4,54.8,279.4,54.7L279.4,54.7z M278.7,78h0.3v2.3h-0.3V78z M279.9,29.9c1,0,3.2,1.2,5.3,1.2
			c0.9,0.1,1.8-0.1,2.5-0.7c-0.2,2.2-1.1,2.7-2.7,2.7c-2.2,0-5.3-1.6-6.4-1.6C278.6,30.4,278.9,29.9,279.9,29.9L279.9,29.9z
			 M278.5,55.5c-0.1-0.1-0.2-0.2-0.3-0.4c-0.1-0.2-0.1-0.3-0.1-0.5c0-0.2,0-0.3,0.1-0.5c0.1-0.2,0.2-0.3,0.3-0.4
			c0,0.5,0.7,1.1,0.3,1.5c0.4-0.4,1,0.3,1.4,0.3C279.7,56,279.1,56.2,278.5,55.5L278.5,55.5z M278.1,32.6c-0.2,0-0.4,0-0.7-0.7
			c0.2,0.2,0.2,0,0.6,0.3c-0.2-0.2-0.4-0.4-0.5-0.6c0.5,0.3,0.8,0.6,0.8,0.8c0,0,0,0.1,0,0.1C278.2,32.6,278.2,32.6,278.1,32.6
			C278.2,32.6,278.1,32.6,278.1,32.6C278.1,32.6,278,32.6,278.1,32.6L278.1,32.6z M279.4,29.4l-0.3-0.4l-0.7-0.8l-0.6,0.2l-0.3,0.3
			h-0.2l0.2-0.6l0.9-0.6l-0.3-1.5c0,0,0.2,0,0.3,0s0.2,0,0.3,0l0.2,1.5l1.5,0.6l0.2,0.4h-0.2l-0.2-0.2l-0.7-0.2l0.6,0.5v0.5H280
			l-0.2-0.3l-0.8-0.6l0.4,0.7V29.4L279.4,29.4L279.4,29.4z M278.6,24.8v0.5c0,0.3,0,0.5-0.2,0.5c-0.2,0-0.4-0.3-0.5-0.8
			c0,0.2-0.1,0.4-0.2,0.5c-0.1,0.1-0.3,0.3-0.4,0.3c0-0.9,0-1.4,0.3-1.7c0,0.1,0.1,0.2,0.3,0.3c0.1,0.1,0.3,0.1,0.4,0.1
			c0.1,0,0.1,0,0.2,0c0.1,0,0.1-0.1,0.2-0.1c0,0,0.1-0.1,0.1-0.2c0-0.1,0-0.1,0-0.2c0.4,0.3,0.6,0.8,0.7,1.2c-0.2,0-0.4,0-0.6-0.1
			C278.8,25.1,278.6,24.9,278.6,24.8L278.6,24.8z M278.5,23.2v0.4c0,0.3,0,0.5-0.3,0.5c-0.3,0-0.3-0.2-0.5-0.7
			c0,0.3-0.2,0.7-0.6,0.7v-0.4c0-1.1,0.2-1.3,1-1.3s0.8,0.3,1.2,1.3c-0.2,0-0.4,0-0.6-0.1C278.6,23.5,278.4,23.3,278.5,23.2
			L278.5,23.2z M277,75.2c3.8-1.9,8.8-2.8,12.5-4.9c3.9-2.2,7.2-6.8,7.4-16.5c-1.7-0.2-2.5-0.9-2.6-2h-11.8c0.1,0.4,0.1,0.8,0.1,1.2
			c0,2.8-0.8,4.7-5.7,6.3L277,75.2L277,75.2z M277.5,33.4c-0.2,0-0.6-0.2-0.6-1.2c0.2,0.2,0.4,0.5,0.5,0.7c-0.1-0.3-0.3-0.7-0.3-1
			c0.5,0.5,0.7,0.8,0.7,1.2c0,0,0,0.1,0,0.1c0,0,0,0.1-0.1,0.1C277.6,33.3,277.6,33.4,277.5,33.4C277.5,33.4,277.5,33.4,277.5,33.4
			L277.5,33.4z M297.7,34.3c-0.4,0.1-0.9,0.1-1.3-0.1c-0.4-0.1-0.8-0.3-1.1-0.7c-0.3-0.3-0.5-0.7-0.6-1.1c-0.1-0.4-0.2-0.8-0.1-1.2
			l-0.9-0.4c-2.3,2.3-5.3,3.6-8.5,3.7c-2,0-4-0.5-5.8-1.3l-2.4,3.4v8.8c1.2,0.8,2.5,1.2,3.9,1.2c0.3,0,0.6,0,1,0l0.8,1.1
			c-0.3,0.7-0.4,1.4-0.3,2.1c0,0.5,0,1,0.2,1.5h11.9c0-1.2,1-1.8,2.5-2c0-1.8-0.8-5.2-0.8-7.5c0.1-2.4,0.9-4.7,2.3-6.6L297.7,34.3z
			 M277.4,79l-0.2-0.7v1V80h-0.3v-2.3h0.4l0.3,0.9v0.6v-0.6l0.3-0.8h0.4v2.3H278v-0.7v-1l-0.2,0.6l-0.2,0.6h-0.3V79z M276.5,10.5
			c0.2,0,0.3,0,0.3-0.2c0-0.2-0.1-0.2-0.3-0.2c-0.2,0-0.3,0-0.3,0.2C276.2,10.5,276.3,10.5,276.5,10.5z M276.3,30.4v0.4h0.3v-0.4
			l0.3-0.7h-0.2l-0.2,0.6l-0.2-0.6h-0.3L276.3,30.4z M276.5,49.1c-0.1,0-0.3-0.1-0.4-0.2c-0.1-0.1-0.2-0.2-0.2-0.4
			c0.1-0.4,0.2-0.7,0.4-1.1v-1.3h0.2v1.3c0.2,0.3,0.3,0.7,0.4,1.1c0,0.1,0,0.3-0.1,0.4C276.8,49,276.7,49.1,276.5,49.1L276.5,49.1z
			 M276.5,34.5c-0.3,0-0.5-0.1-0.5-0.6c0-0.5,0.1-0.9,0.3-1.3c0.1,0.3,0.2,0.7,0.2,1c0-0.3,0.1-0.7,0.2-1c0.2,0.4,0.3,0.9,0.3,1.3
			C277,34.4,276.8,34.6,276.5,34.5L276.5,34.5z M275.7,80v-2.3h0.8v0.3H276v0.6h0.4v0.3H276v0.7h0.5v0.3L275.7,80z M277.6,85.8
			c0-0.4-0.1-0.7-0.3-1.1c-0.2-0.3-0.4-0.6-0.7-0.9c-0.3,0.2-0.6,0.5-0.7,0.9c-0.2,0.3-0.3,0.7-0.3,1.1c0,0.2,0,0.3,0,0.4
			c0,0.1,0.1,0.3,0.2,0.4c0.1,0.1,0.2,0.2,0.4,0.3c0.1,0.1,0.3,0.1,0.4,0.1c0.3,0,0.5-0.2,0.7-0.4C277.5,86.4,277.6,86.2,277.6,85.8
			L277.6,85.8z M275.3,33c0-0.3,0.2-0.6,0.7-1.2c-0.1,0.3-0.2,0.7-0.3,1c0.2-0.3,0.3-0.5,0.5-0.7c0,1-0.4,1.2-0.6,1.2
			C275.4,33.2,275.2,33.2,275.3,33L275.3,33z M277.7,31.3c-0.4-0.1-0.8-0.1-1.2-0.2c-0.4,0-0.8,0.1-1.2,0.2c-0.2-0.5-0.3-1-0.3-1.5
			c0-0.6,0.4-0.8,1.5-0.8c1,0,1.6,0.2,1.6,0.8c0,0.6-0.1,1.1-0.4,1.6L277.7,31.3z M274.8,32.3c0-0.3,0.3-0.6,0.8-0.8
			c-0.1,0.2-0.3,0.4-0.5,0.6l0.6-0.3c-0.3,0.6-0.6,0.7-0.7,0.7c0,0-0.1,0-0.2,0c0,0-0.1,0-0.1-0.1L274.8,32.3z M276.6,50
			c-0.3,0-0.6-0.1-0.8-0.3c-0.2-0.2-0.4-0.4-0.5-0.7l-0.6-1.7h0.1l0.6,1.4c0.5,0.2,1.2,0.4,1.2,0.9c0-0.5,0.7-0.7,1.1-0.9l0.7-1.4
			h0.1l-0.5,1.7c-0.1,0.3-0.3,0.6-0.5,0.8c-0.3,0.2-0.6,0.3-0.9,0.3L276.6,50z M275.1,78.8c0-0.6-0.2-0.8-0.5-0.8v1.8
			c0.2,0,0.4-0.4,0.4-0.8L275.1,78.8z M277.2,12.6c0,0.2,0,0.5,0.1,0.7c0,0.3-0.5,0.5-0.8,0.5c-0.4,0-0.7-0.2-0.7-0.4
			c0.1-0.4,0.2-0.8,0.3-1.2c0-0.1,0-0.2,0-0.3c0.2,0.1,0.3,0.2,0.5,0.2c0.1,0,0.4,0,0.5-0.2c-0.1,0.1-0.3,0.1-0.4,0.1
			c-0.1,0-0.3,0-0.4-0.1c-0.1-0.1-0.2-0.2-0.3-0.3c-0.1-0.1-0.1-0.2-0.1-0.4c-0.3,0.2-0.7,0-0.7-0.2c-0.2,0-0.3,0.1-0.4,0.2
			c-0.2-0.6,0-0.7,0.8-0.8c-0.1-0.1-0.2-0.2-0.2-0.3c0-0.3,0.4-0.5,1.3-0.5c0.4,0,0.7,0.2,0.5,0.3c-0.1,0.2,0,0.2,0,0.2
			c0.2,0.1,0.4,0.2,0.5,0.4c0.1,0.2,0.2,0.4,0.1,0.6C277.6,11.6,277.2,11.7,277.2,12.6z M276.4,20.8c0.3,0,0.7-0.5,0.7-1.1
			c0.2,0.6,0.3,0.8,0.6,0.8c0.3,0,0.5-0.5,0.5-1.2c0.3,0.5,0.5,1.1,0.6,1.7c0,0.5-0.2,0.6-0.3,0.6c-0.1,0-0.5-0.3-0.6-0.9
			c0,0.8-0.2,1.2-0.5,1.2c-0.3,0-0.3-0.3-0.5-0.8c0,0.7-0.2,1.1-0.5,1.1s-0.4-0.4-0.4-1.1c-0.1,0.5-0.3,0.8-0.5,0.8
			c-0.2,0-0.5-0.3-0.5-1.2c0,0.6-0.3,0.9-0.6,0.9c-0.2,0-0.3-0.2-0.3-0.6c0-0.6,0.2-1.2,0.5-1.7c0,0.7,0.2,1.2,0.5,1.2
			c0.3,0,0.4-0.3,0.5-0.8C275.8,20.3,276.2,20.8,276.4,20.8L276.4,20.8z M274.1,78h0.3c0.6,0,0.9,0.2,0.9,1.1c0,0.1,0,0.3,0,0.4
			c0,0.1-0.1,0.3-0.2,0.4c-0.1,0.1-0.2,0.2-0.3,0.3c-0.1,0.1-0.3,0.1-0.4,0.1h-0.3V78z M276.5,51.3c-0.3,0-0.6-0.1-0.9-0.2
			c-0.3-0.2-0.5-0.4-0.6-0.7l-1-1.7h0.2l1,1.5c0.5,0.2,1.3,0.5,1.4,0.8c0.2-0.5,0.9-0.7,1.4-0.8l0.9-1.5h0.2l-0.9,1.7
			c-0.1,0.3-0.3,0.5-0.6,0.7C277.1,51.2,276.8,51.3,276.5,51.3L276.5,51.3z M276.5,18.7c0.4,0,0.7-0.5,0.7-1
			c0.2,0.5,0.4,0.8,0.6,0.8s0.5-0.5,0.5-1.1c0,0.5,0.3,0.9,0.7,0.9c0,0.8-0.2,1.2-0.5,1.2c-0.3,0-0.3-0.3-0.4-0.9
			c0,0.6-0.3,1.2-0.5,1.2c-0.3,0-0.3-0.2-0.5-0.8c0,0.7-0.3,1.2-0.7,1.2c-0.3,0-0.6-0.5-0.6-1.2c-0.2,0.7-0.3,0.8-0.5,0.8
			c-0.2,0-0.5-0.6-0.5-1.2c-0.2,0.6-0.2,0.9-0.4,0.9c-0.2,0-0.5-0.4-0.5-1.2c0.3,0,0.7-0.4,0.7-0.9c0,0.6,0.3,1.1,0.5,1.1
			c0.3,0,0.5-0.2,0.7-0.8C275.8,18.3,276.1,18.7,276.5,18.7L276.5,18.7z M275,22.3c0.8,0,1,0.3,1,1.3v0.4c-0.3,0-0.5-0.3-0.7-0.7
			c0,0.5-0.3,0.7-0.4,0.7s-0.3-0.2-0.3-0.5v-0.4c-0.1,0.2-0.2,0.3-0.3,0.4c-0.1,0.1-0.3,0.1-0.5,0.1C274.1,22.6,274.4,22.3,275,22.3
			L275,22.3z M276.5,52.4c-0.4,0-0.7-0.1-1-0.3c-0.3-0.2-0.5-0.5-0.6-0.9l-1.3-1.8h0.2l1.4,1.8c0.5,0.2,1.2,0.4,1.3,0.8
			c0.2-0.3,0.8-0.6,1.3-0.8l1.4-1.8h0.2l-1.3,1.9c-0.2,0.3-0.4,0.6-0.7,0.8C277.2,52.3,276.9,52.4,276.5,52.4L276.5,52.4z M274.4,24
			c0,0.1,0,0.1,0,0.2c0,0.1,0,0.1,0.1,0.2c0,0.1,0.1,0.1,0.1,0.1c0.1,0,0.1,0,0.2,0.1c0.2,0,0.4-0.2,0.6-0.5
			c0.3,0.5,0.5,1.1,0.4,1.7c-0.2,0-0.3-0.2-0.5-0.3c-0.1-0.1-0.2-0.3-0.2-0.5c0,0.6-0.3,0.8-0.5,0.8c-0.2,0-0.2-0.2-0.2-0.5v-0.5
			c0,0.3-0.5,0.7-0.8,0.5C273.8,24.6,274.1,24.1,274.4,24L274.4,24z M274.8,57.6l1.4-1.1l-0.6-0.4c-0.1,0.1-0.2,0.2-0.3,0.3
			c-0.1,0.1-0.3,0.1-0.4,0.1c-0.1,0-0.3,0-0.4,0c-0.1,0-0.3-0.1-0.4-0.2c0.4-0.2,0.8-0.9,1.3-0.5c-0.4-0.5,0.2-1.1,0-1.6
			c0.1,0.1,0.2,0.2,0.3,0.3c0.1,0.1,0.1,0.3,0.2,0.4c0,0.1,0,0.3,0,0.4c0,0.1-0.1,0.3-0.2,0.4l0.6,0.4v-2.3c-0.4,0-0.7-0.1-1-0.4
			c-0.3-0.2-0.5-0.6-0.6-0.9l-1.5-2.2h0.2l1.7,2.1c0.5,0.2,1.6,0.4,1.6,0.9c0-0.5,0.9-0.7,1.6-0.9l1.6-2.1h0.2l-1.5,2.2
			c-0.1,0.4-0.3,0.7-0.6,0.9c-0.3,0.2-0.7,0.4-1.1,0.4v2.3l0.5-0.4c-0.1-0.1-0.2-0.3-0.2-0.4c0-0.1,0-0.3,0-0.4
			c0-0.1,0.1-0.3,0.2-0.4c0.1-0.1,0.2-0.2,0.3-0.3c0,0.5,0.5,1.1,0,1.6c0.5-0.5,0.8,0.3,1.3,0.5c-0.6,0.4-1.1,0.3-1.6-0.2l-0.6,0.4
			l1.5,1.1l-0.4,0.2l-1.2-0.8v1.3h-0.2h-0.2v-1.3l-1.2,0.8L274.8,57.6z M273.4,79.5l-0.2-1.1v1.1L273.4,79.5z M273.4,30.8
			c0,0.3,0,0.4-0.2,0.4v-0.8C273.2,30.4,273.3,30.4,273.4,30.8L273.4,30.8z M274.7,55.4c-0.7,0.8-1.3,0.6-1.7,0c0.4,0,1-0.7,1.4-0.3
			c-0.4-0.3,0.3-1,0.3-1.4C275.2,54.2,275.2,54.7,274.7,55.4L274.7,55.4z M273.1,31.4c0.4-0.2,0.5-0.3,0.5-0.7c0-0.1,0-0.1,0-0.2
			c0-0.1-0.1-0.1-0.1-0.2c-0.1,0-0.1-0.1-0.2-0.1c-0.1,0-0.1,0-0.2,0h-0.3v1.2L273.1,31.4z M272.7,21.1c0.3,0,0.7-0.3,0.7-1
			c0,0.7,0.3,1.9,0.3,2.5c0,0.5-0.2,0.9-0.5,0.9C273,22.8,272.8,21.8,272.7,21.1L272.7,21.1z M272.6,80.5l0.3-2.3l0.7-0.2l0.4,2.2
			h-0.4v-0.5l-0.4,0.1v0.5L272.6,80.5z M273.6,29.4v-0.5l0.4-0.7l-0.8,0.6l-0.2,0.3h-0.2v-0.5l0.6-0.5l-0.7,0.2l-0.2,0.2h-0.2
			l0.3-0.4l1.5-0.6l0.2-1.6c0,0,0.2,0,0.3,0c0.1,0,0.3,0,0.3,0l-0.3,1.6l0.9,0.6l0.2,0.6h-0.1l-0.3-0.3l-0.7-0.2l-0.6,0.8
			L273.6,29.4l-0.1-0.1L273.6,29.4z M273.4,17.5c0,0.9,0,1.6,0,2.1c0,0.4-0.3,1.1-0.7,1.1c-0.2-0.8-0.2-1.7-0.2-2.6
			c0-1.1,0.2-1.3,0.3-1.3C273,16.8,273.3,17,273.4,17.5L273.4,17.5z M272.3,30.7l0.1,0.5h-0.2L272.3,30.7z M273.7,54.7
			c-0.1,0.1-0.3,0.2-0.4,0.3c-0.2,0.1-0.3,0.1-0.5,0c-0.2,0-0.3-0.1-0.5-0.2c-0.1-0.1-0.3-0.2-0.3-0.4c0.5,0,1-0.5,1.5,0
			c-0.3-0.3,0-0.8,0-1.2l-0.7-2.1h0.1l1,2.1c0.1,0.1,0.1,0.2,0.2,0.4c0,0.1,0,0.3,0,0.4s-0.1,0.3-0.2,0.4
			C273.8,54.5,273.7,54.6,273.7,54.7L273.7,54.7z M272.9,53.9c-0.4,0.2-1-0.2-1-0.8c0-0.3,0-0.6,0.2-3.2h0v2.4c0.5,0.2,1,0.6,1,1.2
			C273.1,53.7,273,53.8,272.9,53.9L272.9,53.9z M272.1,30.5l-0.2,1.3l0.3-0.1v-0.2l0.3-0.1v0.2l0.3-0.1l-0.3-1.1L272.1,30.5z
			 M274.2,82.5c0.8,0,1.6,0.3,2.3,0.7c0.7-0.5,1.5-0.7,2.3-0.7c1.7,0,2.8,0.8,2.8,2c0,0.2,0,0.4-0.1,0.6c-0.1,0.2-0.2,0.4-0.3,0.5
			c-0.1,0.1-0.3,0.2-0.5,0.3c-0.2,0.1-0.4,0.1-0.6,0.1c-0.6,0-1.1-0.3-1.1-0.8c0-0.1,0-0.2,0-0.2c0-0.1,0.1-0.2,0.1-0.2
			c0.1-0.1,0.1-0.1,0.2-0.1c0.1,0,0.2-0.1,0.2-0.1c0.1,0,0.2,0,0.3,0.1c0.1,0.1,0.2,0.1,0.2,0.2c0.1,0.1,0.1,0.2,0.1,0.3
			c0,0.1,0,0.2-0.1,0.3c0.1,0,0.3,0,0.4-0.1c0.1-0.1,0.2-0.1,0.3-0.2c0.1-0.1,0.2-0.2,0.2-0.3c0-0.1,0.1-0.3,0.1-0.4
			c0-0.9-0.8-1.4-2-1.4c-0.7,0-1.4,0.2-2.1,0.5c0.7,0.6,1.1,1.4,1.2,2.3c0,0.2,0,0.5-0.1,0.7s-0.2,0.4-0.3,0.6
			c-0.2,0.2-0.3,0.3-0.5,0.4c-0.2,0.1-0.4,0.1-0.7,0.1c-0.2,0-0.5,0-0.7-0.1c-0.2-0.1-0.4-0.2-0.5-0.4c-0.2-0.2-0.3-0.4-0.3-0.6
			c-0.1-0.2-0.1-0.4-0.1-0.7c0.1-0.9,0.5-1.7,1.2-2.3c-0.6-0.4-1.3-0.6-2-0.5c-1.3,0-2.1,0.5-2.1,1.4c0,0.1,0,0.3,0.1,0.4
			c0,0.1,0.1,0.2,0.2,0.3c0.1,0.1,0.2,0.2,0.3,0.2c0.1,0.1,0.3,0.1,0.4,0.1c-0.1-0.1-0.1-0.2-0.1-0.3c0-0.1,0-0.2,0.1-0.3
			c0.1-0.1,0.1-0.2,0.2-0.3c0.1-0.1,0.2-0.1,0.3-0.1c0.4,0,0.6,0.3,0.6,0.7s-0.5,0.8-1.1,0.8c-0.2,0-0.4,0-0.6-0.1
			c-0.2-0.1-0.4-0.2-0.5-0.3c-0.1-0.1-0.3-0.3-0.3-0.5c-0.1-0.2-0.1-0.4-0.1-0.6C271.3,83.4,272.4,82.5,274.2,82.5L274.2,82.5z
			 M272.5,80.6c-0.5,0.2-1.1,0-1.1-1.1c0-0.8,0.4-1.3,1-1.2v0.3c-0.5,0-0.6,0.3-0.6,0.8c0,0.6,0.3,0.8,0.7,0.7V80.6z M271.4,21.4
			c0.3,0,0.8-0.3,0.8-1.1c0.2,1.7,0.6,3.4,1.1,5.1c0.2,0.5,0.3,1,0.3,1.5c0,0.1,0,0.2-0.1,0.2s-0.1,0.1-0.2,0.2
			c-1-1.8-1.7-3.8-2.1-5.9H271.4z M271.9,15.1c0.2,0,0.3,0.2,0.3,0.7c0,0.5-0.2,1.3-0.8,1.3c0-1.8,0.2-2.1,0.4-2.1H271.9z
			 M271.2,17.7c0.4,0,0.8-0.3,0.9-1c0,0.6,0,1,0,1.4c0,0.4,0,1.2,0,1.6c0,0.2,0,0.5-0.2,0.7c-0.2,0.2-0.4,0.3-0.6,0.4
			c0-0.7,0-1.3,0-1.8v-1.2H271.2z M272.3,47.1c-0.2,0-0.4,0-0.6,0l-0.4,0.6c0.2,0.6,0.3,1.3,0.3,2c0,1-0.3,2.3-0.3,3.2
			c0,2.6,0.7,4.3,5.4,5.9c4.8-1.6,5.4-3.3,5.4-5.9c0-0.8-0.3-2.2-0.3-3.2c0-0.7,0.1-1.3,0.3-2l-0.4-0.6c-0.2,0-0.4,0-0.6,0
			c-1.3-0.8-2.8-1.2-4.3-1.2C275.1,45.9,273.6,46.3,272.3,47.1z M271.1,31.1l0.2-0.1v1l0.3-0.1v-1h0.2v-0.3l-0.8,0.3L271.1,31.1
			L271.1,31.1z M270.7,31.4c0,0.2,0,0.2-0.2,0.2v-0.4c0-0.1,0,0.1,0,0.2H270.7z M270.4,80.2h0.3v-0.7v-0.4v0.4L270.4,80.2z
			 M271.1,32l-0.3-0.4c0,0,0.1-0.1,0.1-0.1c0,0,0-0.1,0-0.2c0-0.1,0-0.1,0-0.2c0,0-0.1-0.1-0.1-0.1c0,0-0.1-0.1-0.1-0.1
			c-0.1,0-0.1,0-0.2,0l-0.4,0.1v1.3l0.3-0.1v-0.4l0.2,0.4L271.1,32z M269.8,21.9c0.4,0,0.7-0.4,0.8-1.3c0.3,1.9,0.7,3.7,1.4,5.5
			c0.2,0.4,0.3,0.9,0.3,1.3c0,0.1,0,0.2,0,0.3c0,0.1-0.1,0.2-0.2,0.2C271,26,270.3,24,269.8,21.9L269.8,21.9z M269.8,81.2l0.4-2.4
			l0.6-0.2l0.3,2.2l-0.3,0.1v-0.5l-0.4,0.1V81L269.8,81.2z M270.8,16.5c-0.2,0.8-0.3,1.2-0.9,1.2c0-1.3,0.4-2.7,1.2-3.8
			c0.2-0.2,0.3-0.4,0.6-0.4c0.1,0,0.1,0,0.2,0.1c0,0,0.1,0.1,0.1,0.2c0,0.1,0,0.1,0,0.2c0,0.1-0.1,0.1-0.1,0.1
			C271.1,14.8,270.9,15.6,270.8,16.5L270.8,16.5z M269.8,18.2c0.3,0,0.7-0.2,0.9-1.2c0,0.7-0.2,1.2-0.2,1.5c0,0.3,0,1.2,0,1.5
			s0,1.1-0.7,1.3c-0.2-0.7-0.2-1.5-0.2-2.2C269.7,18.8,269.7,18.6,269.8,18.2L269.8,18.2z M271,44.7l-1.5-5.1v5.1H271z M269.2,32.4
			l0.7-0.2V32h-0.3v-0.3h0.3v-0.2h-0.3v-0.3h0.3l-0.7,0.2L269.2,32.4L269.2,32.4z M268.7,80.4c0,0,0-0.1,0-0.1c0,0,0-0.1,0.1-0.1
			c0,0,0.1,0,0.1-0.1c0,0,0.1,0,0.1,0c0,0,0.1,0,0.1,0c0,0,0.1,0,0.1,0.1c0,0,0,0.1,0.1,0.1c0,0,0,0.1,0,0.1c0,0,0,0.1,0,0.1
			c0,0,0,0.1-0.1,0.1c0,0,0,0-0.1,0.1c0,0-0.1,0-0.1,0c0,0-0.1,0-0.1,0c0,0-0.1,0-0.1-0.1c0,0,0-0.1-0.1-0.1
			C268.7,80.5,268.7,80.4,268.7,80.4z M268.8,32.3c0,0.2,0,0.2-0.2,0.2v-0.4C268.7,32.1,268.8,32.1,268.8,32.3L268.8,32.3z
			 M268.8,31.8C268.8,31.8,268.8,31.8,268.8,31.8c0,0.1,0,0.1,0,0.1c0,0,0,0-0.1,0c0,0,0,0-0.1,0v-0.3
			C268.7,31.6,268.8,31.6,268.8,31.8L268.8,31.8z M268.7,22c0.4,0,0.8-0.3,0.8-1.2c0.2,2.1,0.8,4.2,1.7,6.2c0.2,0.5,0.3,1,0.3,1.5
			c0,0.1,0,0.2-0.1,0.3c0,0.1-0.1,0.1-0.2,0.2C269.9,26.8,269.1,24.5,268.7,22z M268.4,18.3c0.3,0,0.7-0.2,0.9-1.1
			c0,0.5,0,1.1,0,1.5v1.4c0,0.5,0,1.1-0.7,1.2C268.5,20.4,268.4,19.4,268.4,18.3L268.4,18.3z M269.5,16.6c-0.1,0.8-0.5,1.2-1.1,1.2
			c0.1-1.1,0.3-2.2,0.8-3.3c0.5-1.1,1.3-1.7,1.7-1.7c0.2,0,0.3,0,0.3,0.2c0,0.2-0.2,0.2-0.5,0.5C270,14.4,269.5,15.4,269.5,16.6
			L269.5,16.6z M268.3,31.5v1.2h0.4c0.3,0,0.4-0.2,0.4-0.4c0-0.2-0.2-0.2-0.3-0.2c0.1,0,0.1,0,0.2-0.1c0,0,0.1-0.1,0.1-0.2
			c0-0.2-0.2-0.3-0.4-0.3L268.3,31.5z M267.8,32.6h0.3v-1.2h-0.3V32.6z M267.7,24.8c0.3-0.2,0.7-0.5,0.7-1.5c0.3,1.5,0.8,3,1.3,4.4
			c0.3,0.9,0.7,1.5,0.7,1.8c0,0.3,0,0.3-0.2,0.3C269,28.4,268.1,26.6,267.7,24.8L267.7,24.8z M267.7,44.8h1.5v-5.1L267.7,44.8z
			 M267.2,81.7c0.3,0,0.6,0,0.6-0.2c0-0.2-0.6-0.5-0.6-1.2c0-0.1,0-0.2,0.1-0.3c0-0.1,0.1-0.2,0.2-0.2c0.1-0.1,0.2-0.1,0.3-0.1
			c0.1,0,0.2,0,0.3,0v0.4c-0.3,0-0.5,0-0.5,0.3c0,0.3,0.7,0.4,0.7,1.1c0,0.1,0,0.2-0.1,0.3c0,0.1-0.1,0.2-0.2,0.2
			c-0.1,0.1-0.2,0.1-0.3,0.1c-0.1,0-0.2,0-0.3,0V81.7z M282,11.6c1.7,0,4,1.7,4.3,6.4c-0.7,0-0.8-0.5-0.9-1.3c-0.4-3-2-4.4-3.1-4.4
			c-2.2,0-0.4,3.5-2.7,4c0,0.6-0.2,1.3-0.4,1.3c-0.3,0-0.5-0.6-0.7-1.2c0,0.8-0.2,1.4-0.5,1.4c-0.3,0-0.4-0.6-0.6-1.2
			c0,0.7-0.3,1.4-0.7,1.4c-0.4,0-0.6-0.7-0.6-1.4c-0.2,0.6-0.3,1.2-0.6,1.2c-0.2,0-0.5-0.6-0.5-1.4c-0.2,0.5-0.3,1.2-0.6,1.2
			s-0.4-0.7-0.4-1.3c-2.3-0.5-0.5-4-2.7-4c-1.2,0-2.7,1.4-3.2,4.4c0,0.8-0.3,1.3-1,1.3c0.3-4.7,2.5-6.4,4.3-6.4
			c2.6,0,1.3,3.3,2.5,3.3c0.5,0,0.9-0.6,1.3-1.3c0,0.1,0,0.3,0,0.4c0,0.6,0.6,0.9,1.5,0.9c0.9,0,1.6-0.3,1.6-0.9c0-0.1,0-0.3,0-0.4
			c0.4,0.7,0.8,1.3,1.3,1.3c0.9,0-0.4-3.3,2.3-3.3H282z M266.9,31.4v1.1c0.2,0.1,0.4,0.1,0.6,0.2v-0.3h-0.3v-0.9L266.9,31.4z
			 M266.9,18.6c0.3,0,0.8-0.2,1-1.1c0,0.5,0,1.1,0,1.6c0,1,0.1,2.1,0.2,3.1c0,0.2,0,0.5,0,0.7c0,0.8-0.3,1.2-0.7,1.3
			c-0.4-1.5-0.6-3.1-0.7-4.6c0-0.3,0-0.8,0-1H266.9z M266.2,81.8l0.3-0.2l-0.2-0.6v-0.5v0.6L266.2,81.8z M265.7,82.9l0.3-2.5
			l0.5-0.2l0.5,2.1l-0.3,0.2V82l-0.4,0.2v0.5L265.7,82.9z M266.2,25.4c-0.2-0.1-0.3-0.2-0.4-0.3c-0.1-0.1-0.1-0.3-0.1-0.5
			c0-0.5,0.3-0.9,0.6-1.3c0,0.6,0.3,0.9,0.3,1.3c0,0.2,0,0.3-0.1,0.4C266.4,25.2,266.2,25.3,266.2,25.4L266.2,25.4z M273.3,29.8
			c0.8,0,1.2,0.5,1.3,1.7c-1,0-4.2,1.7-6.4,1.7c-1.6,0-2.6-0.6-2.7-2.7c0.7,0.5,1.6,0.7,2.5,0.7c1.9-0.1,4.2-1.3,5.2-1.3H273.3z
			 M268.5,28.9c0,0.4-0.3,0.8-0.6,1.1c-0.3,0.3-0.8,0.4-1.2,0.4c-0.3,0-0.6-0.1-0.8-0.3c-0.2-0.2-0.4-0.4-0.4-0.7
			c0.1,0.1,0.3,0,1.1,0c0.3,0,0.7,0,0.8,0.3v-0.2c0-0.7,1-0.9,1.1-1.3c0.1,0.2,0.1,0.5,0,0.7H268.5z M266.2,26.5
			c-0.2,0-0.5-0.1-0.7-0.2c-0.2-0.2-0.3-0.4-0.3-0.6c0-0.1,0-0.2,0-0.3c0.3,0.3,1,0.2,1,0.9c0-0.7,0.8-0.8,0.9-1c0,0.1,0,0.3,0,0.5
			c0,0.1-0.1,0.3-0.2,0.4c-0.1,0.1-0.2,0.2-0.4,0.3C266.4,26.5,266.2,26.5,266.2,26.5L266.2,26.5z M267.9,27.8
			c0,0.8-0.7,1.2-1.7,1.2c-1,0-1.1-0.3-1.2-1.2c0.4,0.4,1.5,0.2,1.6,0.8c0-0.7,1-0.8,1.2-1.2C267.8,27.4,267.8,27.6,267.9,27.8
			L267.9,27.8z M267.4,26.6c0,0.2,0,0.3-0.1,0.5c-0.1,0.1-0.2,0.3-0.3,0.4c-0.1,0.1-0.3,0.2-0.4,0.2c-0.1,0.1-0.3,0.1-0.5,0.1
			c-0.7,0-1.1-0.4-1.2-1.2c0.3,0.3,1.2,0,1.3,0.6c0-0.6,0.8-0.6,1.1-1c0,0.1,0,0.1,0.1,0.2C267.4,26.5,267.4,26.5,267.4,26.6
			L267.4,26.6z M264.7,80.8l0.3-0.2v2l0.4-0.2v0.4l-0.8,0.3V80.8z M263.6,81.3V83c0,0.2,0,0.2,0.2,0.2c0.1,0,0.3-0.2,0.3-0.4v-1.7
			l0.4-0.2v1.7c0,0.7-0.4,1.1-0.8,1.1c-0.1,0-0.1,0-0.2,0c0,0-0.1-0.1-0.1-0.1c0,0-0.1-0.1-0.1-0.2c0-0.1,0-0.1,0-0.2v-1.7
			L263.6,81.3z M263,39.6v5.1h1.5L263,39.6z M262.5,83.2v-0.5v-0.6l-0.2,1.2L262.5,83.2z M270.4,64.6c-0.3,0.2-0.7,0.3-1.1,0.3
			c-1.1,0-1.7-0.6-1.7-2s0-1.7,0.2-4.2h-2.2c0.1,1.2,0,2.4-0.2,3.6c-0.1,1.1-0.7,2.1-1.6,2.8l-0.8-0.9c0.4-0.2,0.7-0.5,0.9-0.9
			c0.2-0.4,0.4-0.8,0.4-1.2c0.2-1.2,0.2-2.3,0.2-3.5c-1.2,0-1.7,0.6-1.7,1.6l-1.1-0.3c0.2-1.8,1.2-2.3,2.8-2.3h5.8v1h-1.6
			c-0.1,2.6-0.1,2.9-0.1,3.9c0,1,0.4,1.3,1.1,1.3c0.3,0,0.5,0,0.8-0.2L270.4,64.6z M261.6,84.6l0.3-2.4l0.6-0.3l0.3,2.2l-0.3,0.2
			v-0.5l-0.4,0.2v0.6L261.6,84.6z M262.5,44.8v-5.1l-1.5,5.1H262.5z M260.5,83.8c0,0,0-0.1,0-0.1c0,0,0-0.1,0.1-0.1
			c0,0,0.1,0,0.1-0.1c0,0,0.1,0,0.1,0c0,0,0.1,0,0.1,0c0,0,0.1,0,0.1,0.1c0,0,0,0.1,0.1,0.1c0,0,0,0.1,0,0.1c0,0,0,0.1,0,0.1
			c0,0,0,0.1-0.1,0.1c0,0-0.1,0-0.1,0.1c0,0-0.1,0-0.1,0c0,0-0.1,0-0.1,0c0,0-0.1,0-0.1-0.1C260.5,83.9,260.5,83.9,260.5,83.8
			C260.5,83.8,260.5,83.8,260.5,83.8L260.5,83.8z M266,39.5c-0.2,0-0.4-0.1-0.5-0.2c-0.1-0.1-0.3-0.3-0.3-0.4c-0.7,0-1.4,0.1-2,0.3
			l1.8,5.8h0.5c0,0.7-0.8,1.3-2.7,1.3c-1.9,0-2.6-0.7-2.6-1.3h0.4l1.7-5.5l-0.3,0.1l-0.3-0.7c1.1-0.3,2.3-0.5,3.4-0.6
			c0.1-0.2,0.2-0.3,0.3-0.4c0.1-0.1,0.3-0.2,0.5-0.2c0.2,0,0.3,0.1,0.5,0.2c0.1,0.1,0.3,0.2,0.3,0.4c1.2,0.1,2.3,0.3,3.4,0.6
			l-0.2,0.7l-0.3-0.1l1.7,5.5h0.4c0,0.7-0.8,1.3-2.6,1.3s-2.7-0.7-2.7-1.3h0.5l1.8-5.8c-0.7-0.2-1.4-0.3-2.1-0.3
			c-0.1,0.1-0.2,0.3-0.3,0.4C266.3,39.3,266.1,39.4,266,39.5L266,39.5z M259.6,83.8c0,0,0-0.1,0-0.1c0,0,0-0.1-0.1-0.1
			c0,0-0.1,0-0.1-0.1c0,0-0.1,0-0.1,0v0.7c0.1,0,0.2-0.1,0.3-0.2C259.6,83.9,259.6,83.8,259.6,83.8L259.6,83.8z M258.9,85.6v-2.4
			h0.3c0.5-0.2,0.8,0.1,0.8,0.4c0,0.1,0,0.3-0.1,0.4c0,0.1-0.1,0.2-0.2,0.3l0.6,0.8l-0.4,0.2l-0.3-0.5v-0.3h-0.2v0.9L258.9,85.6z
			 M259.9,28.5c-0.3-5,2-5.9,2.9-9.1c-0.6,3.4-2.6,4.3-2.3,9c3.6-6,3.6-9.2,3.3-11.3c0.9,2.1,0.5,5.8-2.7,11.7
			c0.5-0.1,1-0.1,1.4,0.1c0.5,0.2,0.8,0.5,1,0.9c-0.3-0.3-0.7-0.4-1.1-0.5c-0.4,0-0.8,0-1.2,0.2c0.6,0.1,1.1,0.3,1.5,0.5
			c0.5,0.3,0.9,0.7,1.2,1.1c0.3-0.4,0.4-0.8,0.4-1.3c0-0.9-0.7-1.7-1.9-1.9c1.9-2.2,2.9-5,3-7.9c0-4-2.1-5.7-3.9-5.7
			c-0.3,0-0.6,0-0.9,0.1c-0.3,0.1-0.6,0.2-0.8,0.4c-0.2,0.2-0.4,0.5-0.5,0.7c-0.1,0.3-0.2,0.6-0.2,0.9c0,0.2,0,0.4,0.1,0.6
			c0.1,0.2,0.2,0.4,0.3,0.5c0.1,0.2,0.3,0.3,0.5,0.4c0.2,0.1,0.4,0.1,0.6,0.1c0.4,0.1,0.9-0.1,1.3-0.3c-0.8,0-1.2-0.4-1.2-0.8
			c0-0.1,0-0.2,0-0.3c0-0.1,0.1-0.2,0.2-0.3c0.1-0.1,0.2-0.1,0.3-0.2c0.1,0,0.2-0.1,0.3,0c0.1,0,0.3,0,0.4,0.1
			c0.1,0.1,0.2,0.1,0.3,0.2c0.1,0.1,0.2,0.2,0.2,0.3c0,0.1,0.1,0.3,0,0.4c0,2.5-3.5,4.7-3.5,8C258.9,26.4,259.3,27.5,259.9,28.5
			L259.9,28.5z M264.8,30.1c0,0.8-0.4,1.6-1,2.2c-0.3-0.7-0.8-1.3-1.4-1.7c-0.6-0.4-1.3-0.7-2-0.8c-0.6-0.6-1.1-1.2-1.5-2
			c-0.3-0.8-0.5-1.6-0.5-2.4c0-3.1,2.2-4.5,3.3-6.9c-0.3,0.2-0.8,0.3-1.2,0.3c-0.3,0-0.5,0-0.8-0.1c-0.3-0.1-0.5-0.3-0.7-0.4
			c-0.2-0.2-0.3-0.4-0.4-0.7c-0.1-0.3-0.2-0.5-0.2-0.8c0-0.4,0.1-0.7,0.3-1.1c0.2-0.3,0.4-0.6,0.7-0.9s0.6-0.4,1-0.6
			c0.4-0.1,0.7-0.2,1.1-0.1c2.1,0,4.5,1.8,4.5,6.2c0,2.8-0.9,5.5-2.7,7.7c0.5,0.1,0.9,0.4,1.1,0.7C264.6,29.1,264.8,29.6,264.8,30.1
			L264.8,30.1z M257.8,83.6c0.3,0,0.7-0.2,1-0.2v0.3h-0.5v0.6l0.4-0.2v0.3h-0.4v0.7c0.2-0.1,0.3-0.1,0.5-0.2v0.3l-1,0.2V83.6z
			 M259,78.9c-0.4,0-0.8,0.1-1.2,0.3c-0.4,0.2-0.7,0.4-0.9,0.8c0.8,0.5,1.6,0.9,2.6,1c0.1,0,0.2,0,0.4,0c0.1,0,0.2-0.1,0.3-0.2
			c0.1-0.1,0.1-0.2,0.2-0.3c0-0.1,0-0.2,0-0.4C260.3,79.2,259.7,78.8,259,78.9L259,78.9z M256.8,84.1h-0.3v-0.3
			c0.4,0,0.8-0.1,1.2-0.2V84h-0.4v1.9h-0.4V84.1z M260.7,73.5c2.4,0,5.6,1.4,8.4,1.4c-2.4-0.7-5.8-2.6-8.2-2.6
			c-1.8,0-4.5,1.1-4.5,3.4c0,0.1,0,0.3,0,0.4c0-0.8,0.7-1.2,1.6-1.2c1.6,0,3.8,2.2,6.7,2.2c1.3,0,2.6-0.3,3.8-0.9
			c-2.7,0.3-5.5-0.1-8-1.3c1.6,0.6,3.3,0.8,5,0.8c0.4,0,2.6,0,3-0.1c-4.3-0.3-6.9-2.2-10.1-1.7C259.1,73.6,259.9,73.5,260.7,73.5
			L260.7,73.5z M270.5,53c0-0.4,0-0.8,0.1-1.2h-11.8c0,1.1-0.7,1.8-2.5,2c0.2,9.8,3.5,14.3,7.4,16.5c3.9,2.2,8.5,2.9,12.4,4.9V59.3
			C271.3,57.7,270.5,55.7,270.5,53L270.5,53z M260.9,71.9c2.9,0,5.6,1.8,10.2,3.2c-1.7,1.6-3.9,2.5-6.3,2.6c-3.6,0-5.8-2.6-7.2-2.2
			c0.1,0,0.2,0,0.3,0.1c0.1,0,0.2,0.1,0.2,0.2c0.1,0.1,0.1,0.2,0.1,0.3c0,0.1,0,0.2,0,0.3c0,0.6-0.4,0.8-1.1,0.8
			c-0.2,0-0.4,0-0.5-0.1c-0.2-0.1-0.3-0.2-0.4-0.3c-0.1-0.1-0.2-0.3-0.3-0.5c-0.1-0.2-0.1-0.4-0.1-0.5
			C255.9,73.6,258,71.8,260.9,71.9L260.9,71.9z M256.3,86H256l-0.3-0.9l-0.2-0.6l0.2,0.8v0.7h-0.3v-2.1h0.3l0.3,0.8l0.2,0.6
			l-0.2-0.8v-0.6h0.3V86z M258.8,51.2h11.9c0.1-0.5,0.1-1,0.2-1.6c0-0.7-0.1-1.4-0.3-2.1l0.8-1.1c0.3,0,0.6,0,0.9,0
			c1.4,0,2.8-0.4,3.9-1.2v-8.8l-2.4-3.4c-1.8,0.9-3.8,1.3-5.8,1.3c-3.2-0.1-6.3-1.4-8.5-3.7l-0.9,0.4c0.1,0.4,0,0.8-0.1,1.2
			c-0.1,0.4-0.3,0.8-0.6,1.1c-0.3,0.3-0.7,0.5-1.1,0.7c-0.4,0.1-0.9,0.2-1.3,0.1l-0.4,0.8c1.4,1.9,2.2,4.2,2.3,6.6
			c0,2.3-0.8,5.6-0.8,7.5C257.8,49.3,258.7,50,258.8,51.2L258.8,51.2z M254.5,83.6l0.5,0.1v2.1c-0.2,0-0.3-0.1-0.5-0.2V83.6z
			 M296.4,41.9c0,3,1,4.8,1,7.9c-1.9,0-2.5,0.5-2.5,1.7c0,1.2,0.8,1.7,2.6,1.7c-0.3,10.8-3.4,15-7.7,17.5c-3.8,2.1-8.5,2.8-13.2,5.3
			c-4.7-2.5-9.4-3.2-13.2-5.3c-4.3-2.5-7.4-6.8-7.7-17.5c1.8,0,2.6-0.6,2.6-1.7c0-1.1-0.6-1.7-2.5-1.7c0-3,0.9-4.9,0.9-7.9
			c0-2.4-0.9-4.7-2.3-6.7l0.8-1.5c0.4,0.1,0.8,0.1,1.2,0.1c0.4-0.1,0.8-0.3,1.1-0.6c0.3-0.3,0.5-0.7,0.5-1c0.1-0.4,0-0.8-0.1-1.2
			l1.6-0.8c2.2,2.3,5.3,3.7,8.5,3.8c2.1,0,4.2-0.5,6-1.6l2.6,3.6l2.6-3.6c1.8,1,3.9,1.6,6,1.6c3.2-0.1,6.3-1.5,8.5-3.8l1.6,0.8
			c-0.1,0.4-0.2,0.8-0.1,1.2c0.1,0.4,0.3,0.8,0.5,1c0.3,0.3,0.7,0.5,1.1,0.6c0.4,0.1,0.8,0.1,1.2-0.1l0.8,1.5
			C297.3,37.1,296.5,39.4,296.4,41.9L296.4,41.9z M253.4,80.9c0,0.9,1.3,1.4,2.6,1.4c1.3,0,2.6-0.3,3.9-0.8c-0.5,0.1-1,0.1-1.5,0
			c-0.5-0.1-1-0.3-1.3-0.6c-0.7-0.4-1.5-0.7-2.3-0.8c-0.9-0.1-1.4,0.4-1.4,0.8L253.4,80.9z M263.6,80.5c-2.3,1.3-4.9,2-7.5,2.3
			c-0.5,0.1-1,0-1.5-0.1c-0.5-0.2-0.9-0.4-1.3-0.8v2.8c0,1.4,1.1,2.3,3.2,2.3s4.3-0.9,7.7-2.4c4.5-2.1,8-3.4,12.3-3.4
			c4.3,0,7.7,1.4,12.3,3.4c2.4,1.3,5,2.1,7.7,2.4c2.1,0,3.2-0.9,3.2-2.3v-2.8c-0.4,0.3-0.8,0.6-1.3,0.7c-0.5,0.2-1,0.2-1.5,0.1
			c-2.6-0.3-5.2-1.1-7.5-2.3c-4.1-2-8.4-3.2-12.9-3.6c-3.8-0.2-9.4,1.8-13.1,3.5L263.6,80.5z M264.5,85.1c-3.4,1.5-5.7,2.5-7.9,2.5
			c-2.5,0-3.8-1.2-3.8-2.9v-3.4c0-1.2,0.8-1.9,2.2-1.9c0.5,0,1,0.1,1.4,0.3c0.3-0.4,0.7-0.7,1.2-0.9c0.4-0.2,0.9-0.3,1.4-0.4
			c1.2,0,1.9,0.6,1.9,1.6c0,0.3,0,0.5-0.2,0.8c-0.1,0.2-0.3,0.4-0.6,0.5c1.2-0.5,2-0.9,3.3-1.4c3.4-1.6,9.1-3.7,13.2-3.7
			s9.7,2.2,13.2,3.7c1.3,0.5,2.1,0.9,3.3,1.4c-0.2-0.1-0.4-0.3-0.6-0.6c-0.1-0.2-0.2-0.5-0.2-0.8c0-1,0.8-1.6,1.9-1.6
			c0.5,0,1,0.1,1.4,0.4c0.5,0.2,0.9,0.5,1.2,0.9c0.5-0.2,1-0.3,1.4-0.3c1.4,0,2.2,0.7,2.2,1.9v3.4c0,1.8-1.3,2.9-3.8,2.9
			c-2.2,0-4.5-1-7.9-2.5c-4.3-1.9-7.8-3.4-12.1-3.4s-8,1.4-12.3,3.3L264.5,85.1z M255.2,64.4c-1.5,2.3-2.5,4.9-2.9,7.6
			c-0.1-2.8,0.7-5.5,2.3-7.8c-1.1,0.7-1.9,1.7-2.5,2.8c-0.6,1.1-1,2.3-1,3.6c0,3.5,2.4,5,3.8,4.1c-1,0.3-1.7-0.3-1.7-1.5
			c0-1.4,1.4-2.6,1.4-6.5c0,3.2,1.3,4.3,2.9,4.3c0.7,0,1.4-0.3,1.9-0.7c-1.7-0.7-2.8-2.6-3.4-5.9c-0.2,1-0.2,2.1,0,3.1
			c0.3,1,0.8,1.9,1.5,2.7c-1.7-0.5-2.6-3.3-2.4-5.8L255.2,64.4z M253.3,40.8c-0.1-1.6-0.4-3.1-0.7-4.7c-0.2,1.1-0.3,2.3-0.3,3.4
			c0.1,2.1,0.3,4.2,0.5,6.3c-0.7-2-1-4.1-1.2-6.3c0-1.2,0.1-2.4,0.3-3.6c-1,1.3-1.5,2.8-1.4,4.4c0,2.6,1.5,5.1,1.4,7.7
			c1-0.8,1.7-1.8,2.3-2.9c0.5-1.1,0.8-2.3,0.8-3.6c-0.1-1.9-0.8-3.8-2-5.4c0.4,1.5,0.6,3.1,0.7,4.7c0,1.1,0,2.1-0.2,3.2
			C253.4,42.9,253.3,41.8,253.3,40.8z M260.3,69.9c-0.3,0.5-0.7,0.9-1.2,1.2c-0.5,0.3-1.1,0.4-1.6,0.4c-0.6,0-1.1-0.1-1.6-0.4
			c-0.5-0.3-0.9-0.7-1.2-1.2c-0.2,1.2-1,2.4-1,3.2c0,0.1,0,0.2,0,0.3c0,0.1,0.1,0.2,0.2,0.3c0.1-0.2,0.2-0.4,0.3-0.5
			c0.2-0.1,0.4-0.2,0.6-0.1c0.3,0,0.5,0.1,0.7,0.3c0.2,0.2,0.3,0.4,0.3,0.7c0,0.2-0.1,0.4-0.2,0.6c-0.1,0.2-0.2,0.4-0.4,0.5
			c-0.2,0.1-0.3,0.2-0.5,0.3c-0.2,0.1-0.4,0.1-0.6,0.1c-1.7,0-3.5-1.5-3.5-4.8c0-2.8,1.5-5.3,5.5-8.2C256.9,65.4,257,69,260.3,69.9
			L260.3,69.9z M253.3,34.8c0,1.7,2.3,3.1,2.3,6.8c0,1.5-0.4,3-1.2,4.4c-0.8,1.3-1.9,2.4-3.2,3.2c0.2-0.4,0.2-0.8,0.2-1.2
			c0-2.5-1.4-5.1-1.4-7.6c-0.1-1.2,0.2-2.4,0.8-3.5c0.6-1.1,1.5-1.9,2.6-2.5L253.3,34.8z M253.6,56.3c-2.2,2.3-3.6,5.3-4.1,8.5
			c0-3.3,1.3-6.5,3.6-8.9c-1.4,0.7-2.6,1.7-3.4,3c-0.8,1.3-1.3,2.8-1.3,4.4c0,1.3,0.4,2.7,1.2,3.7c0.7-1.4,1.5-2.6,2.5-3.8
			c1.4-1.4,2.2-3.3,2.2-5.3c0-0.4,0-0.7,0-1.5c-0.6,2.6-1.8,5-3.5,7C252,61.2,252.9,58.8,253.6,56.3L253.6,56.3z M254.9,57.9
			c0,1.1-0.2,2.1-0.6,3.1c-0.4,1-1,1.9-1.8,2.6c-1.2,1.2-2.1,2.7-2.7,4.4c-0.7-0.5-1.3-1.2-1.6-2c-0.4-0.8-0.5-1.7-0.4-2.6
			c0-1.1,0.2-2.2,0.6-3.3c0.4-1,1.1-2,1.9-2.8c1.5-1.4,3.1-1.9,3.9-3.3C254.7,55.3,254.9,56.6,254.9,57.9L254.9,57.9z M254.4,32.2
			c-0.9-0.1-1.8,0.1-2.6,0.6c-1.6,1-2.9,1.9-3.9,0.7c1.1,0.8,2-0.2,3.7-1.2c0.9-0.4,1.8-0.6,2.8-0.6c-1.2-0.6-2.3-1.5-3.3-2.4
			c1.1,0.7,2.3,1.4,3.5,2.1c-1.1-1.5-2.6-2.8-4.2-3.8c1.8,0.7,3.4,1.9,4.6,3.5c-0.4-1.6-0.6-3.3-0.6-5c0.2,1.7,0.6,3.3,1.1,4.9
			c0.5-2.4,0.3-4.9-0.3-7.3c1.1,1.7,1.2,4.2,0.8,7.4c0.7-1.2,1.1-2.5,1.1-3.9c0-2.6-1-4.3-2.6-4.9c-0.1-0.1-0.3-0.1-0.4-0.1
			c0.1,0.3,0.1,0.5,0.1,0.8c0,1.3-1,2.2-1,4.2c0,0.5,0,1,0.2,1.5c-0.4-0.6-0.9-1-1.5-1.4c-0.6-0.3-1.3-0.5-1.9-0.5
			c-0.3,0-0.6,0-1,0.1c0,0.9,0.3,1.8,0.8,2.6c0.5,0.8,1.3,1.3,2.2,1.6c-2.3,0.3-2.3,1.7-3.3,1.7c-0.1,0-0.2,0-0.3,0
			c-0.1,0-0.2-0.1-0.3-0.2c-0.1-0.1-0.1-0.2-0.2-0.3s-0.1-0.2,0-0.3c0-0.1,0-0.2,0-0.3s0.1-0.2,0.2-0.2c0.1-0.1,0.2-0.1,0.2-0.1
			c0.1,0,0.2,0,0.3,0c-0.1,0-0.3,0-0.4,0c-0.4,0-0.9,0.3-1.2,0.6c-0.3,0.3-0.4,0.8-0.4,1.2c0,0.3,0.1,0.5,0.2,0.7
			c0.1,0.2,0.3,0.4,0.5,0.6c0.2,0.2,0.4,0.3,0.7,0.4c0.3,0.1,0.5,0.1,0.8,0.1C250.7,35.1,252.5,33.1,254.4,32.2L254.4,32.2z
			 M248,49.3c0-0.1,0-0.3,0-0.4c0-0.1,0.1-0.2,0.2-0.3c0.1-0.1,0.2-0.2,0.3-0.2c0.1-0.1,0.2-0.1,0.4-0.1c0.2,0,0.4,0,0.6,0.2
			c-0.1-0.1-0.2-0.2-0.3-0.3c-0.1-0.1-0.3-0.1-0.4-0.1c-1.2,0-2.2,1.2-2.2,2.9c0,0.5,0.1,0.9,0.2,1.3c0.2,0.4,0.4,0.8,0.7,1.1
			c0.3,0.3,0.7,0.6,1.2,0.8c0.4,0.2,0.9,0.3,1.4,0.2c2.6,0,3.9-2,4.2-4.5c-0.3,0.9-0.9,1.6-1.6,2.2c-0.7,0.5-1.6,0.9-2.6,0.9
			c-0.6,0-1.2-0.2-1.6-0.6c-0.5-0.4-0.8-0.9-1-1.4c0.2,0.5,0.6,0.9,1.1,1.1c0.5,0.3,1,0.4,1.5,0.3c0.9-0.1,1.7-0.4,2.4-1
			c0.7-0.6,1.1-1.3,1.3-2.2c-0.5,0.5-1,0.9-1.7,1.2c-0.6,0.3-1.3,0.4-2,0.5C248.7,51,248,50.3,248,49.3z M246.2,33.2
			c0-0.3,0-0.6,0.1-0.8c0.1-0.3,0.3-0.5,0.4-0.7c0.2-0.2,0.4-0.4,0.7-0.5c0.3-0.1,0.6-0.2,0.8-0.2c0.8,0,1.3,0.4,1.3,1.1
			c0.4-0.4,0.8-0.7,1.3-0.9c-0.8-0.4-1.4-1.1-1.8-1.9c-0.4-0.8-0.6-1.7-0.5-2.6c0.5-0.2,1-0.2,1.5-0.2c0.9,0,1.9,0.3,2.6,0.9
			c0-2.2,1.1-2.8,1.1-4.4c0-0.4-0.1-0.8-0.2-1.2c1.9,0,4.1,2,4.1,5.6c0,1.8-0.7,3.6-1.8,5.1c-2.3,0-4.3,3.2-7.1,3.2
			c-0.3,0-0.7,0-1-0.1c-0.3-0.1-0.6-0.3-0.9-0.5c-0.3-0.2-0.5-0.5-0.6-0.8C246.3,33.9,246.2,33.5,246.2,33.2L246.2,33.2z
			 M254.8,49.5c0,3.7-2.3,5.5-4.7,5.5c-0.5,0-1.1-0.1-1.6-0.3c-0.5-0.2-1-0.5-1.3-0.9c-0.4-0.4-0.7-0.8-0.9-1.3
			c-0.2-0.5-0.3-1-0.3-1.6c0-1.9,1.2-3.4,2.7-3.4c0.8,0,1.4,0.5,1.4,1.2c0,0.1,0,0.3-0.1,0.4c0,0.1-0.1,0.2-0.2,0.3
			c-0.1,0.1-0.2,0.2-0.3,0.2c-0.1,0.1-0.2,0.1-0.4,0.1c-0.3,0-0.4,0-0.5-0.2c0.2,0.6,1.1,0.7,1.4,0.7c1-0.1,1.9-0.4,2.7-0.9
			c0.8-0.6,1.4-1.3,1.8-2.2C254.7,48,254.7,48.8,254.8,49.5L254.8,49.5z"/>
	</g>
</g>
</svg>
