<?xml version="1.0" encoding="utf-8"?>
<!-- Generator: Adobe Illustrator 26.0.3, SVG Export Plug-In . SVG Version: 6.00 Build 0)  -->
<svg version="1.1" id="Capa_1" xmlns="http://www.w3.org/2000/svg" xmlns:xlink="http://www.w3.org/1999/xlink" x="0px" y="0px"
	 viewBox="0 0 160 100" style="enable-background:new 0 0 160 100;" xml:space="preserve">
<style type="text/css">
	.st0{fill:#565A5D;}
</style>
<path class="st0" d="M128.61,41.11c0.28,0,0.71,0.05,1.09,0.05c0.99,0,1.98-0.59,1.98-2.46c0-1.73-1.09-2.46-2.41-2.46h-0.71v4.88
	H128.61z M129.65,35.39c1.93,0,3.16,1.13,3.16,3.11c0,2.22-1.6,3.5-3.68,3.5h-1.65v-6.61H129.65z M122.38,36.52l-0.94,2.81h1.89
	L122.38,36.52z M123.61,40.17h-2.45L120.54,42h-1.13l2.41-6.56l1.18-0.15l2.41,6.7h-1.18L123.61,40.17z M113.89,41.11
	c0.28,0,0.71,0.05,1.09,0.05c0.99,0,1.98-0.59,1.98-2.46c0-1.73-1.09-2.46-2.41-2.46h-0.71v4.88H113.89z M114.93,35.39
	c1.93,0,3.21,1.13,3.21,3.11c0,2.22-1.6,3.5-3.68,3.5h-1.65v-6.61H114.93z M110.02,42h-1.13v-6.61h1.13V42z M102.19,37.07
	c0-1.04,0.94-1.82,2.31-1.82c0.75,0,1.46,0.1,1.93,0.25l-0.19,0.94c-0.61-0.25-1.27-0.39-1.98-0.39c-0.57,0-0.99,0.3-0.99,0.79
	c0,0.54,0.38,0.84,1.37,1.23c1.6,0.64,1.93,1.13,1.93,2.02c0,1.18-1.04,1.97-2.64,1.97c-0.66,0-1.37-0.15-1.84-0.3l0.24-0.99
	c0.61,0.25,1.32,0.39,2.17,0.39c0.57,0,1.09-0.3,1.09-0.84c0-0.54-0.28-0.89-1.46-1.38C102.71,38.55,102.19,38.1,102.19,37.07z
	 M98.51,37.41c0-0.79-0.42-1.23-1.37-1.23c-0.24,0-0.42,0-0.66,0v2.22c0.24,0.05,0.52,0.05,0.85,0.05
	C97.89,38.5,98.51,38.2,98.51,37.41z M96.48,39.29V42h-1.13v-6.61h2.17c1.37,0,2.17,0.54,2.17,1.68c0,0.89-0.47,1.53-1.13,1.87
	l1.65,3.06h-1.27l-1.32-2.76c-0.19,0.05-0.38,0.05-0.52,0.05C96.9,39.29,96.67,39.29,96.48,39.29z M89.02,35.39h3.96l-0.09,0.89
	c-0.9,0-1.79-0.05-2.69-0.05v1.97h2.5l-0.09,0.79l-2.41-0.05v2.17l2.97-0.05l-0.09,0.89h-4.01v-6.56H89.02z M81.09,35.49l1.13-0.2
	l1.79,5.42l1.75-5.32h1.13l-2.41,6.51l-1.09,0.2L81.09,35.49z M79.06,42h-1.13v-6.61h1.13V42z M74.25,42.14l-3.35-5.03V42h-1.04
	v-6.61H71l3.21,4.88v-4.88h1.04v6.51L74.25,42.14z M62.08,35.39h1.13v4.09c0,1.28,0.61,1.73,1.7,1.73c0.71,0,1.23-0.44,1.23-1.38
	v-4.39h1.09v4.14c0,1.68-0.9,2.56-2.69,2.56c-1.51,0-2.45-0.74-2.45-2.27V35.39z"/>
<path class="st0" d="M151.35,47.56h2.13V58.1l5.21-0.1l-0.24,1.68h-7.15V47.56H151.35z M142.36,49.63l-1.8,5.2h3.6L142.36,49.63z
	 M144.73,56.41h-4.69l-1.14,3.32h-2.13l4.59-12.12l2.22-0.29l4.54,12.41h-2.27L144.73,56.41z M131.8,59.97l-6.39-9.28v9.04h-1.94
	V47.56h2.13l6.06,9v-9h1.94v12.03L131.8,59.97z M113.44,48.96c-1.89,0-3.41,1.2-3.41,4.38c0,3.61,1.66,5.05,4.07,5.05
	c1.89,0,3.41-1.2,3.41-4.43C117.56,50.4,115.85,48.96,113.44,48.96z M113.3,59.97c-3.22,0-5.44-2.21-5.44-6.06
	c0-4.14,2.7-6.59,6.49-6.59c3.22,0,5.44,2.21,5.44,6.11C119.78,57.57,117.08,59.97,113.3,59.97z M104.11,59.73h-2.13V47.56h2.13
	V59.73z M98.53,59.11c-0.85,0.48-2.46,0.87-3.83,0.87c-3.46,0-5.96-2.12-5.96-6.21c0-3.8,2.46-6.45,6.34-6.45
	c1.47,0,2.79,0.24,3.36,0.53l-0.52,1.73c-0.8-0.29-2.04-0.63-3.46-0.63c-1.7,0-3.5,1.06-3.5,4.52c0,3.66,2.27,4.86,4.35,4.86
	c1.09,0,2.22-0.34,2.75-0.63L98.53,59.11z M80.96,49.63l-1.8,5.2h3.6L80.96,49.63z M83.33,56.41h-4.69l-1.14,3.32h-2.13l4.59-12.12
	l2.22-0.29l4.54,12.41h-2.27L83.33,56.41z M70.41,59.97l-6.39-9.28v9.04h-1.94V47.56h2.13l6.06,9v-9h1.94v12.03L70.41,59.97z"/>
<path class="st0" d="M69.87,65.72h4.09l-0.1,0.85c-0.93,0-1.85-0.05-2.78-0.05v1.89h2.58l-0.1,0.76l-2.48-0.05v2.08l3.07-0.05
	L74.06,72h-4.14v-6.28H69.87z M63.15,71.2c0.29,0,0.73,0.05,1.12,0.05c1.02,0,2.05-0.57,2.05-2.36c0-1.65-1.12-2.36-2.48-2.36H63.1
	v4.67H63.15z M64.27,65.72c2,0,3.31,1.09,3.31,2.97c0,2.12-1.66,3.35-3.8,3.35h-1.7v-6.28h2.19V65.72z"/>
<path class="st0" d="M130.87,66.91l-0.95,2.59h1.9L130.87,66.91z M132.11,70.27h-2.47l-0.62,1.64h-1.14l2.47-6.05l1.19-0.14
	l2.42,6.19h-1.19L132.11,70.27z M125.93,71.91h-1.14v-6.05h1.14V71.91z M121.37,70.27c0-0.68-0.57-1.09-1.62-1.09
	c-0.24,0-0.52,0-0.81,0v1.96c0.33,0,0.76,0,1.19,0C120.85,71.18,121.37,70.96,121.37,70.27z M120.99,67.63c0-0.64-0.38-1-1.43-1
	c-0.14,0-0.33,0-0.52,0v1.87c0.24,0,0.48,0,0.67,0C120.66,68.5,120.99,68.14,120.99,67.63z M117.86,65.86h2.04
	c1.38,0,2.14,0.5,2.14,1.46c0,0.68-0.48,1.14-1.05,1.41c0.71,0.09,1.47,0.5,1.47,1.41c0,1.09-1.05,1.82-2.8,1.82h-1.85v-6.1H117.86z
	 M109.21,67.23l-0.48,4.69h-1.05l0.81-6.05h1.19l1.95,4.87l1.9-4.87h1.19l0.76,6.05h-1.09l-0.48-4.69l-1.81,4.55h-0.05l-1,0.14
	L109.21,67.23z M102.46,66.54c-1,0-1.81,0.59-1.81,2.18c0,1.82,0.86,2.55,2.14,2.55c1,0,1.81-0.59,1.81-2.23
	C104.6,67.27,103.75,66.54,102.46,66.54z M102.37,72.05c-1.71,0-2.9-1.09-2.9-3.05c0-2.09,1.43-3.28,3.42-3.28
	c1.71,0,2.9,1.09,2.9,3.05C105.79,70.82,104.36,72.05,102.37,72.05z M94.1,65.86h1.14v5.28L98,71.09l-0.1,0.82h-3.8V65.86z
	 M88.45,66.54c-1,0-1.81,0.59-1.81,2.18c0,1.82,0.86,2.55,2.14,2.55c1,0,1.81-0.59,1.81-2.23C90.63,67.27,89.73,66.54,88.45,66.54z
	 M88.4,72.05c-1.71,0-2.9-1.09-2.9-3.05c0-2.09,1.43-3.28,3.42-3.28c1.71,0,2.9,1.09,2.9,3.05C91.82,70.82,90.39,72.05,88.4,72.05z
	 M83.93,71.59c-0.48,0.27-1.33,0.46-2.04,0.46c-1.81,0-3.14-1.05-3.14-3.09c0-1.91,1.33-3.23,3.37-3.23c0.81,0,1.47,0.14,1.76,0.27
	l-0.29,0.86c-0.43-0.14-1.09-0.32-1.85-0.32c-0.9,0-1.85,0.5-1.85,2.28c0,1.82,1.19,2.41,2.33,2.41c0.57,0,1.19-0.18,1.47-0.32
	L83.93,71.59z"/>
<path class="st0" d="M46.53,56.39c-0.05,0.71-0.05,0.9-0.05,1.28c0,2.32,0.89,3.41,1.79,4.54c0.71,0.8,1.55,1.94,2.16,3.22
	c0.47-0.57,1.04-1.66,1.04-3.17c0-2.51-1.22-4.83-4-6.29c1.65,1.85,2.96,4.07,3.06,7.57c-0.52-3.22-1.74-5.39-3.43-7.24
	c0.47,2.22,1.46,4.07,2.4,6.01C48.18,60.79,47.05,58.7,46.53,56.39z M46.86,50.42c0.47,1.42,1.74,2.7,3.15,2.7
	c0.99,0,1.65-0.38,2.16-1.23c-0.28,0.99-1.08,1.7-2.16,1.7c-1.79,0-2.92-1.28-3.53-2.6c0.24,2.13,1.36,3.83,3.58,3.83
	c1.69,0,2.96-1.28,2.96-2.98c0-1.42-0.8-2.46-1.84-2.46c-0.19,0-0.47,0.05-0.61,0.28c0.14-0.09,0.24-0.14,0.47-0.14
	c0.47,0,0.75,0.38,0.75,0.85c0,0.8-0.66,1.47-1.79,1.47C48.65,51.8,47.76,51.28,46.86,50.42z M49.97,51.32
	c0.28,0,1.04-0.05,1.22-0.62c-0.05,0.09-0.19,0.14-0.42,0.14c-0.47,0-0.8-0.38-0.8-0.85c0-0.61,0.47-1.04,1.18-1.04
	c1.27-0.05,2.31,1.23,2.31,2.84c0,2.08-1.51,3.45-3.43,3.45c-2.07,0-4-1.56-4-4.73c0-0.71,0.05-1.32,0.19-1.89
	C47.05,50.38,48.56,51.32,49.97,51.32z M49.87,57.1c1.08,1.04,2.12,2.65,2.12,5.16c0,1.89-0.8,3.41-1.74,3.93
	c-0.61-1.8-1.51-2.74-2.31-3.69c-1.08-1.23-1.98-2.51-1.98-4.87c0-1.04,0.24-2.55,0.61-3.36C47.19,55.44,48.6,55.87,49.87,57.1z
	 M46.91,43.04c0.05-0.99,0.38-3.08,0.61-3.97c-1.08,1.85-1.69,3.08-1.69,4.59c0,2.13,0.85,4.02,2.59,5.54
	c-0.05-2.22,1.22-4.31,1.22-6.53c0-1.42-0.38-2.74-1.22-3.79c0.19,0.62,0.28,1.99,0.28,3.03c0,1.37-0.42,3.5-0.99,5.35
	c0.28-2.32,0.47-3.93,0.47-5.35c0-0.62-0.05-1.99-0.28-2.84c-0.28,1.04-0.47,2.41-0.61,3.97c-0.09,0.9-0.19,1.85-0.24,2.74
	C46.96,45.17,46.86,43.9,46.91,43.04z M50.11,42.67c0,2.22-1.22,4.35-1.22,6.48c0,0.28,0.05,0.66,0.19,0.99
	c-2.12-1.09-3.76-3.64-3.76-6.43c0-3.08,1.98-4.31,1.98-5.77c0-0.14,0-0.24-0.05-0.38C49.12,38.45,50.11,40.54,50.11,42.67z
	 M45.83,81.08l-0.24,0.05l-0.24-1.04h-0.05l0.09,0.71v0.61l-0.28,0.05v-1.85l0.33-0.05l0.24,0.71l0.05,0.38h0.05l0.05-0.43l0.19-0.8
	l0.38-0.05v1.66l-0.28,0.14v-0.61l0.09-0.71l-0.05,0.05L45.83,81.08z M52.84,36.56c0-0.71-0.47-1.56-1.32-1.56
	c-0.09,0-0.24,0-0.38,0.05c0.38-0.05,0.61,0.19,0.61,0.52c0,0.38-0.28,0.66-0.66,0.66c-0.89,0-0.89-1.23-2.82-1.51
	c2.16-0.9,2.59-2.6,2.54-3.55c-0.28-0.05-0.47-0.09-0.8-0.09c-0.85,0-1.93,0.28-2.92,1.66c0.14-0.38,0.14-0.8,0.14-1.28
	c0-1.75-0.85-2.46-0.85-3.6c0-0.24,0.05-0.52,0.09-0.71c-0.09,0-0.24,0.05-0.33,0.09c-1.32,0.57-2.16,1.99-2.16,4.21
	c0,1.28,0.52,2.7,0.94,3.31c-0.33-2.74-0.24-4.87,0.71-6.34c-0.42,1.56-0.71,3.69-0.28,6.25c0.38-1.23,0.71-2.74,0.89-4.16
	c0.14,1.32-0.14,2.98-0.47,4.26c0.99-1.14,2.54-2.6,3.91-2.98c-1.55,0.99-2.92,2.22-3.58,3.22c1.08-0.52,2.07-1.23,2.96-1.8
	c-0.61,0.71-1.79,1.56-2.78,2.08c0.52,0,1.65,0.05,2.35,0.47c1.36,0.9,2.26,1.7,3.15,1.04c-0.8,0.99-1.98,0.19-3.29-0.61
	c-0.89-0.57-1.88-0.52-2.21-0.47c1.55,0.71,3.06,2.41,4.71,2.41C52.09,38.17,52.84,37.51,52.84,36.56z M44.13,79.62v1.32
	c0,0.24,0.05,0.28,0.19,0.28c0.05,0,0.19-0.05,0.19-0.24v-1.37h0.33v1.32c0,0.43-0.24,0.66-0.52,0.66c-0.28,0-0.56-0.19-0.56-0.66
	v-1.37L44.13,79.62z M45.07,35.85c-0.99-1.09-1.55-2.84-1.55-4.35c0-3.08,1.84-4.78,3.43-4.78c-0.09,0.33-0.14,0.71-0.14,1.04
	c0,1.37,0.89,1.89,0.89,3.79c0.61-0.47,1.51-0.76,2.21-0.76s1.13,0.14,1.27,0.19c0.24,1.51-0.61,3.08-1.93,3.78
	c0.52,0.19,0.85,0.52,1.13,0.8c0.05-0.47,0.38-0.9,1.08-0.9c0.85,0,1.79,0.66,1.79,1.94c0,1.14-0.94,1.99-2.21,1.99
	C48.74,38.6,47.05,35.85,45.07,35.85z M43.29,80.04c0-0.19-0.14-0.33-0.28-0.33v0.71C43.15,80.42,43.29,80.28,43.29,80.04z
	 M43.33,81.41l-0.24-0.57l-0.05-0.14h-0.14v0.62l-0.28-0.05v-1.99L43,79.38c0.38,0.09,0.52,0.38,0.52,0.71
	c0,0.24-0.14,0.43-0.24,0.47l0.38,0.9L43.33,81.41z M49.26,68.36c0-1.94-1.08-4.07-3.01-5.44c1.36,2.13,2.16,4.45,1.98,6.62
	c-0.28-1.99-1.13-4.59-2.49-6.48c0.14,2.13-0.61,4.45-1.88,4.87c0.99-0.85,1.74-3.17,1.27-4.92c-0.52,2.84-1.41,4.45-2.92,5.02
	c0.28,0.28,0.94,0.62,1.6,0.62c1.36,0,2.49-0.95,2.49-3.55v-0.14v0.14c0.05,3.22,1.22,4.21,1.22,5.44c0,0.99-0.71,1.51-1.46,1.28
	C47.19,72.61,49.26,71.38,49.26,68.36z M42.49,81.18l-0.8-0.28v-1.94l0.8,0.28v0.28l-0.47-0.19v0.52l0.38,0.09v0.28l-0.38-0.14v0.57
	l0.47,0.14V81.18z M45.97,76.35c-0.61,0-1.22,0.28-1.93,0.71c-0.75,0.43-1.6,0.8-2.4,0.57c0.99,0.43,2.31,0.71,3.29,0.71
	c1.08,0,2.21-0.43,2.21-1.18C47.19,76.78,46.77,76.35,45.97,76.35z M41.4,67.84c2.78-0.71,2.82-3.83,3.67-6.43
	c3.43,2.41,4.71,4.54,4.71,7c0,2.84-1.51,4.12-3.01,4.12c-0.89,0-1.46-0.57-1.46-1.23c0-0.47,0.42-0.85,0.85-0.85
	c0.47,0,0.71,0.28,0.8,0.52c0.14-0.14,0.14-0.24,0.14-0.47c0-0.61-0.66-1.66-0.85-2.7c-0.38,0.8-1.36,1.32-2.4,1.32
	C42.82,69.16,41.73,68.69,41.4,67.84z M41.36,76.4c0,0.52,0.28,0.8,0.75,0.8c0.71,0,1.55-0.47,2.16-0.85
	c-0.38-0.47-1.13-0.9-1.79-0.9C41.83,75.5,41.36,75.83,41.36,76.4z M41.31,78.81l0.28,0.14l-0.28,1.85l-0.56-0.24l-0.24-2.08
	l0.33,0.14l0.14,1.23v0.52l0.09,0.05l0.05-0.52L41.31,78.81z M39.62,79.14c0-0.14,0.09-0.24,0.24-0.24s0.24,0.09,0.24,0.24
	c0,0.14-0.09,0.24-0.24,0.24S39.62,79.29,39.62,79.14z M39.43,57.19c-0.14,0-0.28,0.14-0.56,0.19v1.47l0.8-1.14
	C39.8,57.52,39.66,57.19,39.43,57.19z M39.19,79.9l-0.8-0.28v-2.08l0.8,0.38v0.28l-0.47-0.19v0.52l0.42,0.14v0.28l-0.42-0.14v0.62
	l0.47,0.14V79.9z M38.58,57.47c-0.14,0.05-0.33,0.05-0.52,0.05v2.55l0.52-0.76V57.47z M37.88,77.91c0-0.24-0.14-0.33-0.28-0.38v0.66
	C37.69,78.24,37.88,78.15,37.88,77.91z M37.97,79.38l-0.24-0.71l-0.05-0.19h-0.14v0.76l-0.28-0.14v-2.08l0.28,0.14
	c0.47,0.19,0.61,0.43,0.61,0.71c0,0.14-0.05,0.38-0.24,0.47l0.47,1.18L37.97,79.38z M37.26,57.52v3.79l0.52-0.76v-3.03
	C37.59,57.52,37.45,57.52,37.26,57.52z M39.57,22.98c0-0.52,0.33-0.9,0.8-0.9s0.71,0.38,0.71,0.71c0,0.38-0.28,0.8-0.99,0.71
	c0.24,0.24,0.66,0.28,1.08,0.28c0.71,0,1.27-0.57,1.27-1.37c0-1.09-0.8-1.85-2.07-1.85c-1.55,0-3.34,1.47-3.34,4.87
	c0,2.13,0.66,4.54,2.49,6.72c-1.08,0.24-1.65,0.85-1.65,1.66c0,0.47,0.14,0.85,0.33,1.09c0.47-0.76,1.08-1.23,2.31-1.51
	c-0.66-0.28-1.41-0.19-1.98,0.24c0.33-0.71,1.13-1.04,2.07-0.85c-2.73-5.06-3.15-8.19-2.31-9.98c-0.28,1.8-0.28,4.54,2.78,9.65
	c0.28-4.07-1.51-4.87-1.98-7.71c0.8,2.7,2.73,3.5,2.49,7.76c0.56-0.71,0.8-1.85,0.8-2.65C42.53,27.01,39.57,25.16,39.57,22.98z
	 M36.65,25.44c0-3.69,1.93-5.3,3.76-5.3c1.51,0,2.54,0.99,2.54,2.27c0,1.04-0.8,1.75-1.74,1.75c-0.28,0-0.71-0.05-0.99-0.24
	C41.12,25.92,43,27.19,43,29.8c0,1.32-0.56,2.93-1.65,3.79c-1.55,0.24-2.82,1.28-2.96,2.08c-0.42-0.38-0.85-1.09-0.85-1.85
	c0-0.8,0.47-1.56,1.46-1.8C37.22,30.03,36.65,27.34,36.65,25.44z M36.93,57.47c-0.24-0.05-0.38-0.14-0.56-0.19v5.3l0.56-0.8V57.47z
	 M36.46,29.89c-0.19-0.05-0.38-0.28-0.38-0.61c0-0.38,0.24-0.66,0.24-1.14c0.28,0.28,0.52,0.71,0.52,1.09S36.65,29.84,36.46,29.89z
	 M35.95,77.77l0.28,0.14v-0.99l-0.05-0.05l-0.09,0.38L35.95,77.77z M36.46,30.88c-0.56,0-0.89-0.47-0.85-1.09
	c0.14,0.14,0.85,0.24,0.8,0.85c0.05-0.62,0.61-0.47,0.85-0.8v0.28C37.26,30.51,36.93,30.88,36.46,30.88z M36.09,57.14
	c-0.19-0.09-0.38-0.24-0.56-0.33v7.05l0.56-0.8V57.14z M37.08,79.05l-0.85-0.38V78.2l-0.38-0.14l-0.14,0.43l-0.28-0.14l0.56-1.8
	l1.08,0.43v0.33l-0.47-0.19v0.47l0.38,0.14v0.28l-0.38-0.14v0.52l0.47,0.19V79.05z M35.38,30.93c0-0.14,0-0.19,0.05-0.28
	c0.24,0.38,0.85,0.38,0.85,0.85c0.19-0.47,0.85-0.28,1.13-0.52c-0.05,0.61-0.42,0.99-0.94,0.99C35.81,31.93,35.38,31.45,35.38,30.93
	z M35.71,41.44c0-0.14-0.09-0.24-0.24-0.24s-0.24,0.09-0.24,0.24c0,0.14,0.09,0.24,0.24,0.24C35.62,41.62,35.71,41.53,35.71,41.44z
	 M35.01,31.93c0-0.14,0-0.24,0.05-0.28c0.19,0.38,1.04,0.43,1.04,1.04c0.14-0.57,0.99-0.28,1.32-0.66
	c-0.05,0.71-0.42,0.99-1.04,0.99C35.62,32.92,35.01,32.59,35.01,31.93z M35.81,24.12v0.85c0,1.14-0.14,2.7-0.47,3.93
	c-0.28-0.14-0.56-0.43-0.56-1.09c0-0.19,0-0.43,0.05-0.62c0.05-0.43,0.19-1.47,0.19-2.65c0-0.43,0-0.9-0.05-1.37
	C35.15,23.93,35.52,24.12,35.81,24.12z M36.51,45.55l0.52-0.14c1.88-0.43,3.01-1.09,3.01-2.55c0-1.23-0.99-1.89-2.12-1.89
	c-0.8,0-1.22,0.19-1.74,0.66c-0.38,0.33-0.66,0.47-1.08,0.47c-0.24,0-0.42-0.14-0.42-0.24c0-0.47,1.51-1.75,3.25-1.75
	c1.65,0,3.01,0.99,3.01,2.65c0,1.89-1.55,2.79-3.76,3.36l-0.71,0.14v-0.71H36.51z M35.52,76.35v1.42c0,0.28-0.28,0.52-0.56,0.43
	c-0.28-0.09-0.47-0.28-0.47-0.8v-1.42l0.28,0.14v1.37c0,0.24,0.09,0.38,0.24,0.43c0.14,0.05,0.19-0.05,0.19-0.19v-1.47L35.52,76.35z
	 M34.49,32.87c0-0.19,0.05-0.38,0.14-0.62c0.05,0.38,0.89,0.52,0.89,1.14v0.24c0.14-0.28,0.42-0.28,0.66-0.28
	c0.61,0,0.8,0.05,0.89-0.05c-0.14,0.52-0.47,0.85-1.04,0.85C35.33,34.15,34.49,33.68,34.49,32.87z M36.09,48.58v0.24
	c0.85,0.19,1.41,0.38,1.41,0.66h-3.34c0-0.28,0.47-0.47,1.32-0.66v-0.38L36.09,48.58z M34.11,59.93c0,1.99,0.94,2.79,1.13,3.83
	v-7.24l-0.42-0.43C34.82,57.52,34.11,57.99,34.11,59.93z M34.3,72.61c0.38,0.05,2.16,0.09,2.49,0.09c1.27,0,3.06-0.24,4.23-0.71
	c-2.4,1.32-4.66,1.23-6.73,1.14c1.13,0.52,2.21,0.8,3.2,0.8c2.49,0,4.38-1.85,5.69-1.85c0.8,0,1.27,0.28,1.32,1.04
	c0.05-0.09,0.05-0.28,0.05-0.38c0-1.94-2.21-2.84-3.76-2.84c-2.07,0-4.94,1.61-6.96,2.22c2.4,0,5.08-1.23,7.15-1.23
	c0.66,0,1.36,0.14,1.79,0.28C40.23,70.82,38.02,72.38,34.3,72.61z M33.78,35v0.99l0.19,0.05l-0.05-0.76l0.28,0.8l0.38,0.05v-0.99
	h-0.19v0.66l-0.24-0.76L33.78,35z M34.53,23.88c0,0.8,0,1.7-0.14,2.7c-0.56-0.05-0.61-0.61-0.61-1.04v-1.23c0-0.43,0-0.85-0.05-1.32
	C33.88,23.69,34.25,23.88,34.53,23.88z M35.48,48.11c-1.41-0.24-1.74-0.61-1.74-0.99s0.24-0.8,1.32-1.09v0.71
	c-0.38,0.09-0.47,0.19-0.47,0.38c0,0.19,0.14,0.28,0.89,0.43l0.61,0.14c1.65,0.33,2.07,0.95,2.26,1.23
	c0.05,0.14,0.09,0.28,0.09,0.33c0,0.19-0.05,0.38-0.14,0.38c-0.38,0,0.05-0.85-2.21-1.32L35.48,48.11z M33.31,76.68
	c0,0.38,0.05,0.71,0.28,0.71c0.19,0,0.24-0.28,0.24-0.71c0-0.38-0.05-0.71-0.28-0.71C33.41,76.02,33.31,76.26,33.31,76.68z
	 M35.01,55.11c0.8,1.37,1.84,1.75,2.96,1.75c0.66,0,1.22-0.28,1.74-0.28c0.47,0,0.85,0.38,0.85,0.8c0,0.24-0.14,0.47-0.19,0.61
	l-4.71,7.38h-1.13l-0.24-0.61c0.19-0.14,0.28-0.28,0.28-0.47c0-1.09-1.27-1.99-1.27-4.16c0-1.94,0.8-2.7,0.8-3.45
	c0-0.24-0.05-0.52-0.24-0.85l0.47-0.66h0.66V55.11z M33.73,77.72h-0.05c-0.47,0-0.66-0.43-0.66-1.09c0-0.57,0.19-0.99,0.56-0.99
	c0.42,0,0.61,0.43,0.61,1.14c0,0.38-0.05,0.62-0.28,0.71l0.19-0.05l0.24,0.05v0.38L33.73,77.72z M32.98,35.81l0.61,0.14v-0.19
	l-0.28-0.05v-0.24l0.24,0.05v-0.19l-0.24-0.05V35l0.28,0.09v-0.19l-0.56-0.14v1.04H32.98z M35.19,29.42
	c-0.47,1.56-1.22,3.22-2.12,4.31c-0.14-0.05-0.19-0.14-0.19-0.28c0-0.24,0.28-0.71,0.61-1.51c0.38-1.04,0.8-2.13,1.13-3.78
	C34.68,28.99,34.82,29.28,35.19,29.42z M35.48,47.16v-2.22c-1.65-0.38-2.92-0.8-2.92-1.89h6.4c0,1.09-1.22,1.51-2.92,1.89v2.37
	L35.48,47.16z M33.31,23.84c0.05,0.24,0.05,0.47,0.05,0.8c0,0.62-0.05,1.23-0.19,1.89c-0.52-0.14-0.61-0.62-0.61-1.09
	c0-0.28,0.05-0.85,0.05-1.28c0-0.28-0.05-0.71-0.14-1.28C32.7,23.65,33.03,23.84,33.31,23.84z M32.56,35.19
	c0,0.24-0.09,0.28-0.19,0.28v-0.71C32.46,34.76,32.56,34.86,32.56,35.19z M43.95,73.99c-0.47,0-0.89-0.28-0.89-0.71
	c0-0.38,0.24-0.62,0.56-0.71c-1.18-0.33-3.11,1.85-6.12,1.85c-1.74,0-3.58-0.71-5.32-2.18c3.91-1.18,6.21-2.74,8.66-2.74
	c2.4,0,4.23,1.56,4.23,3.26C45.07,73.51,44.56,73.99,43.95,73.99z M33.64,22.37c-0.14-1.23-0.61-2.13-1.08-2.6
	c-0.24-0.24-0.42-0.28-0.42-0.43s0.14-0.19,0.24-0.19c0.38,0,1.04,0.57,1.51,1.47c0.28,0.66,0.61,1.7,0.66,2.79
	C34.06,23.41,33.73,23.08,33.64,22.37z M32.37,35.62c0.24,0.05,0.52-0.05,0.52-0.38c0-0.28-0.14-0.57-0.47-0.66l-0.33-0.14v1.09
	L32.37,35.62z M31.95,76.26c0-0.14,0.09-0.24,0.24-0.24c0.14,0,0.24,0.09,0.24,0.24c0,0.14-0.09,0.24-0.24,0.24
	C32.04,76.49,31.95,76.45,31.95,76.26z M34.35,27.05c-0.28,2.18-1.22,4.45-2.12,5.87c-0.19-0.05-0.28-0.19-0.28-0.38
	c0-0.28,0.19-0.71,0.38-1.28c0.38-1.04,1.08-2.55,1.36-5.3C33.69,26.72,33.97,27.05,34.35,27.05z M32.46,22.37
	c-0.09-0.66-0.28-1.56-0.71-2.13c-0.05-0.14-0.14-0.19-0.14-0.28c0-0.09,0.14-0.19,0.19-0.19c0.19,0,0.38,0.19,0.47,0.38
	c0.52,0.8,0.85,1.66,0.99,3.22C32.79,23.36,32.61,23.08,32.46,22.37z M31.62,34.67c0,0.14-0.05,0.19-0.14,0.14v-0.38
	C31.62,34.48,31.62,34.58,31.62,34.67z M32.18,23.36v1.04c0,0.47,0,0.99-0.05,1.56c-0.38,0-0.71-0.38-0.71-0.9
	c0-0.28,0.05-0.8,0.05-1.32c0-0.38,0-0.71-0.05-1.23C31.52,23.03,31.81,23.36,32.18,23.36z M31.62,21.09c0.19,0,0.28,0.24,0.47,1.75
	c-0.56,0-0.71-0.61-0.71-1.14C31.38,21.28,31.48,21.09,31.62,21.09z M31.95,35.52l-0.24-0.57c0.14-0.05,0.19-0.14,0.19-0.24
	c0-0.19-0.14-0.28-0.42-0.38l-0.28-0.09v1.04l0.28,0.09V35l0.14,0.47L31.95,35.52z M33.22,26.91c-0.24,1.47-1.04,3.88-1.93,5.16
	c-0.14-0.14-0.19-0.24-0.19-0.43c0-0.28,0.05-0.66,0.24-1.14c0.42-1.14,1.04-2.93,1.22-4.68C32.61,26.58,32.84,26.86,33.22,26.91z
	 M30.77,54.26c-0.19-0.05-0.28-0.24-0.28-0.43c0-0.38,0.42-0.71,0.85-0.99v-1.99h0.09c0.14,2.13,0.14,2.37,0.14,2.6
	C31.57,54.02,31.15,54.4,30.77,54.26z M30.63,34.95c-0.14-0.05-0.14-0.24-0.14-0.38c0-0.24,0-0.43,0.14-0.38
	c0.14,0.05,0.14,0.19,0.14,0.43C30.72,34.76,30.72,34.95,30.63,34.95z M30.39,76.12l0.28,0.05V75.6l0.05-0.38h-0.05l-0.09,0.38
	L30.39,76.12z M30.35,23.17c0-0.43,0.19-0.61,0.38-0.61c0.19,0,0.24,0.19,0.24,1.09c0,0.71,0,1.42-0.14,2.18
	c-0.24,0-0.56-0.38-0.56-0.9C30.3,24.54,30.35,23.93,30.35,23.17z M30.58,35.05c0.24,0.05,0.47-0.09,0.47-0.38
	c0-0.28-0.09-0.57-0.42-0.61c-0.24-0.05-0.42,0.14-0.42,0.47C30.21,34.76,30.3,35,30.58,35.05z M32.04,26.48
	c-0.24,1.47-0.89,3.69-1.74,4.97c-0.14-0.05-0.19-0.24-0.19-0.38c0-0.28,0.14-0.66,0.28-1.23c0.28-1.09,0.8-2.6,0.89-4.35
	C31.38,26.25,31.76,26.44,32.04,26.48z M30.86,26.25c-0.14,0.62-0.24,1.47-0.47,1.99c-0.24,0-0.42-0.38-0.42-0.8
	s0.24-1.47,0.28-2.08C30.25,26.01,30.63,26.25,30.86,26.25z M31.48,77.01l-0.8-0.19v-0.38l-0.33-0.05l-0.14,0.38l-0.33-0.05
	l0.61-1.8c0.24,0.05,0.71,0.14,0.99,0.24v0.28l-0.47-0.14v0.47l0.42,0.05v0.28l-0.42-0.09v0.57l0.47,0.09V77.01z M30.02,54.87
	c-0.47-0.33-0.42-0.8-0.19-1.14l0.8-1.75h0.09l-0.61,1.7c0.05,0.28,0.28,0.66,0.05,0.99c0.42-0.28,0.8,0.14,1.27,0.14
	C31.05,55.2,30.63,55.3,30.02,54.87z M29.45,74.7l0.28,0.05v1.94l-0.28-0.05V74.7z M30.44,33.72c0.85,0,2.73,1.04,4.47,1.04
	c1.04,0,1.55-0.14,2.12-0.57c-0.14,1.85-0.89,2.32-2.31,2.32c-1.88,0-4.52-1.32-5.41-1.32C29.41,34.15,29.69,33.72,30.44,33.72z
	 M29.22,55.53c-0.47-0.52-0.47-1.04,0-1.51c0,0.43,0.61,0.9,0.24,1.28c0.38-0.38,0.85,0.28,1.22,0.28
	C30.3,56.01,29.83,56.2,29.22,55.53z M28.89,36.04c-0.14,0-0.33-0.05-0.56-0.61c0.19,0.14,0.14,0.05,0.47,0.28
	c-0.19-0.19-0.28-0.28-0.42-0.52c0.47,0.24,0.71,0.47,0.71,0.71C29.08,35.95,29.03,36.04,28.89,36.04z M30.02,33.3l-0.24-0.38
	l-0.56-0.66l-0.52,0.19l-0.28,0.28h-0.14l0.14-0.47l0.8-0.47l-0.28-1.32c0.05,0.05,0.14,0.05,0.28,0.05s0.19,0,0.24-0.05l0.14,1.32
	l1.27,0.47l0.19,0.38h-0.14l-0.14-0.19l-0.61-0.19l0.47,0.43l0.05,0.43h-0.14l-0.19-0.28l-0.66-0.52l0.38,0.62l0.05,0.43h-0.09V33.3
	z M29.36,29.37v0.43c0,0.24-0.05,0.43-0.19,0.43c-0.19,0-0.38-0.24-0.42-0.71c-0.05,0.38-0.28,0.66-0.52,0.71
	c0-0.8,0.05-1.23,0.28-1.37c0.14,0.28,0.38,0.38,0.56,0.38c0.24,0,0.42-0.19,0.42-0.43c0.24,0.19,0.42,0.47,0.56,1.04
	C29.78,29.89,29.41,29.61,29.36,29.37z M29.22,28v0.38c0,0.28-0.05,0.43-0.24,0.43c-0.14,0-0.28-0.19-0.42-0.62
	c0,0.28-0.19,0.62-0.47,0.62v-0.38c0-0.9,0.19-1.14,0.85-1.14c0.47,0,0.71,0.24,0.99,1.14C29.69,28.42,29.45,28.42,29.22,28z
	 M27.95,72.38c3.25-1.66,7.43-2.41,10.54-4.16c3.34-1.89,6.12-5.82,6.26-14.1c-1.51-0.14-2.07-0.8-2.16-1.7h-9.98
	c0.05,0.28,0.09,0.62,0.09,1.04c0,2.37-0.71,4.02-4.8,5.39v13.53H27.95z M28.42,36.7c-0.19,0-0.47-0.14-0.52-0.99
	c0.14,0.19,0.24,0.28,0.42,0.62c-0.14-0.38-0.19-0.47-0.28-0.85c0.42,0.43,0.61,0.71,0.61,0.99C28.65,36.61,28.56,36.7,28.42,36.7z
	 M45.55,37.46c-0.75,0.14-1.51-0.09-2.02-0.62c-0.47-0.47-0.71-1.18-0.61-1.94l-0.75-0.38c-2.12,1.94-4.52,3.17-7.25,3.17
	c-1.65,0-3.39-0.38-4.94-1.14L27.9,39.5v7.52c0.85,0.61,2.16,0.99,3.34,0.99c0.28,0,0.52-0.05,0.8-0.05l0.71,0.9
	c-0.24,0.62-0.28,1.23-0.28,1.8c0,0.47,0.05,0.9,0.14,1.32h10.07c0.05-0.99,0.8-1.56,2.07-1.7c0-1.56-0.71-4.45-0.71-6.39
	c0-1.51,0.56-3.64,1.93-5.63L45.55,37.46z M28.32,75.64l-0.14-0.62h-0.05l0.05,0.85v0.62H27.9v-1.99l0.38,0.05l0.24,0.8l0.05,0.47
	h0.05l0.05-0.47l0.24-0.71l0.38,0.05v1.99l-0.28-0.05v-0.61l0.05-0.85h-0.05l-0.14,0.52l-0.14,0.47h-0.24L28.32,75.64z M27.57,17.21
	c0.14,0,0.24-0.05,0.24-0.19c0-0.14-0.09-0.19-0.24-0.19s-0.24,0.05-0.24,0.19C27.34,17.16,27.48,17.21,27.57,17.21z M27.48,34.2
	v0.33h0.28V34.2l0.24-0.61h-0.19l-0.14,0.47l-0.14-0.47h-0.28L27.48,34.2z M27.62,50.14c-0.19,0-0.47-0.24-0.47-0.47
	c0-0.28,0.14-0.47,0.33-0.9l0.05-1.14h0.14l0.05,1.14c0.19,0.43,0.33,0.62,0.33,0.9C28.09,49.9,27.85,50.14,27.62,50.14z
	 M27.57,37.75c-0.24,0-0.42-0.09-0.42-0.52c0-0.28,0.05-0.57,0.24-1.14c0.05,0.24,0.19,0.47,0.19,0.85c0-0.38,0.14-0.61,0.19-0.85
	c0.19,0.52,0.24,0.8,0.24,1.14C27.99,37.6,27.85,37.75,27.57,37.75z M26.87,76.59V74.6l0.71-0.05v0.28l-0.42,0.05v0.52l0.38-0.05
	v0.28h-0.38v0.62l0.42-0.05v0.28L26.87,76.59z M28.51,81.51c0-0.66-0.42-1.23-0.89-1.66c-0.47,0.43-0.89,0.95-0.89,1.66
	c0,0.71,0.47,1.04,0.89,1.04C27.99,82.5,28.51,82.22,28.51,81.51z M26.54,36.42c0-0.24,0.19-0.52,0.61-0.99
	c-0.14,0.38-0.19,0.47-0.28,0.85c0.19-0.28,0.28-0.43,0.42-0.62c-0.05,0.85-0.33,0.99-0.52,0.99C26.63,36.7,26.54,36.61,26.54,36.42
	z M28.61,35.05c-0.28-0.05-0.71-0.14-1.04-0.14c-0.24,0-0.66,0.05-0.99,0.14c-0.14-0.38-0.28-0.9-0.28-1.28
	c0-0.47,0.38-0.66,1.27-0.66c0.99,0,1.32,0.19,1.32,0.66C28.94,34.15,28.75,34.67,28.61,35.05z M26.11,35.9
	c0-0.24,0.24-0.47,0.71-0.71c-0.14,0.24-0.24,0.38-0.42,0.52c0.38-0.24,0.28-0.19,0.47-0.28c-0.24,0.52-0.47,0.61-0.56,0.61
	C26.16,36.04,26.11,35.95,26.11,35.9z M27.62,51.04c-0.61,0-0.99-0.43-1.13-0.85l-0.47-1.42h0.09L26.63,50
	c0.42,0.19,0.99,0.38,0.99,0.8c0-0.43,0.56-0.61,0.94-0.8l0.56-1.23h0.09l-0.47,1.42C28.51,50.66,28.18,51.04,27.62,51.04z
	 M26.35,75.64c0-0.47-0.19-0.71-0.42-0.66v1.32C26.16,76.35,26.35,76.02,26.35,75.64z M28.23,18.96c0,0.28,0.09,0.52,0.09,0.57
	c0,0.24-0.38,0.43-0.71,0.43c-0.24,0-0.61-0.19-0.61-0.38s0.24-0.62,0.24-0.99c0-0.05,0-0.14-0.05-0.24
	c0.14,0.09,0.28,0.14,0.42,0.14s0.38-0.05,0.42-0.19c-0.71,0.19-0.99-0.24-1.04-0.57c-0.28,0.14-0.56,0.05-0.61-0.19
	c-0.14,0.05-0.28,0.09-0.38,0.19c-0.14-0.52,0.05-0.61,0.71-0.71c-0.09-0.09-0.14-0.24-0.14-0.28c0-0.28,0.33-0.47,1.08-0.47
	c0.33,0,0.56,0.14,0.47,0.28c0,0.14-0.05,0.14-0.05,0.19c0.38,0.14,0.52,0.47,0.52,0.8C28.51,18.11,28.23,18.21,28.23,18.96z
	 M27.57,26.01c0.28,0,0.61-0.43,0.61-0.9c0.14,0.47,0.24,0.71,0.47,0.71s0.42-0.43,0.42-0.99c0.38,0.57,0.47,1.09,0.47,1.47
	c0,0.43-0.14,0.52-0.24,0.52c-0.19,0-0.42-0.24-0.47-0.8c0,0.66-0.19,0.99-0.42,0.99c-0.14,0-0.28-0.24-0.42-0.66
	c0,0.57-0.19,0.9-0.42,0.9c-0.19,0-0.38-0.38-0.38-0.9c-0.14,0.43-0.28,0.66-0.42,0.66c-0.24,0-0.42-0.28-0.42-0.99
	c-0.05,0.52-0.28,0.8-0.47,0.8c-0.14,0-0.24-0.14-0.24-0.52s0.14-0.9,0.47-1.47c0,0.57,0.19,0.99,0.42,0.99
	c0.24,0,0.38-0.24,0.47-0.71C27.05,25.59,27.34,26.01,27.57,26.01z M25.59,74.74l0.24-0.05c0.47-0.05,0.8,0.19,0.8,0.9
	c0,0.71-0.38,0.99-0.8,1.04l-0.24,0.05V74.74z M27.62,52.03c-0.61,0-1.18-0.38-1.32-0.85l-0.85-1.47h0.14l0.85,1.28
	c0.42,0.19,1.08,0.38,1.18,0.71c0.14-0.38,0.75-0.57,1.18-0.71l0.8-1.28h0.14l-0.8,1.47C28.75,51.65,28.18,52.03,27.62,52.03z
	 M27.57,24.21c0.38,0,0.61-0.38,0.61-0.85c0.14,0.47,0.38,0.66,0.52,0.66c0.24,0,0.47-0.43,0.47-0.9c0.05,0.43,0.28,0.8,0.61,0.8
	c0,0.66-0.14,1.04-0.42,1.04c-0.19,0-0.24-0.28-0.38-0.8c0,0.47-0.24,0.99-0.47,0.99c-0.19,0-0.28-0.19-0.42-0.71
	c-0.05,0.57-0.28,0.99-0.56,0.99c-0.19,0-0.47-0.43-0.47-0.99c-0.14,0.57-0.24,0.71-0.42,0.71c-0.24,0-0.47-0.47-0.47-0.99
	c-0.14,0.47-0.19,0.8-0.38,0.8c-0.28,0-0.42-0.38-0.42-1.04c0.24,0,0.56-0.38,0.61-0.8c0,0.47,0.24,0.9,0.47,0.9
	c0.19,0,0.42-0.19,0.56-0.66C27.05,23.84,27.29,24.21,27.57,24.21z M26.35,27.29c0.66,0,0.85,0.24,0.85,1.14v0.38
	c-0.28,0-0.47-0.28-0.56-0.62c-0.05,0.43-0.24,0.62-0.38,0.62c-0.19,0-0.24-0.14-0.24-0.43V28c-0.24,0.43-0.47,0.43-0.66,0.43
	C25.59,27.53,25.83,27.29,26.35,27.29z M27.62,52.98c-0.71,0-1.22-0.43-1.36-0.99l-1.08-1.56h0.14l1.22,1.56
	c0.42,0.19,1.04,0.38,1.13,0.66c0.14-0.28,0.71-0.47,1.13-0.66l1.22-1.56h0.14l-1.08,1.66C28.84,52.55,28.28,52.98,27.62,52.98z
	 M25.83,28.71c0,0.24,0.14,0.47,0.38,0.47c0.19,0,0.38-0.19,0.47-0.43c0.24,0.24,0.38,0.66,0.38,1.47
	c-0.28-0.05-0.56-0.38-0.56-0.71c-0.05,0.47-0.24,0.71-0.42,0.71c-0.14,0-0.19-0.19-0.19-0.43v-0.43c-0.05,0.24-0.42,0.57-0.71,0.43
	C25.36,29.23,25.59,28.8,25.83,28.71z M26.16,57.38l1.22-0.9l-0.47-0.38c-0.42,0.43-0.85,0.52-1.32,0.19
	c0.38-0.14,0.71-0.8,1.13-0.43c-0.38-0.43,0.14-0.9,0.05-1.32c0.42,0.24,0.61,0.99,0.24,1.32l0.47,0.38v-1.99
	c-0.61-0.05-1.27-0.47-1.36-1.14l-1.27-1.89h0.14l1.36,1.75c0.47,0.19,1.32,0.38,1.32,0.8c0-0.43,0.8-0.61,1.32-0.8l1.36-1.75h0.14
	l-1.27,1.89c-0.14,0.66-0.8,1.09-1.41,1.14v1.99l0.47-0.38c-0.38-0.38-0.19-1.09,0.24-1.32c-0.05,0.43,0.42,0.9,0.05,1.32
	c0.42-0.38,0.71,0.28,1.13,0.43c-0.47,0.38-0.89,0.24-1.32-0.19l-0.47,0.38l1.27,0.9l-0.38,0.14l-1.04-0.71v1.09l-0.14,0.05
	l-0.14-0.05v-1.09l-0.99,0.71L26.16,57.38z M24.94,76.02l-0.14-0.9h-0.05l-0.05,0.95L24.94,76.02z M24.89,34.48
	c0,0.28-0.05,0.33-0.19,0.38v-0.71C24.79,34.2,24.89,34.2,24.89,34.48z M26.02,55.49c-0.61,0.66-1.08,0.52-1.46,0.05
	c0.38,0,0.85-0.62,1.22-0.28c-0.38-0.28,0.24-0.85,0.24-1.23C26.49,54.45,26.49,54.92,26.02,55.49z M24.7,35.05
	c0.33-0.14,0.47-0.28,0.47-0.62c0-0.28-0.19-0.43-0.47-0.38l-0.28,0.05v0.99L24.7,35.05z M24.37,26.25c0.24,0,0.56-0.24,0.61-0.85
	c0.05,0.61,0.28,1.66,0.28,2.08c0,0.43-0.19,0.8-0.42,0.8C24.65,27.71,24.51,26.86,24.37,26.25z M24.28,76.92l0.24-1.99l0.56-0.14
	l0.38,1.89l-0.38,0.05l-0.05-0.43L24.7,76.4l-0.05,0.43L24.28,76.92z M25.12,33.3l0.05-0.43l0.38-0.62l-0.66,0.52l-0.19,0.28h-0.14
	l0.05-0.43l0.47-0.43l-0.61,0.19l-0.14,0.19h-0.19l0.24-0.38l1.22-0.47l0.19-1.32c0.05,0.05,0.14,0.05,0.24,0.05
	c0.19,0,0.24,0,0.28-0.05l-0.28,1.32l0.8,0.47l0.14,0.47h-0.09l-0.28-0.28l-0.56-0.19l-0.52,0.66l-0.24,0.38h-0.14V33.3z
	 M24.89,23.17c0,0.8,0.05,1.37,0.05,1.75c0,0.52-0.28,0.9-0.56,0.9c-0.14-0.8-0.19-1.47-0.19-2.18c0-0.9,0.14-1.09,0.28-1.09
	C24.7,22.56,24.89,22.75,24.89,23.17z M23.95,34.43l0.09,0.47l-0.14,0.05L23.95,34.43z M25.17,54.87c-0.56,0.43-0.99,0.28-1.41-0.19
	c0.42,0,0.85-0.43,1.27-0.05c-0.28-0.28,0-0.66,0.05-0.99l-0.56-1.75h0.09l0.8,1.75C25.64,54.07,25.74,54.49,25.17,54.87z
	 M24.47,54.21c-0.38,0.14-0.8-0.19-0.8-0.71c0-0.24,0.05-0.47,0.14-2.7h0.09v2.08c0.42,0.19,0.85,0.52,0.85,0.99
	C24.75,54.02,24.65,54.12,24.47,54.21z M23.81,34.29l-0.19,1.14l0.24-0.09l0.05-0.19l0.24-0.09l0.05,0.14l0.28-0.09l-0.24-0.95
	L23.81,34.29z M25.64,78.62c0.8,0,1.32,0.24,1.93,0.61c0.61-0.38,1.22-0.61,1.98-0.61c1.46,0,2.35,0.71,2.35,1.7
	c0,0.8-0.66,1.28-1.32,1.28c-0.52,0-0.94-0.24-0.94-0.71c0-0.28,0.19-0.57,0.52-0.57c0.38,0,0.66,0.43,0.42,0.85
	c0.47,0,0.85-0.38,0.85-0.9c0-0.76-0.71-1.23-1.74-1.23c-0.71,0-1.46,0.24-1.74,0.47c0.61,0.61,1.04,1.23,1.04,1.94
	c0,0.95-0.71,1.51-1.36,1.51s-1.36-0.57-1.36-1.51c0-0.71,0.42-1.32,1.04-1.94c-0.28-0.24-0.99-0.47-1.69-0.47
	c-1.08,0-1.79,0.47-1.79,1.23c0,0.52,0.38,0.9,0.85,0.9c-0.24-0.43,0.05-0.85,0.42-0.85c0.38,0,0.52,0.24,0.52,0.57
	c0,0.47-0.42,0.71-0.94,0.71c-0.66,0-1.32-0.47-1.32-1.28C23.24,79.38,24.14,78.62,25.64,78.62z M24.14,76.97
	c-0.42,0.19-0.89,0.05-0.89-0.9c0-0.66,0.38-1.09,0.85-1.04v0.28c-0.38,0-0.52,0.24-0.52,0.71c0,0.57,0.28,0.71,0.56,0.61V76.97z
	 M23.19,26.48c0.28-0.05,0.66-0.24,0.71-0.95c0.14,1.75,0.61,3.26,0.89,4.35c0.19,0.52,0.28,0.9,0.28,1.23
	c0,0.14-0.05,0.28-0.19,0.38C24.09,30.22,23.43,27.95,23.19,26.48z M23.62,21.09c0.14,0,0.24,0.19,0.24,0.61
	c0,0.52-0.19,1.14-0.71,1.14C23.29,21.33,23.43,21.09,23.62,21.09z M23.05,23.36c0.38,0,0.66-0.28,0.8-0.85
	c-0.05,0.47-0.05,0.85-0.05,1.23c0,0.52,0.05,1.04,0.05,1.32c0,0.52-0.38,0.9-0.71,0.9c-0.05-0.62-0.05-1.09-0.05-1.56v-1.04H23.05z
	 M23.95,48.44c-0.19,0-0.33-0.05-0.52-0.05l-0.38,0.47c0.14,0.52,0.24,1.04,0.24,1.7c0,0.85-0.24,1.99-0.24,2.74
	c0,2.22,0.56,3.69,4.56,5.06c4.05-1.32,4.56-2.79,4.56-5.06c0-0.71-0.24-1.89-0.24-2.74c0-0.66,0.14-1.14,0.24-1.7l-0.38-0.47
	c-0.19,0.05-0.33,0.05-0.52,0.05c-1.27,0-2.54-0.24-3.67-1.04C26.49,48.2,25.22,48.44,23.95,48.44z M22.96,34.76l0.19-0.09v0.85
	l0.28-0.09v-0.85l0.19-0.05v-0.24l-0.71,0.24v0.24H22.96z M22.63,35c0,0.14-0.05,0.19-0.14,0.19v-0.33
	C22.63,34.81,22.63,34.91,22.63,35z M22.44,76.68l0.24-0.05l-0.05-0.57l-0.05-0.38l-0.05,0.05l-0.05,0.38L22.44,76.68z M23.05,35.57
	l-0.24-0.38c0.09-0.05,0.14-0.14,0.14-0.24c0-0.19-0.14-0.33-0.38-0.28l-0.33,0.09v1.04l0.28-0.09v-0.38l0.19,0.33L23.05,35.57z
	 M22.02,26.91c0.38-0.05,0.61-0.38,0.66-1.09c0.19,1.75,0.8,3.5,1.22,4.68c0.19,0.47,0.24,0.85,0.24,1.14
	c0,0.19-0.05,0.28-0.19,0.43C23.05,30.79,22.3,28.38,22.02,26.91z M21.97,77.53l0.33-2.03l0.52-0.14l0.28,1.85l-0.28,0.09
	l-0.05-0.38l-0.33,0.09l-0.05,0.38L21.97,77.53z M22.77,22.37c-0.14,0.71-0.28,0.99-0.8,0.99c0.14-1.56,0.42-2.41,0.99-3.22
	c0.14-0.19,0.28-0.38,0.47-0.38c0.05,0,0.19,0.05,0.19,0.19c0,0.14-0.05,0.19-0.14,0.28C23.05,20.81,22.87,21.71,22.77,22.37z
	 M21.92,23.84c0.28,0,0.61-0.19,0.8-0.99c-0.05,0.57-0.14,0.99-0.14,1.28c0,0.43,0.05,0.99,0.05,1.28c0,0.47-0.05,0.95-0.61,1.09
	c-0.14-0.66-0.19-1.28-0.19-1.89C21.88,24.31,21.88,24.07,21.92,23.84z M22.91,46.45l-1.27-4.35v4.35H22.91z M21.5,35.95l0.61-0.14
	v-0.19l-0.28,0.05v-0.28l0.28-0.05v-0.19l-0.28,0.05v-0.24l0.28-0.05v-0.05L21.55,35v0.95H21.5z M20.94,76.83
	c0-0.14,0.09-0.24,0.24-0.24c0.14,0,0.24,0.09,0.24,0.24c0,0.14-0.09,0.24-0.24,0.24C21.03,77.06,20.94,76.97,20.94,76.83z
	 M21.08,35.81c0,0.14-0.05,0.19-0.14,0.19v-0.38C21.03,35.62,21.08,35.66,21.08,35.81z M21.08,35.33c0,0.09-0.05,0.14-0.14,0.14
	v-0.28C21.03,35.19,21.08,35.24,21.08,35.33z M20.89,27.05c0.38,0,0.66-0.28,0.66-1.04c0.28,2.74,1.04,4.26,1.41,5.3
	c0.19,0.52,0.28,0.99,0.28,1.28c0,0.19-0.05,0.28-0.24,0.38C22.11,31.45,21.17,29.23,20.89,27.05z M20.7,23.88
	c0.28,0,0.61-0.19,0.8-0.9c-0.05,0.47-0.05,0.9-0.05,1.32v1.23c0,0.43-0.05,0.95-0.61,1.04C20.7,25.59,20.7,24.69,20.7,23.88z
	 M21.6,22.37c-0.09,0.71-0.42,1.04-0.89,1.04c0.05-1.09,0.38-2.13,0.66-2.79c0.42-0.9,1.13-1.47,1.51-1.47
	c0.14,0,0.24,0.05,0.24,0.19s-0.19,0.19-0.42,0.43C22.21,20.24,21.78,21.14,21.6,22.37z M20.61,35.1v0.99l0.38-0.05
	c0.24-0.05,0.38-0.14,0.38-0.33s-0.14-0.19-0.24-0.19c0.14,0,0.24-0.14,0.24-0.24c0-0.19-0.14-0.24-0.38-0.24L20.61,35.1z
	 M20.14,36.04h0.28v-0.99h-0.28V36.04z M20.04,29.42c0.28-0.14,0.56-0.43,0.56-1.28c0.38,1.66,0.71,2.74,1.13,3.78
	c0.28,0.8,0.61,1.28,0.61,1.51c0,0.19-0.05,0.24-0.19,0.28C21.27,32.64,20.51,30.98,20.04,29.42z M20,46.45h1.27V42.1L20,46.45z
	 M19.62,77.96c0.24,0.05,0.47,0,0.47-0.19c0-0.38-0.52-0.43-0.52-0.99c0-0.38,0.33-0.62,0.75-0.52l0.05,0.33
	c-0.24-0.05-0.47-0.05-0.47,0.24c0,0.28,0.56,0.38,0.56,0.95c0,0.43-0.42,0.66-0.8,0.57L19.62,77.96z M32.13,18.11
	c1.51,0,3.39,1.47,3.62,5.44c-0.56,0-0.71-0.43-0.8-1.09c-0.38-2.55-1.69-3.79-2.63-3.79c-1.88,0-0.38,2.98-2.31,3.41
	c0,0.47-0.14,1.09-0.38,1.09c-0.28,0-0.42-0.52-0.56-0.99c0,0.66-0.19,1.23-0.42,1.23c-0.19,0-0.38-0.52-0.47-1.04
	c0,0.62-0.28,1.23-0.61,1.23c-0.24,0-0.52-0.62-0.52-1.23c-0.14,0.47-0.28,1.04-0.47,1.04c-0.24,0-0.42-0.52-0.42-1.23
	c-0.14,0.43-0.24,0.99-0.52,0.99c-0.24,0-0.38-0.61-0.38-1.09c-1.93-0.43-0.42-3.41-2.31-3.41c-0.99,0-2.31,1.23-2.68,3.79
	c-0.05,0.66-0.24,1.09-0.8,1.09c0.24-4.02,2.12-5.44,3.62-5.44c2.21,0,1.08,2.79,2.12,2.79c0.42,0,0.8-0.47,1.13-1.09
	c-0.05,0.14-0.05,0.24-0.05,0.38c0,0.47,0.47,0.8,1.27,0.8c0.85,0,1.32-0.28,1.32-0.8c0-0.14,0-0.24-0.05-0.38
	c0.38,0.61,0.66,1.09,1.13,1.09C30.96,20.9,29.88,18.11,32.13,18.11z M19.48,35.05v0.9c0.14,0.05,0.38,0.14,0.52,0.14V35.9h-0.24
	v-0.8L19.48,35.05z M19.43,24.12c0.28,0,0.66-0.19,0.85-0.95c-0.05,0.47-0.05,0.95-0.05,1.37c0,1.23,0.14,2.22,0.19,2.65
	c0.05,0.19,0.05,0.43,0.05,0.62c0,0.66-0.24,0.99-0.56,1.09c-0.38-1.28-0.56-2.79-0.56-3.93C19.38,24.69,19.38,24.36,19.43,24.12z
	 M18.77,78.06l0.28-0.14l-0.14-0.47l-0.05-0.47l-0.05,0.05v0.47L18.77,78.06z M18.35,78.95l0.24-2.13l0.47-0.19l0.42,1.8l-0.28,0.14
	l-0.05-0.38l-0.38,0.14l-0.05,0.43L18.35,78.95z M18.77,29.89c-0.19-0.05-0.42-0.28-0.42-0.66s0.24-0.8,0.52-1.09
	c0,0.47,0.24,0.8,0.24,1.14C19.15,29.61,18.91,29.84,18.77,29.89z M24.79,33.68c0.71,0,1.04,0.43,1.13,1.47
	c-0.89,0-3.58,1.37-5.41,1.37c-1.36,0-2.16-0.47-2.31-2.32c0.56,0.43,1.36,0.57,2.12,0.57C22.02,34.76,23.95,33.68,24.79,33.68z
	 M20.75,32.87c0,0.8-0.85,1.28-1.55,1.28c-0.52,0-0.89-0.28-1.04-0.85c0.09,0.09,0.28,0.05,0.89,0.05c0.24,0,0.56,0,0.66,0.28v-0.19
	c0-0.62,0.85-0.8,0.89-1.14C20.7,32.49,20.75,32.68,20.75,32.87z M18.77,30.88c-0.47,0-0.85-0.38-0.85-0.71c0-0.14,0-0.19,0.05-0.28
	c0.24,0.28,0.8,0.19,0.85,0.8c-0.05-0.61,0.66-0.71,0.8-0.85C19.67,30.36,19.34,30.88,18.77,30.88z M20.23,31.93
	c0,0.66-0.61,1.04-1.41,1.04c-0.61,0-0.94-0.24-1.04-0.99c0.38,0.38,1.22,0.14,1.32,0.66c0-0.61,0.85-0.66,1.04-1.04
	C20.23,31.64,20.23,31.78,20.23,31.93z M19.85,30.93c0,0.52-0.42,0.99-1.08,0.99c-0.56,0-0.89-0.38-0.99-0.99
	c0.28,0.24,0.99,0.05,1.08,0.52c0.05-0.47,0.66-0.47,0.89-0.85C19.85,30.74,19.85,30.79,19.85,30.93z M17.55,77.25l0.28-0.14v1.7
	l0.38-0.19v0.33l-0.66,0.28V77.25z M16.56,77.68v1.47c0,0.14,0.05,0.19,0.14,0.19c0.14,0,0.24-0.14,0.24-0.38v-1.47l0.38-0.14v1.42
	c0,0.61-0.38,0.9-0.66,0.9c-0.24,0-0.38-0.19-0.38-0.43v-1.47L16.56,77.68z M16.09,42.15v4.35h1.27L16.09,42.15z M15.71,79.29
	l-0.05-0.43l-0.05-0.47l-0.05,0.05l-0.14,0.99L15.71,79.29z M22.39,63.29c-0.19,0.14-0.47,0.24-0.94,0.24
	c-0.94,0-1.51-0.52-1.51-1.75c0-1.14,0-1.47,0.14-3.6h-1.88c0,1.14,0.05,2.08-0.14,3.08c-0.14,0.99-0.52,1.66-1.36,2.41L16,62.92
	c0.61-0.47,1.04-0.76,1.18-1.75c0.14-0.95,0.14-1.89,0.14-2.98c-1.04,0-1.36,0.47-1.36,1.37l-0.94-0.24
	c0.19-1.51,0.99-1.99,2.4-1.99h4.89v0.85h-1.36c-0.09,2.22-0.09,2.46-0.09,3.31c0,0.9,0.38,1.09,0.89,1.09
	c0.28,0,0.47-0.05,0.66-0.14V63.29z M14.96,80.37l0.28-2.08l0.52-0.24l0.28,1.89l-0.28,0.14l-0.05-0.43l-0.38,0.14l-0.05,0.47
	L14.96,80.37z M15.71,46.45V42.1l-1.22,4.35H15.71z M14.07,79.66c0-0.14,0.09-0.24,0.24-0.24s0.24,0.09,0.24,0.24
	c0,0.14-0.09,0.24-0.24,0.24S14.07,79.81,14.07,79.66z M18.68,41.86c-0.38,0-0.66-0.28-0.71-0.52c-0.66,0-1.32,0.14-1.74,0.24
	l1.55,4.92h0.42c0,0.62-0.71,1.14-2.31,1.14c-1.51,0-2.16-0.57-2.16-1.14h0.38l1.46-4.73l-0.28,0.09l-0.24-0.62
	c0.99-0.28,1.88-0.47,2.92-0.52c0.14-0.28,0.42-0.47,0.71-0.47c0.28,0,0.61,0.19,0.71,0.47c1.04,0.05,1.98,0.24,2.92,0.52
	l-0.19,0.62l-0.28-0.09l1.46,4.73h0.38c0,0.62-0.66,1.14-2.16,1.14c-1.55,0-2.31-0.57-2.31-1.14h0.42l1.55-4.92
	c-0.38-0.09-1.04-0.24-1.74-0.24C19.34,41.58,19.05,41.86,18.68,41.86z M13.27,79.66c0-0.19-0.14-0.28-0.28-0.24v0.61
	C13.22,79.95,13.27,79.81,13.27,79.66z M12.7,81.18v-1.94l0.24-0.05c0.42-0.14,0.66,0.09,0.66,0.38c0,0.24-0.14,0.47-0.28,0.57
	l0.52,0.66l-0.38,0.14l-0.28-0.43l-0.05-0.24l-0.14,0.05v0.8L12.7,81.18z M13.5,32.49c-0.24-4.26,1.74-5.02,2.49-7.76
	c-0.47,2.84-2.21,3.64-1.98,7.71c3.06-5.11,3.06-7.85,2.78-9.65c0.8,1.8,0.42,4.92-2.31,9.98c0.99-0.19,1.74,0.14,2.07,0.85
	c-0.56-0.43-1.32-0.57-1.98-0.24c1.22,0.28,1.84,0.76,2.31,1.51c0.19-0.24,0.33-0.57,0.33-1.09c0-0.8-0.56-1.37-1.65-1.66
	c1.79-2.18,2.49-4.59,2.49-6.72c0-3.41-1.74-4.87-3.34-4.87c-1.27,0-2.07,0.76-2.07,1.85c0,0.8,0.56,1.37,1.27,1.37
	c0.42,0,0.85-0.05,1.08-0.28c-0.66,0.05-0.99-0.33-0.99-0.71c0-0.38,0.24-0.71,0.71-0.71s0.8,0.38,0.8,0.9
	c0,2.18-2.96,4.02-2.96,6.86C12.7,30.6,12.94,31.74,13.5,32.49z M17.69,33.87c0,0.71-0.42,1.47-0.85,1.85
	c-0.14-0.8-1.36-1.85-2.96-2.08c-1.08-0.85-1.65-2.41-1.65-3.78c0-2.6,1.88-3.83,2.78-5.87c-0.28,0.19-0.71,0.24-0.99,0.24
	c-0.94,0-1.74-0.71-1.74-1.75c0-1.28,1.04-2.27,2.54-2.27c1.79,0,3.76,1.56,3.76,5.3c0,1.89-0.52,4.54-2.31,6.58
	C17.22,32.26,17.69,33.06,17.69,33.87z M11.71,79.47c0.28-0.05,0.56-0.14,0.8-0.19v0.28l-0.42,0.05v0.52L12.47,80v0.28l-0.38,0.05
	v0.61c0.09-0.05,0.28-0.09,0.42-0.14v0.28c-0.19,0.05-0.56,0.14-0.8,0.19V79.47z M12.75,75.5c-0.66,0-1.41,0.38-1.79,0.9
	c0.61,0.38,1.46,0.85,2.16,0.85c0.47,0,0.75-0.28,0.75-0.8C13.88,75.83,13.41,75.5,12.75,75.5z M10.91,79.9l-0.28,0.05v-0.28
	c0.24,0,0.71-0.05,0.99-0.14v0.33c0,0-0.28,0.05-0.33,0.05v1.61l-0.38,0.05V79.9z M14.16,70.91c2.07,0,4.75,1.23,7.15,1.23
	c-2.07-0.62-4.89-2.22-6.96-2.22c-1.51,0-3.76,0.9-3.76,2.84c0,0.09,0.05,0.28,0.05,0.38c0.05-0.71,0.56-1.04,1.32-1.04
	c1.32,0,3.2,1.85,5.69,1.85c0.99,0,2.07-0.24,3.2-0.8c-2.07,0.05-4.33,0.19-6.73-1.14c1.13,0.47,2.96,0.71,4.23,0.71
	c0.38,0,2.16-0.05,2.49-0.09c-3.67-0.24-5.88-1.85-8.56-1.42C12.75,71.05,13.5,70.91,14.16,70.91z M22.54,53.41
	c0-0.38,0.05-0.76,0.09-1.04h-9.98c-0.05,0.9-0.61,1.56-2.16,1.7c0.19,8.33,2.96,12.21,6.26,14.1c3.15,1.75,7.29,2.51,10.54,4.16
	V58.8C23.19,57.43,22.54,55.77,22.54,53.41z M14.35,69.49c2.49,0,4.75,1.56,8.66,2.74c-1.74,1.47-3.58,2.18-5.32,2.18
	c-3.01,0-4.94-2.18-6.12-1.85c0.38,0.05,0.56,0.33,0.56,0.71c0,0.47-0.38,0.71-0.89,0.71c-0.61,0-1.13-0.47-1.13-1.23
	C10.11,71.05,11.95,69.49,14.35,69.49z M10.49,81.51l-0.28-0.05l-0.24-0.8l-0.14-0.52H9.78l0.14,0.71v0.57l-0.28-0.05v-1.75
	l0.28,0.05l0.24,0.71l0.14,0.52h0.05l-0.14-0.71v-0.52h0.28V81.51z M12.61,51.89h10.07c0.05-0.43,0.14-0.85,0.14-1.32
	c0-0.57-0.05-1.18-0.28-1.8l0.71-0.9c0.24,0.05,0.52,0.05,0.8,0.05c1.18,0,2.49-0.33,3.34-0.99v-7.48l-2.07-2.93
	c-1.55,0.8-3.29,1.14-4.94,1.14c-2.73,0-5.13-1.23-7.25-3.17l-0.75,0.38c0.09,0.76-0.14,1.47-0.61,1.94
	c-0.52,0.52-1.27,0.76-2.02,0.62l-0.38,0.71c1.36,1.99,1.93,4.12,1.93,5.63c0,1.94-0.71,4.78-0.71,6.39
	C11.81,50.33,12.56,50.9,12.61,51.89z M8.98,79.47l0.38,0.09v1.75c-0.19-0.05-0.28-0.09-0.38-0.14V79.47z M44.46,43.94
	c0,2.55,0.8,4.12,0.8,6.72c-1.65,0-2.12,0.47-2.12,1.47c0,0.99,0.66,1.51,2.16,1.51c-0.24,9.18-2.92,12.82-6.54,14.95
	c-3.2,1.75-7.2,2.41-11.15,4.54c-4-2.13-7.95-2.74-11.15-4.54c-3.62-2.13-6.26-5.77-6.49-14.95c1.55,0,2.16-0.52,2.16-1.51
	c0-0.99-0.47-1.47-2.12-1.47c0-2.6,0.8-4.16,0.8-6.72c0-1.47-0.42-3.6-1.98-5.68l0.66-1.28c0.71,0.24,1.46,0.05,1.98-0.43
	c0.42-0.43,0.61-1.14,0.38-1.89l1.32-0.71c2.16,2.08,4.61,3.26,7.2,3.26c1.27,0,3.15-0.24,5.08-1.32l2.21,3.08l2.21-3.08
	c1.93,1.09,3.81,1.32,5.08,1.32c2.59,0,5.03-1.23,7.2-3.26l1.32,0.71c-0.24,0.76-0.05,1.47,0.38,1.89c0.47,0.47,1.22,0.66,1.98,0.43
	l0.66,1.28C44.89,40.39,44.46,42.48,44.46,43.94z M8.04,77.16c0,0.76,1.13,1.18,2.21,1.18c0.94,0,2.31-0.28,3.29-0.71
	c-0.8,0.24-1.65-0.14-2.4-0.57c-0.71-0.38-1.32-0.71-1.93-0.71C8.47,76.35,8.04,76.78,8.04,77.16z M16.65,76.78
	c-2.54,1.14-4.52,1.99-6.35,1.99c-1.41,0-1.98-0.38-2.35-0.76v2.41c0,1.23,0.94,1.99,2.73,1.99c1.74,0,3.67-0.8,6.54-2.08
	c3.86-1.75,6.78-2.93,10.4-2.93c3.67,0,6.54,1.23,10.4,2.93c2.87,1.28,4.85,2.08,6.54,2.08c1.79,0,2.73-0.8,2.73-1.99v-2.41
	c-0.38,0.38-0.94,0.76-2.35,0.76c-1.84,0-3.81-0.85-6.35-1.99c-3.06-1.42-7.86-3.08-10.96-3.08C24.51,73.66,19.76,75.36,16.65,76.78
	z M17.41,80.75c-2.87,1.28-4.85,2.13-6.73,2.13c-2.12,0-3.2-0.99-3.2-2.51v-2.89c0-0.99,0.71-1.61,1.88-1.61
	c0.47,0,0.89,0.14,1.22,0.24c0.56-0.66,1.36-1.09,2.21-1.09c0.99,0,1.65,0.47,1.65,1.32c0,0.47-0.19,0.95-0.66,1.14
	c0.99-0.43,1.69-0.76,2.78-1.23c2.92-1.32,7.72-3.12,11.15-3.12s8.23,1.85,11.15,3.12c1.08,0.47,1.79,0.8,2.78,1.23
	c-0.47-0.24-0.66-0.66-0.66-1.14c0-0.85,0.66-1.32,1.65-1.32c0.85,0,1.65,0.43,2.21,1.09c0.28-0.14,0.71-0.24,1.22-0.24
	c1.18,0,1.88,0.62,1.88,1.61v2.89c0,1.51-1.08,2.51-3.2,2.51c-1.88,0-3.86-0.85-6.73-2.13c-3.67-1.66-6.59-2.93-10.26-2.93
	C23.95,77.87,21.08,79.14,17.41,80.75z M9.5,63.06c-1.36,1.89-2.21,4.54-2.49,6.48C6.82,67.32,7.62,65,8.98,62.92
	c-1.93,1.37-3.01,3.5-3.01,5.44c0,3.03,2.07,4.26,3.25,3.45c-0.8,0.24-1.46-0.28-1.46-1.28c0-1.23,1.22-2.22,1.22-5.58
	c-0.05,2.74,1.08,3.69,2.49,3.69c0.66,0,1.32-0.33,1.6-0.62c-1.51-0.57-2.4-2.18-2.92-5.02c-0.47,1.75,0.28,4.07,1.27,4.92
	C10.11,67.55,9.31,65.19,9.5,63.06z M7.9,43.04c-0.14-1.56-0.33-2.93-0.61-3.97c-0.24,0.85-0.28,2.22-0.28,2.84
	c0,1.37,0.19,3.03,0.47,5.35c-0.56-1.85-0.99-3.93-0.99-5.35c0-1.04,0.14-2.41,0.28-3.03c-0.85,1.04-1.22,2.37-1.22,3.79
	c0,2.22,1.27,4.31,1.22,6.53c1.74-1.51,2.59-3.41,2.59-5.54c0-1.51-0.61-2.79-1.69-4.59c0.24,0.9,0.56,2.98,0.61,3.97
	c0.05,0.9-0.05,2.18-0.19,2.74C8.04,44.84,8,43.9,7.9,43.04z M13.83,67.84c-0.38,0.85-1.41,1.32-2.4,1.32
	c-1.04,0-2.07-0.57-2.4-1.32c-0.19,1.04-0.85,2.08-0.85,2.7c0,0.19,0,0.33,0.14,0.47c0.05-0.24,0.28-0.52,0.8-0.52
	c0.42,0,0.85,0.38,0.85,0.85c0,0.66-0.56,1.23-1.46,1.23c-1.51,0-3.01-1.32-3.01-4.12c0-2.41,1.27-4.54,4.71-7
	C11.01,64,11.06,67.13,13.83,67.84z M7.9,37.93c0,1.47,1.98,2.65,1.98,5.77c0,2.79-1.65,5.35-3.76,6.43
	c0.14-0.28,0.19-0.66,0.19-0.99c0-2.13-1.22-4.26-1.22-6.48c0-2.18,0.94-4.21,2.82-5.11C7.9,37.65,7.9,37.79,7.9,37.93z M8.14,56.29
	c-1.69,1.8-2.92,4.02-3.43,7.24c0.05-3.5,1.36-5.72,3.06-7.57c-2.78,1.47-4,3.83-4,6.29c0,1.51,0.56,2.6,1.04,3.17
	c0.61-1.28,1.46-2.41,2.16-3.22c0.89-1.14,1.84-2.22,1.84-4.54c0-0.38,0-0.57-0.05-1.28c-0.52,2.32-1.65,4.45-2.96,5.96
	C6.68,60.36,7.67,58.56,8.14,56.29z M9.27,57.62c0,2.37-0.89,3.64-1.98,4.87c-0.8,0.9-1.69,1.89-2.31,3.69
	C4,65.66,3.24,64.15,3.24,62.25c0-2.51,1.04-4.12,2.12-5.16C6.63,55.87,8,55.44,8.66,54.3C9.03,55.11,9.27,56.62,9.27,57.62z
	 M8.84,35.76c-0.38-0.05-1.36-0.05-2.21,0.47c-1.32,0.85-2.49,1.66-3.29,0.62c0.89,0.66,1.74-0.14,3.15-1.04
	c0.71-0.47,1.79-0.47,2.35-0.47c-0.99-0.52-2.16-1.37-2.78-2.08c0.94,0.57,1.93,1.23,2.96,1.8c-0.66-0.99-1.98-2.22-3.58-3.22
	c1.36,0.38,2.96,1.85,3.91,2.98c-0.33-1.32-0.56-2.93-0.47-4.26c0.19,1.42,0.52,2.93,0.89,4.16c0.47-2.6,0.14-4.68-0.28-6.25
	c0.94,1.47,1.04,3.6,0.71,6.34c0.42-0.62,0.94-2.03,0.94-3.31c0-2.22-0.85-3.69-2.16-4.21c-0.09-0.05-0.24-0.09-0.33-0.09
	c0.05,0.19,0.09,0.47,0.09,0.71c0,1.14-0.85,1.85-0.85,3.6c0,0.47,0.05,0.9,0.14,1.28c-0.99-1.32-2.07-1.66-2.92-1.66
	c-0.28,0-0.52,0.05-0.8,0.09c-0.05,0.99,0.38,2.65,2.54,3.55c-1.93,0.28-1.93,1.51-2.82,1.51c-0.38,0-0.66-0.28-0.66-0.66
	c0-0.33,0.28-0.57,0.61-0.52c-0.19-0.05-0.28-0.05-0.38-0.05c-0.85,0-1.32,0.8-1.32,1.56c0,0.9,0.71,1.56,1.74,1.56
	C5.79,38.17,7.29,36.47,8.84,35.76z M3.43,50.33c0-0.47,0.28-0.85,0.75-0.85c0.24,0,0.33,0.05,0.47,0.14
	c-0.14-0.24-0.38-0.28-0.61-0.28c-0.99,0-1.84,1.04-1.84,2.46c0,1.7,1.27,2.98,2.96,2.98c2.16,0,3.34-1.7,3.58-3.83
	c-0.61,1.32-1.74,2.6-3.53,2.6c-1.04,0-1.84-0.71-2.16-1.7c0.47,0.85,1.13,1.23,2.16,1.23c1.41,0,2.73-1.23,3.15-2.7
	c-0.89,0.85-1.84,1.42-3.15,1.42C4.09,51.8,3.43,51.13,3.43,50.33z M1.93,36.56c0-1.28,0.99-1.94,1.79-1.94
	c0.71,0,1.08,0.38,1.08,0.9c0.28-0.28,0.61-0.62,1.13-0.8C4.61,34.01,3.76,32.45,4,30.93c0.14-0.05,0.52-0.19,1.27-0.19
	c0.71,0,1.65,0.28,2.21,0.76c0-1.89,0.89-2.37,0.89-3.79c0-0.33-0.05-0.71-0.14-1.04c1.6,0.05,3.43,1.7,3.43,4.78
	c0,1.51-0.61,3.26-1.55,4.35c-1.93,0-3.62,2.74-5.98,2.74C2.87,38.6,1.93,37.75,1.93,36.56z M9.13,50.52c0,3.17-1.93,4.73-4,4.73
	c-1.93,0-3.43-1.37-3.43-3.45c0-1.66,1.04-2.93,2.31-2.84C4.7,49.01,5.17,49.43,5.17,50c0,0.47-0.33,0.85-0.8,0.85
	c-0.24,0-0.38-0.05-0.42-0.14c0.19,0.52,0.94,0.62,1.22,0.62c1.46,0,2.96-0.99,3.76-2.7C9.08,49.19,9.13,49.81,9.13,50.52z"/>
</svg>
