<?xml version="1.0" encoding="utf-8"?>
<!-- Generator: Adobe Illustrator 26.0.3, SVG Export Plug-In . SVG Version: 6.00 Build 0)  -->
<svg version="1.1" id="Capa_1" xmlns="http://www.w3.org/2000/svg" xmlns:xlink="http://www.w3.org/1999/xlink" x="0px" y="0px"
	 viewBox="0 0 448 268" style="enable-background:new 0 0 448 268;" xml:space="preserve">
<style type="text/css">
	.st0{fill:#FFFFFF;}
	.st1{font-family:'MyriadPro-Semibold';}
	.st2{font-size:22px;}
	.st3{font-family:'MyriadPro-Regular';}
	.st4{font-size:18px;}
</style>
<text transform="matrix(1 0 0 1 57.3053 64.9543)"><tspan x="0" y="0" class="st0 st1 st2">Ministerio de Tecnologías de la </tspan><tspan x="0" y="26.4" class="st0 st1 st2">información y las Comunicaciones</tspan></text>
<text transform="matrix(1 0 0 1 57.3053 119.7806)" class="st0 st3 st4">Edificio Murillo Toro</text>
<text transform="matrix(1 0 0 1 57.3053 192.441)" class="st0 st1 st4">Teléfono Conmutador: +57 601 344 34 60</text>
<text transform="matrix(1 0 0 1 57.3054 216.3462)" class="st0 st1 st4">Línea Gratuita: 01-800-0914014</text>
<g>
	<g>
		<path class="st0" d="M66.32,140.35c-0.7,0.31-1.84,0.61-3.26,0.61c-2.88,0-4.91-1.64-4.91-4.72c0-2,0.89-3.81,2.39-4.95
			c1.18-0.94,2.67-1.5,4.46-1.5c1.44,0,2.44,0.37,2.76,0.63l-0.46,1.09c-0.46-0.29-1.37-0.54-2.54-0.54c-1.26,0-2.53,0.46-3.46,1.28
			c-1.03,0.88-1.68,2.29-1.68,3.86c0,1.98,1.04,3.69,3.77,3.69c0.94,0,1.99-0.18,2.71-0.55L66.32,140.35z"/>
		<path class="st0" d="M67.82,140.77l0.94-4.91c0.19-1,0.31-2.06,0.41-2.83h1.22c-0.08,0.58-0.15,1.17-0.25,1.76h0.05
			c0.52-1.1,1.39-1.95,2.52-1.95c0.14,0,0.32,0.01,0.44,0.03l-0.27,1.34c-0.11-0.02-0.25-0.03-0.43-0.03
			c-1.19,0-2.27,1.38-2.64,3.39l-0.6,3.2H67.82z"/>
		<path class="st0" d="M78.92,140.77c-0.01-0.48,0.08-1.31,0.19-2.18h-0.03c-0.86,1.71-2.06,2.37-3.32,2.37
			c-1.53,0-2.48-1.19-2.48-2.68c0-2.81,2.23-5.44,5.72-5.44c0.81,0,1.71,0.13,2.31,0.31l-0.75,3.9c-0.27,1.45-0.37,2.87-0.33,3.72
			H78.92z M79.74,134.06c-0.2-0.07-0.53-0.13-1.07-0.13c-2.1,0-3.95,1.83-3.95,4.14c0,0.83,0.34,1.77,1.52,1.77
			c1.22,0,2.68-1.42,3.09-3.65L79.74,134.06z"/>
		<path class="st0" d="M82.18,139.98c0-0.62,0.43-1.1,1.05-1.1c0.54,0,0.94,0.41,0.94,1c0,0.6-0.43,1.07-1.06,1.07
			C82.56,140.95,82.18,140.51,82.18,139.98z"/>
		<path class="st0" d="M96.57,132.62c0,1.18-0.84,2.08-2.09,2.62l0,0.05c1.21,0.58,1.64,1.56,1.64,2.43c0,2.15-2.03,3.23-3.9,3.23
			c-2.13,0-3.39-1.15-3.39-2.66c0-1.56,1.14-2.59,2.51-3.06l0-0.05c-0.85-0.55-1.17-1.26-1.17-2.01c0-1.76,1.63-3,3.55-3
			C95.29,130.17,96.57,131.04,96.57,132.62z M94.65,137.88c0-1.05-0.64-1.71-2.06-2.11c-1.16,0.23-2.32,0.96-2.32,2.36
			c0,0.88,0.67,1.77,2.03,1.77C93.59,139.9,94.65,139.13,94.65,137.88z M91.5,133.06c0,0.82,0.54,1.43,1.72,1.75
			c1.03-0.24,1.99-0.97,1.99-2.01c0-0.67-0.38-1.57-1.69-1.57C92.36,131.23,91.5,132.11,91.5,133.06z"/>
		<path class="st0" d="M103.05,140.77c-0.01-0.48,0.08-1.31,0.19-2.18h-0.03c-0.86,1.71-2.06,2.37-3.32,2.37
			c-1.53,0-2.48-1.19-2.48-2.68c0-2.81,2.23-5.44,5.72-5.44c0.81,0,1.71,0.13,2.31,0.31l-0.75,3.9c-0.27,1.45-0.37,2.87-0.33,3.72
			H103.05z M103.87,134.06c-0.2-0.07-0.53-0.13-1.07-0.13c-2.1,0-3.95,1.83-3.95,4.14c0,0.83,0.34,1.77,1.52,1.77
			c1.22,0,2.68-1.42,3.09-3.65L103.87,134.06z"/>
		<path class="st0" d="M115.64,140.3c-0.59,0.33-1.64,0.66-2.8,0.66c-2.2,0-3.21-1.45-3.21-3.24c0-2.41,1.92-4.88,4.5-4.88
			c1.59,0,2.5,0.88,2.5,2.06c0,2.09-2.5,2.53-5.61,2.46c-0.08,0.37,0,1.05,0.19,1.44c0.36,0.71,1.04,1.05,1.9,1.05
			c1.03,0,1.81-0.29,2.32-0.57L115.64,140.3z M113.94,133.88c-1.46,0-2.48,1.36-2.77,2.42c2.37,0.03,4.11-0.2,4.11-1.39
			C115.28,134.25,114.71,133.88,113.94,133.88z"/>
		<path class="st0" d="M117.47,140.77l1.06-5.62c0.16-0.77,0.26-1.47,0.35-2.12h1.25l-0.22,1.62h0.03c0.72-1.14,1.88-1.81,3.13-1.81
			c0.91,0,2.17,0.46,2.17,2.35c0,0.31-0.06,0.84-0.13,1.24l-0.83,4.34h-1.38l0.81-4.29c0.05-0.28,0.1-0.66,0.1-0.96
			c0-0.88-0.33-1.54-1.4-1.54c-1.03,0-2.53,1.14-2.91,3.21l-0.66,3.58H117.47z"/>
		<path class="st0" d="M130.31,130.93l-0.39,2.09h1.98l-0.22,1.09h-1.98l-0.67,3.54c-0.09,0.44-0.17,0.85-0.17,1.32
			c0,0.49,0.24,0.8,0.8,0.8c0.25,0,0.49-0.02,0.68-0.07l-0.05,1.09c-0.23,0.09-0.66,0.15-1.09,0.15c-1.29,0-1.74-0.79-1.74-1.59
			c0-0.5,0.07-0.98,0.18-1.52l0.72-3.73h-1.17l0.21-1.09h1.17l0.33-1.76L130.31,130.93z"/>
		<path class="st0" d="M132.17,140.77l0.94-4.91c0.19-1,0.31-2.06,0.41-2.83h1.22c-0.08,0.58-0.15,1.17-0.25,1.76h0.05
			c0.52-1.1,1.39-1.95,2.52-1.95c0.14,0,0.32,0.01,0.44,0.03l-0.27,1.34c-0.11-0.02-0.25-0.03-0.43-0.03
			c-1.19,0-2.27,1.38-2.64,3.39l-0.6,3.2H132.17z"/>
		<path class="st0" d="M143.65,140.3c-0.59,0.33-1.64,0.66-2.8,0.66c-2.2,0-3.21-1.45-3.21-3.24c0-2.41,1.92-4.88,4.5-4.88
			c1.59,0,2.5,0.88,2.5,2.06c0,2.09-2.5,2.53-5.61,2.46c-0.08,0.37,0,1.05,0.19,1.44c0.36,0.71,1.04,1.05,1.9,1.05
			c1.03,0,1.81-0.29,2.32-0.57L143.65,140.3z M141.95,133.88c-1.46,0-2.48,1.36-2.77,2.42c2.37,0.03,4.11-0.2,4.11-1.39
			C143.29,134.25,142.73,133.88,141.95,133.88z"/>
		<path class="st0" d="M154.46,140.4c-0.43,0.22-1.35,0.56-2.58,0.56c-2.14,0-3.27-1.38-3.27-3.07c0-2.77,2.18-5.05,5.04-5.05
			c0.85,0,1.63,0.26,1.89,0.42l-0.4,1.08c-0.36-0.18-0.87-0.36-1.56-0.36c-2.14,0-3.52,1.88-3.52,3.73c0,1.3,0.77,2.13,2.16,2.13
			c0.95,0,1.64-0.3,2.07-0.51L154.46,140.4z"/>
		<path class="st0" d="M161.7,140.77c-0.01-0.48,0.08-1.31,0.19-2.18h-0.03c-0.86,1.71-2.06,2.37-3.32,2.37
			c-1.53,0-2.48-1.19-2.48-2.68c0-2.81,2.23-5.44,5.72-5.44c0.81,0,1.71,0.13,2.31,0.31l-0.75,3.9c-0.27,1.45-0.37,2.87-0.33,3.72
			H161.7z M162.52,134.06c-0.2-0.07-0.53-0.13-1.07-0.13c-2.1,0-3.95,1.83-3.95,4.14c0,0.83,0.34,1.77,1.52,1.77
			c1.22,0,2.68-1.42,3.09-3.65L162.52,134.06z"/>
		<path class="st0" d="M165.18,140.77l2.19-11.46h1.38l-2.19,11.46H165.18z"/>
		<path class="st0" d="M169.1,140.77l2.19-11.46h1.38l-2.19,11.46H169.1z"/>
		<path class="st0" d="M179.04,140.3c-0.59,0.33-1.64,0.66-2.8,0.66c-2.2,0-3.21-1.45-3.21-3.24c0-2.41,1.92-4.88,4.5-4.88
			c1.59,0,2.5,0.88,2.5,2.06c0,2.09-2.5,2.53-5.61,2.46c-0.08,0.37,0,1.05,0.19,1.44c0.36,0.71,1.04,1.05,1.9,1.05
			c1.03,0,1.81-0.29,2.32-0.57L179.04,140.3z M177.35,133.88c-1.46,0-2.48,1.36-2.77,2.42c2.37,0.03,4.11-0.2,4.11-1.39
			C178.68,134.25,178.12,133.88,177.35,133.88z"/>
		<path class="st0" d="M180.95,139.37c0.41,0.24,1.16,0.52,1.82,0.52c0.93,0,1.54-0.58,1.54-1.25c0-0.57-0.25-0.94-1.17-1.4
			c-1.02-0.5-1.53-1.19-1.53-2c0-1.37,1.25-2.41,2.94-2.41c0.76,0,1.44,0.21,1.75,0.41l-0.39,1.04c-0.28-0.16-0.82-0.39-1.48-0.39
			c-0.81,0-1.43,0.5-1.43,1.15c0,0.56,0.38,0.9,1.18,1.31c0.95,0.47,1.56,1.13,1.56,2.03c0,1.61-1.4,2.57-3.1,2.57
			c-0.91,0-1.69-0.27-2.09-0.57L180.95,139.37z"/>
		<path class="st0" d="M194.69,131.75h-0.03l-1.77,0.87l-0.17-1.08l2.37-1.17h1.18l-1.98,10.4h-1.33L194.69,131.75z"/>
		<path class="st0" d="M198.28,140.77l0.18-0.92l1.72-1.31c3.22-2.58,4.67-3.92,4.67-5.58c0-0.69-0.41-1.61-1.72-1.61
			c-1.02,0-1.85,0.43-2.4,0.84l-0.39-0.99c0.84-0.63,2.04-1.02,3.05-1.02c2.08,0,2.9,1.36,2.9,2.62c0,2.13-1.91,3.88-4.7,6.02
			l-1.02,0.75v0.03h4.71l-0.22,1.17H198.28z"/>
		<path class="st0" d="M209.57,137.3l-1.85,3.46h-1.48l5.94-10.79h1.67l1.87,10.79h-1.44l-0.55-3.46H209.57z M213.59,136.2
			l-0.54-3.23c-0.08-0.5-0.19-1.25-0.26-1.82h-0.03c-0.29,0.58-0.54,1.16-0.88,1.79l-1.78,3.25H213.59z"/>
		<path class="st0" d="M221.82,133.03l0.94,4.11c0.22,0.95,0.35,1.56,0.44,2.08h0.04c0.21-0.44,0.43-0.96,0.87-1.87l2.11-4.31h1.49
			l-3.01,5.75c-0.87,1.66-1.65,2.99-2.71,4.08c-1,1.03-2.11,1.43-2.6,1.52l-0.28-1.19c0.33-0.1,0.94-0.31,1.5-0.75
			c0.54-0.41,1.11-1,1.58-1.82c0.07-0.12,0.06-0.2,0.03-0.33l-1.84-7.27H221.82z"/>
		<path class="st0" d="M235.17,131.75h-0.03l-1.77,0.87l-0.17-1.08l2.37-1.17h1.18l-1.98,10.4h-1.33L235.17,131.75z"/>
		<path class="st0" d="M238.76,140.77l0.18-0.92l1.72-1.31c3.22-2.58,4.67-3.92,4.67-5.58c0-0.69-0.41-1.61-1.72-1.61
			c-1.02,0-1.85,0.43-2.4,0.84l-0.39-0.99c0.84-0.63,2.04-1.02,3.05-1.02c2.08,0,2.9,1.36,2.9,2.62c0,2.13-1.91,3.88-4.7,6.02
			l-1.02,0.75v0.03h4.71l-0.22,1.17H238.76z"/>
		<path class="st0" d="M249.79,130.14c0.72-0.14,1.57-0.24,2.52-0.24c1.23,0,2.06,0.24,2.66,0.78c0.53,0.41,0.82,0.98,0.82,1.69
			c0,1.39-1.17,2.36-2.38,2.65v0.04c0.91,0.25,1.87,0.98,1.86,2.4c0,1.11-0.61,1.99-1.33,2.5c-0.91,0.66-2.17,0.9-3.72,0.9
			c-0.98,0-1.88-0.06-2.43-0.15L249.79,130.14z M249.35,139.66c0.39,0.05,0.83,0.07,1.23,0.07c1.57,0.01,3.23-0.5,3.23-2.34
			c0-1.32-1.22-1.79-2.41-1.79h-1.29L249.35,139.66z M250.34,134.56h1.16c1.62,0,2.86-0.77,2.86-2.06c0-1.11-0.9-1.49-2.11-1.49
			c-0.57,0-1.03,0.04-1.25,0.11L250.34,134.56z"/>
	</g>
</g>
<g>
	<g>
		<path class="st0" d="M58.58,155.01c0.7-0.14,1.98-0.25,3.22-0.25c1.64,0,2.65,0.2,3.48,0.77c0.76,0.45,1.26,1.24,1.26,2.27
			c0,1.12-0.7,2.14-2.02,2.63v0.04c1.28,0.32,2.45,1.33,2.45,3.01c0,1.08-0.47,1.93-1.17,2.5c-0.86,0.76-2.29,1.13-4.5,1.13
			c-1.22,0-2.16-0.09-2.72-0.16V155.01z M60.78,159.8h1.13c1.53,0,2.39-0.72,2.39-1.75c0-1.13-0.86-1.66-2.27-1.66
			c-0.65,0-1.03,0.04-1.26,0.09V159.8z M60.78,165.38c0.29,0.04,0.67,0.05,1.17,0.05c1.42,0,2.68-0.54,2.68-2.03
			c0-1.4-1.22-1.98-2.75-1.98h-1.1V165.38z"/>
		<path class="st0" d="M77.2,162.52c0,3.22-2.27,4.66-4.5,4.66c-2.48,0-4.39-1.71-4.39-4.52c0-2.88,1.89-4.65,4.54-4.65
			C75.45,158.02,77.2,159.86,77.2,162.52z M70.59,162.61c0,1.69,0.83,2.97,2.18,2.97c1.26,0,2.14-1.24,2.14-3.01
			c0-1.37-0.61-2.93-2.12-2.93C71.22,159.64,70.59,161.15,70.59,162.61z"/>
		<path class="st0" d="M87.03,158.22c-0.04,0.59-0.07,1.31-0.07,2.52v4.97c0,1.84-0.38,3.15-1.3,3.98
			c-0.92,0.81-2.18,1.06-3.38,1.06c-1.12,0-2.3-0.23-3.06-0.7l0.49-1.67c0.56,0.32,1.49,0.67,2.56,0.67c1.44,0,2.52-0.76,2.52-2.65
			v-0.76h-0.04c-0.5,0.77-1.4,1.3-2.56,1.3c-2.18,0-3.73-1.8-3.73-4.29c0-2.88,1.87-4.63,3.98-4.63c1.33,0,2.12,0.65,2.54,1.37h0.04
			l0.09-1.17H87.03z M84.74,161.73c0-0.2-0.02-0.41-0.07-0.59c-0.23-0.81-0.86-1.42-1.8-1.42c-1.24,0-2.16,1.08-2.16,2.86
			c0,1.49,0.76,2.7,2.14,2.7c0.83,0,1.55-0.54,1.8-1.33c0.05-0.23,0.09-0.54,0.09-0.79V161.73z"/>
		<path class="st0" d="M97.66,162.52c0,3.22-2.27,4.66-4.5,4.66c-2.48,0-4.39-1.71-4.39-4.52c0-2.88,1.89-4.65,4.54-4.65
			C95.92,158.02,97.66,159.86,97.66,162.52z M91.06,162.61c0,1.69,0.83,2.97,2.18,2.97c1.26,0,2.14-1.24,2.14-3.01
			c0-1.37-0.61-2.93-2.12-2.93C91.69,159.64,91.06,161.15,91.06,162.61z"/>
		<path class="st0" d="M102.02,155.71v2.5h2.11v1.66h-2.11v3.87c0,1.06,0.29,1.62,1.13,1.62c0.38,0,0.67-0.05,0.86-0.11l0.04,1.69
			c-0.32,0.13-0.9,0.22-1.6,0.22c-0.81,0-1.49-0.27-1.91-0.72c-0.47-0.5-0.68-1.3-0.68-2.45v-4.12H98.6v-1.66h1.26v-1.98
			L102.02,155.71z"/>
		<path class="st0" d="M110.73,166.99l-0.14-0.97h-0.05c-0.54,0.68-1.46,1.17-2.59,1.17c-1.76,0-2.75-1.28-2.75-2.61
			c0-2.21,1.96-3.33,5.2-3.31v-0.14c0-0.58-0.23-1.53-1.78-1.53c-0.86,0-1.76,0.27-2.36,0.65l-0.43-1.44
			c0.65-0.4,1.78-0.77,3.17-0.77c2.81,0,3.62,1.78,3.62,3.69v3.17c0,0.79,0.04,1.57,0.13,2.11H110.73z M110.44,162.7
			c-1.57-0.04-3.06,0.31-3.06,1.64c0,0.86,0.56,1.26,1.26,1.26c0.88,0,1.53-0.58,1.73-1.21c0.05-0.16,0.07-0.34,0.07-0.49V162.7z
			 M111.81,154.42l-2.21,2.66h-1.53l1.57-2.66H111.81z"/>
		<path class="st0" d="M113.9,169.17c0.49-1.37,0.97-3.26,1.21-4.75l2.32-0.18c-0.5,1.69-1.31,3.64-2.02,4.79L113.9,169.17z"/>
		<path class="st0" d="M131.7,166.63c-0.52,0.27-1.67,0.54-3.13,0.54c-3.85,0-6.19-2.41-6.19-6.1c0-4,2.77-6.41,6.48-6.41
			c1.46,0,2.5,0.31,2.95,0.54l-0.49,1.76c-0.58-0.25-1.37-0.47-2.38-0.47c-2.47,0-4.25,1.55-4.25,4.46c0,2.67,1.57,4.38,4.23,4.38
			c0.9,0,1.84-0.18,2.41-0.45L131.7,166.63z"/>
		<path class="st0" d="M141.83,162.52c0,3.22-2.27,4.66-4.5,4.66c-2.48,0-4.39-1.71-4.39-4.52c0-2.88,1.89-4.65,4.54-4.65
			C140.09,158.02,141.83,159.86,141.83,162.52z M135.23,162.61c0,1.69,0.83,2.97,2.18,2.97c1.26,0,2.14-1.24,2.14-3.01
			c0-1.37-0.61-2.93-2.12-2.93C135.86,159.64,135.23,161.15,135.23,162.61z"/>
		<path class="st0" d="M143.65,154.2h2.23v12.78h-2.23V154.2z"/>
		<path class="st0" d="M156.61,162.52c0,3.22-2.27,4.66-4.5,4.66c-2.48,0-4.39-1.71-4.39-4.52c0-2.88,1.89-4.65,4.54-4.65
			C154.87,158.02,156.61,159.86,156.61,162.52z M150.01,162.61c0,1.69,0.83,2.97,2.18,2.97c1.26,0,2.14-1.24,2.14-3.01
			c0-1.37-0.61-2.93-2.12-2.93C150.64,159.64,150.01,161.15,150.01,162.61z"/>
		<path class="st0" d="M158.43,160.83c0-1.01-0.02-1.85-0.07-2.61h1.91l0.09,1.3h0.05c0.43-0.68,1.22-1.49,2.7-1.49
			c1.15,0,2.05,0.65,2.43,1.62h0.04c0.31-0.49,0.67-0.85,1.08-1.1c0.49-0.34,1.04-0.52,1.76-0.52c1.46,0,2.93,0.99,2.93,3.8v5.17
			h-2.16v-4.84c0-1.46-0.5-2.32-1.57-2.32c-0.76,0-1.31,0.54-1.55,1.17c-0.05,0.22-0.11,0.49-0.11,0.74v5.26h-2.16v-5.08
			c0-1.22-0.49-2.09-1.51-2.09c-0.83,0-1.39,0.65-1.58,1.26c-0.09,0.22-0.13,0.47-0.13,0.72v5.19h-2.16V160.83z"/>
		<path class="st0" d="M173.62,166.99c0.04-0.59,0.07-1.57,0.07-2.47V154.2h2.21v5.22h0.04c0.54-0.85,1.49-1.4,2.81-1.4
			c2.14,0,3.67,1.78,3.66,4.45c0,3.15-2,4.72-3.98,4.72c-1.13,0-2.14-0.43-2.77-1.51h-0.04l-0.11,1.31H173.62z M175.91,163.37
			c0,0.18,0.02,0.36,0.05,0.52c0.23,0.88,1.01,1.55,1.96,1.55c1.39,0,2.23-1.12,2.23-2.88c0-1.55-0.74-2.81-2.21-2.81
			c-0.9,0-1.71,0.65-1.96,1.62c-0.04,0.16-0.07,0.36-0.07,0.58V163.37z"/>
		<path class="st0" d="M186.58,155.77c0,0.67-0.49,1.19-1.26,1.19c-0.74,0-1.22-0.52-1.22-1.19c0-0.68,0.5-1.21,1.24-1.21
			C186.09,154.56,186.56,155.08,186.58,155.77z M184.22,166.99v-8.77h2.23v8.77H184.22z"/>
		<path class="st0" d="M193.76,166.99l-0.14-0.97h-0.05c-0.54,0.68-1.46,1.17-2.59,1.17c-1.76,0-2.75-1.28-2.75-2.61
			c0-2.21,1.96-3.33,5.2-3.31v-0.14c0-0.58-0.23-1.53-1.78-1.53c-0.86,0-1.76,0.27-2.36,0.65l-0.43-1.44
			c0.65-0.4,1.78-0.77,3.17-0.77c2.81,0,3.62,1.78,3.62,3.69v3.17c0,0.79,0.04,1.57,0.13,2.11H193.76z M193.48,162.7
			c-1.57-0.04-3.06,0.31-3.06,1.64c0,0.86,0.56,1.26,1.26,1.26c0.88,0,1.53-0.58,1.73-1.21c0.05-0.16,0.07-0.34,0.07-0.49V162.7z"/>
		<path class="st0" d="M205.01,161.84v1.1h-4.2v-1.1H205.01z"/>
		<path class="st0" d="M218.7,166.55c-0.75,0.33-1.95,0.64-3.46,0.64c-3.06,0-5.21-1.74-5.21-5.01c0-2.13,0.95-4.04,2.54-5.26
			c1.26-1,2.83-1.59,4.73-1.59c1.53,0,2.59,0.39,2.93,0.67l-0.49,1.15c-0.49-0.31-1.46-0.58-2.7-0.58c-1.33,0-2.68,0.49-3.67,1.36
			c-1.09,0.94-1.78,2.43-1.78,4.1c0,2.1,1.11,3.92,4,3.92c1,0,2.11-0.2,2.87-0.58L218.7,166.55z"/>
		<path class="st0" d="M228.88,162.23c0,2.69-2.06,4.96-4.91,4.96c-2.24,0-3.62-1.59-3.62-3.57c0-2.88,2.12-5.06,4.87-5.06
			C227.63,158.56,228.88,160.27,228.88,162.23z M221.89,163.58c0,1.47,0.97,2.45,2.29,2.45c1.71,0,3.18-1.7,3.18-3.79
			c0-1-0.54-2.53-2.26-2.53C223.18,159.72,221.89,161.61,221.89,163.58z M228.17,155.25l-2.38,2.48h-1.18l1.75-2.48H228.17z"/>
		<path class="st0" d="M239.4,154.82l-1.85,9.66c-0.16,0.84-0.28,1.71-0.34,2.51h-1.37l0.26-1.74h-0.03
			c-0.87,1.28-1.99,1.94-3.3,1.94c-1.76,0-2.72-1.41-2.72-3.17c0-2.96,2.41-5.46,5.49-5.46c0.58,0,1.24,0.11,1.65,0.28l0.75-4.02
			H239.4z M236.96,160.07c-0.33-0.18-0.87-0.34-1.54-0.34c-2.11,0-3.84,1.77-3.84,4.12c0,1,0.38,2.16,1.77,2.16
			c1.24,0,2.73-1.4,3.09-3.33L236.96,160.07z"/>
		<path class="st0" d="M239.77,166.99l1.57-8.22h1.47l-1.57,8.22H239.77z M241.59,156.4c0-0.57,0.43-0.98,0.96-0.98
			c0.52,0,0.88,0.37,0.9,0.91c-0.01,0.56-0.41,0.97-0.99,0.97C241.94,157.31,241.59,156.91,241.59,156.4z"/>
		<path class="st0" d="M243.99,168.8c0.55,0.36,1.47,0.6,2.46,0.6c1.43,0,2.71-0.64,3.25-3.1l0.27-1.21h-0.05
			c-0.73,1.19-1.84,1.86-3.16,1.86c-1.88,0-2.82-1.57-2.82-3c0-2.92,2.29-5.39,5.55-5.39c1.06,0,2.22,0.29,2.94,0.63l-1.24,6.69
			c-0.33,1.75-0.83,2.99-1.78,3.78c-0.91,0.75-2.15,0.93-3.1,0.93c-1.12,0-2.17-0.25-2.75-0.64L243.99,168.8z M250.83,160.06
			c-0.29-0.14-0.9-0.33-1.58-0.33c-2.18,0-3.76,1.9-3.76,4.04c0,0.89,0.39,2.04,1.83,2.04c1.32,0,2.71-1.52,3.05-3.3L250.83,160.06z
			"/>
		<path class="st0" d="M262.24,162.23c0,2.69-2.06,4.96-4.91,4.96c-2.24,0-3.62-1.59-3.62-3.57c0-2.88,2.12-5.06,4.87-5.06
			C260.99,158.56,262.24,160.27,262.24,162.23z M255.24,163.58c0,1.47,0.97,2.45,2.29,2.45c1.71,0,3.18-1.7,3.18-3.79
			c0-1-0.54-2.53-2.26-2.53C256.53,159.72,255.24,161.61,255.24,163.58z"/>
		<path class="st0" d="M268.85,155.71c0.67-0.16,1.67-0.27,2.71-0.27c1.24,0,2.34,0.29,3.02,0.91c0.58,0.5,0.9,1.17,0.9,2.15
			c0,1.29-0.66,2.35-1.44,2.96c-0.94,0.74-2.32,1.08-3.73,1.08c-0.48,0-0.89-0.03-1.3-0.1l-0.87,4.55h-1.45L268.85,155.71z
			 M269.24,161.2c0.46,0.1,0.84,0.13,1.3,0.13c1.99,0,3.46-1.02,3.46-2.74c0-1.48-1.16-1.96-2.49-1.96c-0.67,0-1.15,0.06-1.43,0.14
			L269.24,161.2z"/>
		<path class="st0" d="M284.54,162.23c0,2.69-2.06,4.96-4.91,4.96c-2.24,0-3.62-1.59-3.62-3.57c0-2.88,2.12-5.06,4.87-5.06
			C283.29,158.56,284.54,160.27,284.54,162.23z M277.54,163.58c0,1.47,0.97,2.45,2.29,2.45c1.71,0,3.18-1.7,3.18-3.79
			c0-1-0.54-2.53-2.26-2.53C278.84,159.72,277.54,161.61,277.54,163.58z"/>
		<path class="st0" d="M285.78,165.51c0.43,0.25,1.23,0.55,1.93,0.55c0.99,0,1.64-0.62,1.64-1.33c0-0.61-0.26-1-1.24-1.49
			c-1.08-0.53-1.62-1.26-1.62-2.13c0-1.45,1.32-2.56,3.12-2.56c0.81,0,1.53,0.22,1.86,0.44l-0.42,1.1
			c-0.29-0.17-0.87-0.42-1.57-0.42c-0.87,0-1.51,0.53-1.51,1.22c0,0.6,0.4,0.96,1.25,1.39c1,0.5,1.66,1.21,1.66,2.16
			c0,1.71-1.49,2.73-3.29,2.73c-0.96,0-1.79-0.29-2.22-0.6L285.78,165.51z"/>
		<path class="st0" d="M296.32,156.54l-0.42,2.22h2.1l-0.23,1.16h-2.1l-0.72,3.76c-0.09,0.47-0.18,0.91-0.18,1.4
			c0,0.52,0.26,0.85,0.85,0.85c0.27,0,0.52-0.02,0.72-0.08l-0.06,1.16c-0.24,0.1-0.7,0.16-1.16,0.16c-1.37,0-1.85-0.84-1.85-1.69
			c0-0.53,0.07-1.04,0.19-1.61l0.77-3.97h-1.24l0.23-1.16h1.24l0.35-1.87L296.32,156.54z"/>
		<path class="st0" d="M304.29,166.99c-0.01-0.5,0.08-1.39,0.2-2.31h-0.03c-0.92,1.81-2.19,2.51-3.53,2.51
			c-1.62,0-2.64-1.27-2.64-2.85c0-2.99,2.37-5.78,6.07-5.78c0.86,0,1.81,0.14,2.46,0.33l-0.8,4.15c-0.29,1.54-0.39,3.05-0.35,3.95
			H304.29z M305.16,159.86c-0.21-0.07-0.56-0.13-1.14-0.13c-2.23,0-4.2,1.95-4.2,4.4c0,0.88,0.37,1.88,1.62,1.88
			c1.3,0,2.85-1.5,3.28-3.87L305.16,159.86z"/>
		<path class="st0" d="M307.99,166.99l2.33-12.17h1.47l-2.33,12.17H307.99z"/>
		<path class="st0" d="M319.98,157.41h-0.03l-1.88,0.92l-0.18-1.15l2.52-1.24h1.26l-2.1,11.05h-1.42L319.98,157.41z"/>
		<path class="st0" d="M328.94,157.41h-0.03l-1.88,0.92l-0.18-1.15l2.52-1.24h1.26l-2.1,11.05h-1.42L328.94,157.41z"/>
		<path class="st0" d="M337.9,157.41h-0.03l-1.88,0.92l-0.18-1.15l2.52-1.24h1.26l-2.1,11.05h-1.42L337.9,157.41z"/>
		<path class="st0" d="M351.17,155.94l-0.2,1.05c-2.25,3.32-4.49,6.66-6.75,10h-1.64c2.24-3.26,4.48-6.51,6.7-9.76l-0.01-0.05h-5.42
			l0.24-1.24H351.17z"/>
		<path class="st0" d="M355.81,157.41h-0.03l-1.88,0.92l-0.18-1.15l2.52-1.24h1.26l-2.1,11.05h-1.42L355.81,157.41z"/>
		<path class="st0" d="M364.77,157.41h-0.03l-1.88,0.92l-0.18-1.15l2.52-1.24h1.26l-2.1,11.05h-1.42L364.77,157.41z"/>
	</g>
</g>
</svg>
